<svg width="42" height="42" viewBox="0 0 42 42" fill="none" xmlns="http://www.w3.org/2000/svg">
<path d="M39.0521 20.7286C39.0521 30.7405 30.9355 38.8662 20.9145 38.8662C10.8935 38.8662 2.77698 30.7405 2.77698 20.7286C2.77698 10.7076 10.8935 2.59106 20.9145 2.59106C30.9355 2.59106 39.0521 10.7076 39.0521 20.7286Z" fill="#283544"/>
<path d="M29.4161 16.139C29.3171 16.1967 26.961 17.4152 26.961 20.1169C27.072 23.198 29.9343 24.2785 29.9834 24.2785C29.9343 24.3363 29.5513 25.7505 28.4167 27.2329C27.5162 28.5099 26.5168 29.7974 24.9992 29.7974C23.5556 29.7974 23.0373 28.9463 21.3716 28.9463C19.5828 28.9463 19.0767 29.7974 17.7071 29.7974C16.1895 29.7974 15.116 28.4409 14.1665 27.1759C12.9329 25.5203 11.8844 22.9221 11.8474 20.4273C11.8224 19.1054 12.0944 17.8059 12.7848 16.7021C13.7593 15.1612 15.4991 14.1152 17.3989 14.0807C18.8546 14.0349 20.1501 15.012 21.0385 15.012C21.8899 15.012 23.4815 14.0807 25.2824 14.0807C26.0597 14.0814 28.1326 14.2996 29.4161 16.139ZM20.9154 13.8167C20.6563 12.6095 21.3716 11.4022 22.0379 10.6321C22.8893 9.70084 24.2339 9.06873 25.3935 9.06873C25.4675 10.276 24.9984 11.46 24.1599 12.3223C23.4075 13.2536 22.112 13.9547 20.9154 13.8167Z" fill="white"/>
</svg>
