<svg width="19" height="18" viewBox="0 0 19 18" fill="none" xmlns="http://www.w3.org/2000/svg">
<path fill-rule="evenodd" clip-rule="evenodd" d="M8.42397 1.65835C8.48153 1.47581 8.59578 1.31638 8.75014 1.20321C8.90449 1.09004 9.0909 1.02902 9.2823 1.02902C9.4737 1.02902 9.66011 1.09004 9.81446 1.20321C9.96882 1.31638 10.0831 1.47581 10.1406 1.65835L11.6906 6.42502H16.6906C16.8889 6.41752 17.0841 6.47513 17.2465 6.58905C17.409 6.70296 17.5296 6.86692 17.5901 7.05586C17.6505 7.24481 17.6475 7.44835 17.5814 7.63539C17.5153 7.82244 17.3897 7.9827 17.224 8.09168L13.1656 11.0333L14.7156 15.8083C14.7769 15.9902 14.7785 16.187 14.72 16.3698C14.6616 16.5526 14.5463 16.712 14.3908 16.8246C14.2354 16.9372 14.048 16.9972 13.8561 16.9958C13.6642 16.9943 13.4777 16.9316 13.324 16.8167L9.2573 13.8417L5.19897 16.7917C5.04522 16.9066 4.85877 16.9693 4.66684 16.9708C4.4749 16.9722 4.28754 16.9122 4.13211 16.7996C3.97668 16.687 3.86133 16.5276 3.80289 16.3448C3.74445 16.162 3.746 15.9652 3.8073 15.7833L5.3573 11.0083L1.29897 8.06668C1.1332 7.9577 1.00768 7.79744 0.941567 7.61039C0.875458 7.42335 0.872401 7.21981 0.932863 7.03086C0.993325 6.84192 1.11398 6.67796 1.2764 6.56405C1.43881 6.45013 1.63406 6.39252 1.8323 6.40002H6.8323L8.42397 1.65835Z" stroke="#EBEBEB" stroke-width="1.5" stroke-linecap="round" stroke-linejoin="round"/>
</svg>
