<svg width="75" height="16" viewBox="0 0 75 16" fill="none" xmlns="http://www.w3.org/2000/svg">
<g clip-path="url(#clip0_711_4856)">
<path d="M15.4242 9.93677C14.3783 14.2225 10.1296 16.8307 5.93429 15.7619C1.74066 14.6934 -0.812284 10.3525 0.234045 6.06708C1.2794 1.7809 5.5281 -0.827562 9.72222 0.240921C13.9173 1.3094 16.47 5.65084 15.4242 9.93677Z" fill="#FCA014"/>
<path d="M11.2812 6.8612C11.4371 5.79672 10.6437 5.22448 9.559 4.84273L9.91087 3.40075L9.05174 3.18201L8.70917 4.58599C8.48331 4.52849 8.25133 4.47424 8.02083 4.42049L8.36585 3.00726L7.5072 2.78851L7.15508 4.22999C6.96813 4.18649 6.78461 4.1435 6.60647 4.09825L6.60745 4.09374L5.42262 3.7915L5.19408 4.72898C5.19408 4.72898 5.83151 4.87823 5.81806 4.88748C6.16602 4.97623 6.2289 5.21147 6.21838 5.39797L5.81756 7.0407C5.84154 7.04695 5.87262 7.05595 5.90688 7.06995C5.87825 7.0627 5.84767 7.0547 5.8161 7.04695L5.25427 9.34816C5.21169 9.45616 5.10378 9.61816 4.86055 9.55666C4.86912 9.56941 4.23608 9.39741 4.23608 9.39741L3.80957 10.4021L4.9276 10.6869C5.13559 10.7401 5.33942 10.7959 5.54007 10.8484L5.18453 12.3069L6.04269 12.5256L6.39481 11.0826C6.62923 11.1476 6.8568 11.2076 7.07947 11.2641L6.72858 12.7004L7.58771 12.9191L7.94326 11.4634C9.40827 11.7466 10.5099 11.6324 10.9736 10.2786C11.3473 9.18866 10.955 8.55993 10.1842 8.14993C10.7455 8.01768 11.1684 7.64044 11.2812 6.8612ZM9.31822 9.67341C9.05272 10.7634 7.25639 10.1741 6.67401 10.0264L7.14579 8.09418C7.72817 8.24268 9.5957 8.53668 9.31822 9.67341ZM9.58396 6.84545C9.34171 7.83693 7.8466 7.33319 7.36161 7.20969L7.78934 5.45723C8.27434 5.58072 9.83624 5.81122 9.58396 6.84545Z" fill="white"/>
<g opacity="0.5">
<path d="M22.9464 4.84128C23.5814 4.84128 24.13 4.95752 24.591 5.18577C25.0543 5.41627 25.4365 5.72677 25.7431 6.11726C26.0455 6.50975 26.2706 6.9685 26.416 7.49424C26.5604 8.02148 26.6328 8.58822 26.6328 9.19496C26.6328 10.1269 26.4657 11.0074 26.1282 11.8374C25.7908 12.6687 25.333 13.3896 24.7506 14.0046C24.1687 14.6189 23.4816 15.1031 22.6892 15.4609C21.8981 15.8189 21.038 15.9979 20.1145 15.9979C19.9951 15.9979 19.7852 15.9944 19.4886 15.9881C19.192 15.9819 18.8512 15.9506 18.4694 15.8979C18.0852 15.8431 17.679 15.7621 17.2501 15.6536C16.8214 15.5471 16.4142 15.3979 16.0308 15.2084L19.4595 0.489601L22.5304 0.00335693L21.3028 5.22653C21.5656 5.10553 21.8303 5.01178 22.0946 4.94353C22.3591 4.87628 22.643 4.84128 22.9464 4.84128ZM20.3705 13.5089C20.833 13.5089 21.2688 13.3926 21.6781 13.1644C22.0888 12.9359 22.4431 12.6274 22.7399 12.2432C23.0367 11.8572 23.2716 11.4224 23.4429 10.9367C23.6142 10.4509 23.7008 9.9442 23.7008 9.41696C23.7008 8.76922 23.5949 8.26398 23.3837 7.89873C23.1725 7.53499 22.7817 7.35199 22.2143 7.35199C22.0283 7.35199 21.7888 7.38824 21.4917 7.45299C21.1936 7.52174 20.9269 7.66449 20.6879 7.87923L19.3807 13.4261C19.4595 13.4404 19.5292 13.4539 19.5887 13.4666C19.6469 13.4804 19.7113 13.4901 19.7754 13.4969C19.8432 13.5046 19.9207 13.5086 20.0144 13.5086C20.1082 13.5086 20.2254 13.5089 20.3705 13.5089Z" fill="#666666"/>
<path d="M29.8175 15.7161H26.8843L29.3614 5.06702H32.3146L29.8175 15.7161ZM31.2448 3.76954C30.8354 3.76954 30.4642 3.64504 30.1348 3.39554C29.8028 3.14755 29.6384 2.7658 29.6384 2.25131C29.6384 1.96832 29.6946 1.70282 29.8062 1.45232C29.9195 1.20232 30.0676 0.98708 30.253 0.804083C30.4383 0.622586 30.6529 0.477585 30.8966 0.368337C31.1418 0.260839 31.4026 0.207092 31.6806 0.207092C32.0897 0.207092 32.459 0.331591 32.7896 0.581087C33.1189 0.831833 33.2846 1.21358 33.2846 1.72532C33.2846 2.00931 33.2286 2.27581 33.116 2.5258C33.0042 2.7758 32.8561 2.99104 32.6707 3.17404C32.4869 3.35579 32.2703 3.50029 32.0271 3.60854C31.7817 3.71778 31.5218 3.76954 31.2448 3.76954Z" fill="#666666"/>
<path d="M34.8844 2.4138L37.9565 1.92755L37.2021 5.0665H40.4924L39.8982 7.53596H36.6278L35.7567 11.2609C35.6764 11.5714 35.6309 11.8614 35.6182 12.1309C35.6038 12.4016 35.6373 12.6341 35.7166 12.8299C35.7954 13.0261 35.937 13.1774 36.1426 13.2844C36.3472 13.3931 36.6401 13.4479 37.0242 13.4479C37.3406 13.4479 37.649 13.4171 37.947 13.3561C38.2433 13.2961 38.5436 13.2126 38.8475 13.1034L39.0663 15.4123C38.6698 15.5608 38.2406 15.6886 37.7782 15.7961C37.3149 15.9051 36.7666 15.9576 36.1328 15.9576C35.2215 15.9576 34.5151 15.8193 34.0118 15.5441C33.5091 15.2668 33.1538 14.8881 32.9412 14.4086C32.7315 13.9309 32.6378 13.3801 32.664 12.7596C32.6911 12.1376 32.7829 11.4839 32.9412 10.7954L34.8844 2.4138Z" fill="#666666"/>
</g>
<path d="M40.3643 11.4636C40.3643 10.5464 40.5096 9.68143 40.8001 8.87169C41.09 8.06121 41.5077 7.35246 42.0497 6.74422C42.5898 6.13898 43.2478 5.65949 44.0222 5.30749C44.793 4.9575 45.6561 4.78101 46.6072 4.78101C47.2026 4.78101 47.7343 4.83851 48.2022 4.95376C48.672 5.07 49.097 5.22025 49.4815 5.40875L48.4699 7.75871C48.2056 7.64921 47.9313 7.55271 47.6477 7.46521C47.3638 7.37596 47.0174 7.33297 46.6075 7.33297C45.6284 7.33297 44.8545 7.67771 44.2784 8.36495C43.7046 9.05269 43.4156 9.97842 43.4156 11.1397C43.4156 11.8279 43.561 12.3844 43.8527 12.8101C44.1429 13.2359 44.679 13.4476 45.4574 13.4476C45.8416 13.4476 46.2123 13.4066 46.5674 13.3266C46.9251 13.2456 47.241 13.1436 47.5192 13.0231L47.7382 15.4321C47.3673 15.5791 46.9581 15.7118 46.5094 15.8281C46.0596 15.9403 45.5242 15.9986 44.9034 15.9986C44.0839 15.9986 43.3902 15.8761 42.8227 15.6348C42.255 15.3898 41.786 15.0646 41.4165 14.6526C41.045 14.2396 40.7783 13.7574 40.6134 13.2039C40.4484 12.6509 40.3643 12.0699 40.3643 11.4636Z" fill="#666666"/>
<path d="M53.3939 15.9986C52.6938 15.9986 52.0857 15.8896 51.5699 15.6738C51.0556 15.4581 50.6295 15.1553 50.2926 14.7629C49.9552 14.3724 49.7026 13.9096 49.5296 13.3764C49.3566 12.8434 49.2734 12.2531 49.2734 11.6064C49.2734 10.7952 49.4009 9.98417 49.6586 9.17544C49.915 8.36495 50.2955 7.63671 50.7991 6.98947C51.2988 6.34124 51.9152 5.81124 52.641 5.39799C53.366 4.9875 54.1999 4.78101 55.1367 4.78101C55.824 4.78101 56.4289 4.89025 56.9518 5.106C57.4723 5.32124 57.901 5.62649 58.2399 6.01699C58.5752 6.40948 58.8299 6.87023 59.0012 7.40422C59.1737 7.93621 59.2588 8.52795 59.2588 9.17519C59.2588 9.98392 59.1331 10.7949 58.8835 11.6061C58.6336 12.4134 58.2629 13.1434 57.7735 13.7921C57.2851 14.4394 56.6743 14.9691 55.9407 15.3806C55.2081 15.7921 54.3585 15.9986 53.3939 15.9986ZM54.8599 7.33322C54.4251 7.33322 54.0406 7.46221 53.7115 7.71696C53.3812 7.9747 53.1037 8.2987 52.88 8.68945C52.6539 9.08194 52.4863 9.50993 52.373 9.97518C52.2607 10.4414 52.2057 10.8822 52.2057 11.3009C52.2057 11.9766 52.3123 12.5029 52.5221 12.8816C52.7347 13.2584 53.1167 13.4479 53.6719 13.4479C54.1082 13.4479 54.4907 13.3199 54.8217 13.0624C55.1501 12.8066 55.4278 12.4824 55.6532 12.0909C55.8778 11.7004 56.0469 11.2712 56.1602 10.8052C56.2711 10.3404 56.3276 9.89718 56.3276 9.47918C56.3276 8.80519 56.2214 8.2777 56.0097 7.89946C55.7983 7.52271 55.4146 7.33322 54.8599 7.33322Z" fill="#666666"/>
<path d="M62.4557 15.7161H59.52L61.9971 5.06702H64.9518L62.4557 15.7161ZM63.8808 3.76954C63.4717 3.76954 63.1007 3.64504 62.7718 3.39554C62.4415 3.14755 62.2756 2.7658 62.2756 2.25131C62.2756 1.96832 62.3326 1.70282 62.4444 1.45232C62.5562 1.20232 62.7053 0.98708 62.8907 0.804083C63.075 0.622586 63.2916 0.477585 63.5348 0.368337C63.7785 0.260839 64.0393 0.207092 64.3163 0.207092C64.7265 0.207092 65.0969 0.331591 65.4268 0.581087C65.7569 0.831833 65.9235 1.21358 65.9235 1.72532C65.9235 2.00931 65.8643 2.27581 65.7535 2.5258C65.6426 2.7758 65.4936 2.99104 65.3088 3.17404C65.1229 3.35579 64.909 3.50029 64.6653 3.60854C64.4196 3.71778 64.1593 3.76954 63.8808 3.76954Z" fill="#666666"/>
<path d="M67.0663 5.55127C67.2889 5.48477 67.5375 5.40478 67.8079 5.31778C68.0793 5.23078 68.3825 5.14978 68.7212 5.07679C69.0561 5.00154 69.4342 4.94054 69.85 4.89329C70.2657 4.84504 70.7394 4.82153 71.2658 4.82153C72.8127 4.82153 73.8791 5.28178 74.4679 6.19952C75.0561 7.11725 75.1579 8.37323 74.7762 9.96521L73.4269 15.7151H70.4744L71.7821 10.0862C71.8619 9.73471 71.9245 9.39496 71.9708 9.06297C72.0175 8.73397 72.0148 8.44398 71.9602 8.19299C71.9081 7.94499 71.7853 7.74199 71.5946 7.58474C71.4011 7.42999 71.1087 7.35225 70.712 7.35225C70.3296 7.35225 69.9405 7.39425 69.5433 7.47525L67.6207 15.7149H64.667L67.0663 5.55127Z" fill="#666666"/>
</g>
<defs>
<clipPath id="clip0_711_4856">
<rect width="75" height="16" fill="white"/>
</clipPath>
</defs>
</svg>
