<svg width="18" height="16" viewBox="0 0 18 16" fill="none" xmlns="http://www.w3.org/2000/svg">
<path fill-rule="evenodd" clip-rule="evenodd" d="M8.42397 0.658349C8.48153 0.475814 8.59578 0.316382 8.75014 0.20321C8.90449 0.0900392 9.0909 0.0290222 9.2823 0.0290222C9.4737 0.0290222 9.66011 0.0900392 9.81446 0.20321C9.96882 0.316382 10.0831 0.475814 10.1406 0.658349L11.6906 5.42501H16.6906C16.8889 5.41752 17.0841 5.47513 17.2465 5.58905C17.409 5.70296 17.5296 5.86692 17.5901 6.05586C17.6505 6.24481 17.6475 6.44835 17.5814 6.63539C17.5153 6.82244 17.3897 6.9827 17.224 7.09168L13.1656 10.0333L14.7156 14.8083C14.7769 14.9902 14.7785 15.187 14.72 15.3698C14.6616 15.5526 14.5463 15.712 14.3908 15.8246C14.2354 15.9372 14.048 15.9972 13.8561 15.9958C13.6642 15.9943 13.4777 15.9316 13.324 15.8167L9.2573 12.8417L5.19897 15.7917C5.04522 15.9066 4.85877 15.9693 4.66684 15.9708C4.4749 15.9722 4.28754 15.9122 4.13211 15.7996C3.97668 15.687 3.86133 15.5276 3.80289 15.3448C3.74445 15.162 3.746 14.9652 3.8073 14.7833L5.3573 10.0083L1.29897 7.06668C1.1332 6.9577 1.00768 6.79744 0.941567 6.61039C0.875458 6.42335 0.872401 6.21981 0.932863 6.03086C0.993325 5.84192 1.11398 5.67796 1.2764 5.56405C1.43881 5.45013 1.63406 5.39252 1.8323 5.40002H6.8323L8.42397 0.658349Z" fill="#151515"/>
</svg>
