<svg width="1170" height="400" viewBox="0 0 1170 400" fill="none" xmlns="http://www.w3.org/2000/svg">
<rect width="1170" height="400" rx="20" fill="#EAFDFF"/>
<path d="M338.392 213V187.8H348.904C351.616 187.8 353.74 188.352 355.276 189.456C356.812 190.56 357.58 192.156 357.58 194.244C357.58 195.612 357.256 196.764 356.608 197.7C355.96 198.636 355.06 199.344 353.908 199.824C352.78 200.28 351.508 200.508 350.092 200.508L350.74 199.788C352.468 199.788 353.944 200.04 355.168 200.544C356.392 201.048 357.316 201.78 357.94 202.74C358.588 203.7 358.912 204.9 358.912 206.34C358.912 208.452 358.144 210.096 356.608 211.272C355.072 212.424 352.744 213 349.624 213H338.392ZM340.228 211.416H349.624C352.048 211.416 353.896 211.008 355.168 210.192C356.44 209.352 357.076 208.02 357.076 206.196C357.076 204.396 356.44 203.088 355.168 202.272C353.896 201.432 352.048 201.012 349.624 201.012H340.012V199.428H348.832C351.016 199.428 352.708 199.008 353.908 198.168C355.108 197.328 355.708 196.068 355.708 194.388C355.708 192.732 355.108 191.484 353.908 190.644C352.708 189.804 351.016 189.384 348.832 189.384H340.228V211.416ZM376.73 213V208.716L376.658 208.068V201.012C376.658 199.26 376.178 197.928 375.218 197.016C374.282 196.104 372.902 195.648 371.078 195.648C369.782 195.648 368.57 195.876 367.442 196.332C366.338 196.764 365.39 197.328 364.598 198.024L363.698 196.728C364.634 195.888 365.762 195.24 367.082 194.784C368.402 194.304 369.782 194.064 371.222 194.064C373.55 194.064 375.338 194.652 376.586 195.828C377.834 197.004 378.458 198.756 378.458 201.084V213H376.73ZM369.962 213.144C368.57 213.144 367.358 212.928 366.326 212.496C365.318 212.04 364.538 211.404 363.986 210.588C363.458 209.772 363.194 208.836 363.194 207.78C363.194 206.82 363.41 205.956 363.842 205.188C364.298 204.396 365.042 203.76 366.074 203.28C367.106 202.776 368.486 202.524 370.214 202.524H377.126V203.928H370.25C368.306 203.928 366.938 204.288 366.146 205.008C365.378 205.728 364.994 206.628 364.994 207.708C364.994 208.908 365.45 209.868 366.362 210.588C367.274 211.308 368.558 211.668 370.214 211.668C371.798 211.668 373.13 211.308 374.21 210.588C375.314 209.868 376.13 208.824 376.658 207.456L377.162 208.68C376.658 210.048 375.794 211.14 374.57 211.956C373.37 212.748 371.834 213.144 369.962 213.144ZM395.055 194.064C396.591 194.064 397.923 194.364 399.051 194.964C400.203 195.54 401.091 196.428 401.715 197.628C402.363 198.804 402.687 200.268 402.687 202.02V213H400.887V202.164C400.887 200.052 400.347 198.444 399.267 197.34C398.211 196.236 396.723 195.684 394.803 195.684C393.339 195.684 392.067 195.984 390.987 196.584C389.907 197.184 389.079 198.024 388.503 199.104C387.951 200.184 387.675 201.48 387.675 202.992V213H385.875V194.208H387.603V199.428L387.351 198.852C387.927 197.364 388.875 196.2 390.195 195.36C391.515 194.496 393.135 194.064 395.055 194.064ZM419.277 194.064C420.813 194.064 422.145 194.364 423.273 194.964C424.425 195.54 425.313 196.428 425.937 197.628C426.585 198.804 426.909 200.268 426.909 202.02V213H425.109V202.164C425.109 200.052 424.569 198.444 423.489 197.34C422.433 196.236 420.945 195.684 419.025 195.684C417.561 195.684 416.289 195.984 415.209 196.584C414.129 197.184 413.301 198.024 412.725 199.104C412.173 200.184 411.897 201.48 411.897 202.992V213H410.097V194.208H411.825V199.428L411.573 198.852C412.149 197.364 413.097 196.2 414.417 195.36C415.737 194.496 417.357 194.064 419.277 194.064ZM441.952 213.144C440.056 213.144 438.376 212.736 436.912 211.92C435.472 211.104 434.332 209.976 433.492 208.536C432.676 207.096 432.268 205.452 432.268 203.604C432.268 201.732 432.652 200.088 433.42 198.672C434.212 197.232 435.292 196.104 436.66 195.288C438.028 194.472 439.564 194.064 441.268 194.064C442.972 194.064 444.496 194.46 445.84 195.252C447.208 196.044 448.276 197.16 449.044 198.6C449.836 200.016 450.232 201.66 450.232 203.532C450.232 203.604 450.22 203.688 450.196 203.784C450.196 203.856 450.196 203.94 450.196 204.036H433.6V202.632H449.224L448.504 203.316C448.528 201.852 448.216 200.544 447.568 199.392C446.944 198.216 446.092 197.304 445.012 196.656C443.932 195.984 442.684 195.648 441.268 195.648C439.876 195.648 438.628 195.984 437.524 196.656C436.444 197.304 435.592 198.216 434.968 199.392C434.344 200.544 434.032 201.864 434.032 203.352V203.676C434.032 205.212 434.368 206.58 435.04 207.78C435.736 208.956 436.684 209.88 437.884 210.552C439.084 211.2 440.452 211.524 441.988 211.524C443.188 211.524 444.304 211.308 445.336 210.876C446.392 210.444 447.28 209.784 448 208.896L449.044 210.084C448.228 211.092 447.196 211.86 445.948 212.388C444.724 212.892 443.392 213.144 441.952 213.144ZM455.8 213V194.208H457.528V199.356L457.348 198.78C457.876 197.268 458.764 196.104 460.012 195.288C461.26 194.472 462.82 194.064 464.692 194.064V195.828C464.62 195.828 464.548 195.828 464.476 195.828C464.404 195.804 464.332 195.792 464.26 195.792C462.172 195.792 460.54 196.452 459.364 197.772C458.188 199.068 457.6 200.88 457.6 203.208V213H455.8ZM484.686 213.144C483.03 213.144 481.758 212.688 480.87 211.776C480.006 210.864 479.574 209.616 479.574 208.032V190.104H481.374V207.852C481.374 209.052 481.674 209.976 482.274 210.624C482.874 211.272 483.738 211.596 484.866 211.596C486.042 211.596 487.014 211.248 487.782 210.552L488.538 211.812C488.058 212.268 487.47 212.604 486.774 212.82C486.102 213.036 485.406 213.144 484.686 213.144ZM476.118 195.756V194.208H487.35V195.756H476.118ZM500.234 213.144C498.434 213.144 496.826 212.736 495.41 211.92C494.018 211.104 492.902 209.976 492.062 208.536C491.246 207.096 490.838 205.452 490.838 203.604C490.838 201.732 491.246 200.088 492.062 198.672C492.902 197.232 494.018 196.104 495.41 195.288C496.826 194.472 498.434 194.064 500.234 194.064C502.034 194.064 503.642 194.472 505.058 195.288C506.474 196.104 507.59 197.232 508.406 198.672C509.222 200.088 509.63 201.732 509.63 203.604C509.63 205.452 509.222 207.096 508.406 208.536C507.59 209.976 506.474 211.104 505.058 211.92C503.642 212.736 502.034 213.144 500.234 213.144ZM500.234 211.524C501.674 211.524 502.97 211.2 504.122 210.552C505.274 209.88 506.174 208.944 506.822 207.744C507.47 206.544 507.794 205.164 507.794 203.604C507.794 202.02 507.47 200.64 506.822 199.464C506.174 198.264 505.274 197.34 504.122 196.692C502.97 196.02 501.674 195.684 500.234 195.684C498.794 195.684 497.498 196.02 496.346 196.692C495.218 197.34 494.318 198.264 493.646 199.464C492.998 200.64 492.674 202.02 492.674 203.604C492.674 205.164 492.998 206.544 493.646 207.744C494.318 208.944 495.218 209.88 496.346 210.552C497.498 211.2 498.794 211.524 500.234 211.524ZM533.893 213.144C532.237 213.144 530.737 212.76 529.393 211.992C528.073 211.224 527.017 210.12 526.225 208.68C525.457 207.24 525.073 205.548 525.073 203.604C525.073 201.612 525.457 199.908 526.225 198.492C527.017 197.076 528.073 195.984 529.393 195.216C530.737 194.448 532.237 194.064 533.893 194.064C535.669 194.064 537.253 194.472 538.645 195.288C540.061 196.08 541.165 197.196 541.957 198.636C542.773 200.052 543.181 201.708 543.181 203.604C543.181 205.476 542.773 207.132 541.957 208.572C541.165 210.012 540.061 211.14 538.645 211.956C537.253 212.748 535.669 213.144 533.893 213.144ZM524.461 213V186.288H526.261V200.292L525.901 203.568L526.189 206.844V213H524.461ZM533.785 211.524C535.225 211.524 536.521 211.2 537.673 210.552C538.825 209.88 539.725 208.944 540.373 207.744C541.045 206.544 541.381 205.164 541.381 203.604C541.381 202.02 541.045 200.64 540.373 199.464C539.725 198.264 538.825 197.34 537.673 196.692C536.521 196.02 535.225 195.684 533.785 195.684C532.345 195.684 531.049 196.02 529.897 196.692C528.769 197.34 527.869 198.264 527.197 199.464C526.549 200.64 526.225 202.02 526.225 203.604C526.225 205.164 526.549 206.544 527.197 207.744C527.869 208.944 528.769 209.88 529.897 210.552C531.049 211.2 532.345 211.524 533.785 211.524ZM556.386 213.144C554.49 213.144 552.81 212.736 551.346 211.92C549.906 211.104 548.766 209.976 547.926 208.536C547.11 207.096 546.702 205.452 546.702 203.604C546.702 201.732 547.086 200.088 547.854 198.672C548.646 197.232 549.726 196.104 551.094 195.288C552.462 194.472 553.998 194.064 555.702 194.064C557.406 194.064 558.93 194.46 560.274 195.252C561.642 196.044 562.71 197.16 563.478 198.6C564.27 200.016 564.666 201.66 564.666 203.532C564.666 203.604 564.654 203.688 564.63 203.784C564.63 203.856 564.63 203.94 564.63 204.036H548.034V202.632H563.658L562.938 203.316C562.962 201.852 562.65 200.544 562.002 199.392C561.378 198.216 560.526 197.304 559.446 196.656C558.366 195.984 557.118 195.648 555.702 195.648C554.31 195.648 553.062 195.984 551.958 196.656C550.878 197.304 550.026 198.216 549.402 199.392C548.778 200.544 548.466 201.864 548.466 203.352V203.676C548.466 205.212 548.802 206.58 549.474 207.78C550.17 208.956 551.118 209.88 552.318 210.552C553.518 211.2 554.886 211.524 556.422 211.524C557.622 211.524 558.738 211.308 559.77 210.876C560.826 210.444 561.714 209.784 562.434 208.896L563.478 210.084C562.662 211.092 561.63 211.86 560.382 212.388C559.158 212.892 557.826 213.144 556.386 213.144ZM586.716 213.144C584.964 213.144 583.38 212.748 581.964 211.956C580.572 211.14 579.468 210.012 578.652 208.572C577.836 207.132 577.428 205.476 577.428 203.604C577.428 201.708 577.836 200.052 578.652 198.636C579.468 197.196 580.572 196.08 581.964 195.288C583.38 194.472 584.964 194.064 586.716 194.064C588.372 194.064 589.86 194.448 591.18 195.216C592.524 195.984 593.58 197.076 594.348 198.492C595.14 199.908 595.536 201.612 595.536 203.604C595.536 205.548 595.152 207.24 594.384 208.68C593.616 210.12 592.56 211.224 591.216 211.992C589.896 212.76 588.396 213.144 586.716 213.144ZM586.824 211.524C588.264 211.524 589.548 211.2 590.676 210.552C591.828 209.88 592.728 208.944 593.376 207.744C594.048 206.544 594.384 205.164 594.384 203.604C594.384 202.02 594.048 200.64 593.376 199.464C592.728 198.264 591.828 197.34 590.676 196.692C589.548 196.02 588.264 195.684 586.824 195.684C585.384 195.684 584.088 196.02 582.936 196.692C581.808 197.34 580.908 198.264 580.236 199.464C579.588 200.64 579.264 202.02 579.264 203.604C579.264 205.164 579.588 206.544 580.236 207.744C580.908 208.944 581.808 209.88 582.936 210.552C584.088 211.2 585.384 211.524 586.824 211.524ZM594.42 213V206.844L594.744 203.568L594.384 200.292V186.288H596.184V213H594.42ZM603.773 213V194.208H605.573V213H603.773ZM604.673 189.636C604.265 189.636 603.917 189.492 603.629 189.204C603.341 188.916 603.197 188.58 603.197 188.196C603.197 187.788 603.341 187.44 603.629 187.152C603.917 186.864 604.265 186.72 604.673 186.72C605.105 186.72 605.453 186.864 605.717 187.152C606.005 187.416 606.149 187.752 606.149 188.16C606.149 188.568 606.005 188.916 605.717 189.204C605.453 189.492 605.105 189.636 604.673 189.636ZM617.912 213.144C616.352 213.144 614.888 212.916 613.52 212.46C612.176 212.004 611.132 211.428 610.388 210.732L611.216 209.292C611.936 209.916 612.896 210.456 614.096 210.912C615.296 211.344 616.592 211.56 617.984 211.56C619.952 211.56 621.368 211.236 622.232 210.588C623.096 209.94 623.528 209.088 623.528 208.032C623.528 207.264 623.3 206.664 622.844 206.232C622.412 205.776 621.824 205.428 621.08 205.188C620.336 204.948 619.52 204.756 618.632 204.612C617.744 204.444 616.856 204.264 615.968 204.072C615.08 203.88 614.264 203.604 613.52 203.244C612.776 202.884 612.176 202.392 611.72 201.768C611.288 201.12 611.072 200.268 611.072 199.212C611.072 198.252 611.336 197.388 611.864 196.62C612.392 195.852 613.184 195.24 614.24 194.784C615.296 194.304 616.616 194.064 618.2 194.064C619.376 194.064 620.552 194.232 621.728 194.568C622.928 194.904 623.9 195.348 624.644 195.9L623.816 197.34C623.024 196.74 622.136 196.308 621.152 196.044C620.168 195.78 619.172 195.648 618.164 195.648C616.34 195.648 614.996 195.984 614.132 196.656C613.292 197.328 612.872 198.168 612.872 199.176C612.872 199.968 613.088 200.604 613.52 201.084C613.976 201.54 614.576 201.9 615.32 202.164C616.064 202.404 616.88 202.608 617.768 202.776C618.656 202.92 619.544 203.088 620.432 203.28C621.32 203.472 622.136 203.748 622.88 204.108C623.624 204.444 624.212 204.924 624.644 205.548C625.1 206.148 625.328 206.964 625.328 207.996C625.328 209.028 625.04 209.928 624.464 210.696C623.912 211.464 623.084 212.064 621.98 212.496C620.876 212.928 619.52 213.144 617.912 213.144ZM639.783 213.144C638.127 213.144 636.627 212.76 635.283 211.992C633.963 211.224 632.907 210.132 632.115 208.716C631.347 207.276 630.963 205.572 630.963 203.604C630.963 201.636 631.347 199.944 632.115 198.528C632.907 197.088 633.963 195.984 635.283 195.216C636.627 194.448 638.127 194.064 639.783 194.064C641.559 194.064 643.143 194.472 644.535 195.288C645.951 196.08 647.055 197.196 647.847 198.636C648.663 200.076 649.071 201.732 649.071 203.604C649.071 205.476 648.663 207.132 647.847 208.572C647.055 210.012 645.951 211.14 644.535 211.956C643.143 212.748 641.559 213.144 639.783 213.144ZM630.351 219.984V194.208H632.079V200.364L631.791 203.64L632.151 206.916V219.984H630.351ZM639.675 211.524C641.115 211.524 642.411 211.2 643.563 210.552C644.715 209.88 645.615 208.944 646.263 207.744C646.935 206.544 647.271 205.164 647.271 203.604C647.271 202.02 646.935 200.64 646.263 199.464C645.615 198.264 644.715 197.34 643.563 196.692C642.411 196.02 641.115 195.684 639.675 195.684C638.235 195.684 636.939 196.02 635.787 196.692C634.659 197.34 633.759 198.264 633.087 199.464C632.439 200.64 632.115 202.02 632.115 203.604C632.115 205.164 632.439 206.544 633.087 207.744C633.759 208.944 634.659 209.88 635.787 210.552C636.939 211.2 638.235 211.524 639.675 211.524ZM654.644 213V186.288H656.444V213H654.644ZM675.875 213V208.716L675.803 208.068V201.012C675.803 199.26 675.323 197.928 674.363 197.016C673.427 196.104 672.047 195.648 670.223 195.648C668.927 195.648 667.715 195.876 666.587 196.332C665.483 196.764 664.535 197.328 663.743 198.024L662.843 196.728C663.779 195.888 664.907 195.24 666.227 194.784C667.547 194.304 668.927 194.064 670.367 194.064C672.695 194.064 674.483 194.652 675.731 195.828C676.979 197.004 677.603 198.756 677.603 201.084V213H675.875ZM669.107 213.144C667.715 213.144 666.503 212.928 665.471 212.496C664.463 212.04 663.683 211.404 663.131 210.588C662.603 209.772 662.339 208.836 662.339 207.78C662.339 206.82 662.555 205.956 662.987 205.188C663.443 204.396 664.187 203.76 665.219 203.28C666.251 202.776 667.631 202.524 669.359 202.524H676.271V203.928H669.395C667.451 203.928 666.083 204.288 665.291 205.008C664.523 205.728 664.139 206.628 664.139 207.708C664.139 208.908 664.595 209.868 665.507 210.588C666.419 211.308 667.703 211.668 669.359 211.668C670.943 211.668 672.275 211.308 673.355 210.588C674.459 209.868 675.275 208.824 675.803 207.456L676.307 208.68C675.803 210.048 674.939 211.14 673.715 211.956C672.515 212.748 670.979 213.144 669.107 213.144ZM684.236 220.128C683.372 220.128 682.556 219.984 681.788 219.696C681.044 219.408 680.408 218.988 679.88 218.436L680.78 217.068C681.26 217.572 681.776 217.944 682.328 218.184C682.904 218.424 683.552 218.544 684.272 218.544C685.136 218.544 685.892 218.304 686.54 217.824C687.212 217.344 687.836 216.468 688.412 215.196L689.708 212.316L689.96 211.992L697.916 194.208H699.752L690.104 215.556C689.6 216.708 689.048 217.608 688.448 218.256C687.872 218.928 687.236 219.408 686.54 219.696C685.844 219.984 685.076 220.128 684.236 220.128ZM689.672 213.468L680.96 194.208H682.868L690.788 211.884L689.672 213.468ZM710.792 213.144C708.896 213.144 707.216 212.736 705.752 211.92C704.312 211.104 703.172 209.976 702.332 208.536C701.516 207.096 701.108 205.452 701.108 203.604C701.108 201.732 701.492 200.088 702.26 198.672C703.052 197.232 704.132 196.104 705.5 195.288C706.868 194.472 708.404 194.064 710.108 194.064C711.812 194.064 713.336 194.46 714.68 195.252C716.048 196.044 717.116 197.16 717.884 198.6C718.676 200.016 719.072 201.66 719.072 203.532C719.072 203.604 719.06 203.688 719.036 203.784C719.036 203.856 719.036 203.94 719.036 204.036H702.44V202.632H718.064L717.344 203.316C717.368 201.852 717.056 200.544 716.408 199.392C715.784 198.216 714.932 197.304 713.852 196.656C712.772 195.984 711.524 195.648 710.108 195.648C708.716 195.648 707.468 195.984 706.364 196.656C705.284 197.304 704.432 198.216 703.808 199.392C703.184 200.544 702.872 201.864 702.872 203.352V203.676C702.872 205.212 703.208 206.58 703.88 207.78C704.576 208.956 705.524 209.88 706.724 210.552C707.924 211.2 709.292 211.524 710.828 211.524C712.028 211.524 713.144 211.308 714.176 210.876C715.232 210.444 716.12 209.784 716.84 208.896L717.884 210.084C717.068 211.092 716.036 211.86 714.788 212.388C713.564 212.892 712.232 213.144 710.792 213.144ZM731.876 213.144C730.124 213.144 728.54 212.748 727.124 211.956C725.732 211.14 724.628 210.012 723.812 208.572C722.996 207.132 722.588 205.476 722.588 203.604C722.588 201.708 722.996 200.052 723.812 198.636C724.628 197.196 725.732 196.08 727.124 195.288C728.54 194.472 730.124 194.064 731.876 194.064C733.532 194.064 735.02 194.448 736.34 195.216C737.684 195.984 738.74 197.076 739.508 198.492C740.3 199.908 740.696 201.612 740.696 203.604C740.696 205.548 740.312 207.24 739.544 208.68C738.776 210.12 737.72 211.224 736.376 211.992C735.056 212.76 733.556 213.144 731.876 213.144ZM731.984 211.524C733.424 211.524 734.708 211.2 735.836 210.552C736.988 209.88 737.888 208.944 738.536 207.744C739.208 206.544 739.544 205.164 739.544 203.604C739.544 202.02 739.208 200.64 738.536 199.464C737.888 198.264 736.988 197.34 735.836 196.692C734.708 196.02 733.424 195.684 731.984 195.684C730.544 195.684 729.248 196.02 728.096 196.692C726.968 197.34 726.068 198.264 725.396 199.464C724.748 200.64 724.424 202.02 724.424 203.604C724.424 205.164 724.748 206.544 725.396 207.744C726.068 208.944 726.968 209.88 728.096 210.552C729.248 211.2 730.544 211.524 731.984 211.524ZM739.58 213V206.844L739.904 203.568L739.544 200.292V186.288H741.344V213H739.58ZM767.359 194.064C768.895 194.064 770.227 194.364 771.355 194.964C772.507 195.54 773.395 196.428 774.019 197.628C774.667 198.804 774.991 200.268 774.991 202.02V213H773.191V202.164C773.191 200.052 772.651 198.444 771.571 197.34C770.515 196.236 769.027 195.684 767.107 195.684C765.643 195.684 764.371 195.984 763.291 196.584C762.211 197.184 761.383 198.024 760.807 199.104C760.255 200.184 759.979 201.48 759.979 202.992V213H758.179V186.288H759.979V199.428L759.655 198.852C760.231 197.364 761.179 196.2 762.499 195.36C763.819 194.496 765.439 194.064 767.359 194.064ZM790.034 213.144C788.138 213.144 786.458 212.736 784.994 211.92C783.554 211.104 782.414 209.976 781.574 208.536C780.758 207.096 780.35 205.452 780.35 203.604C780.35 201.732 780.734 200.088 781.502 198.672C782.294 197.232 783.374 196.104 784.742 195.288C786.11 194.472 787.646 194.064 789.35 194.064C791.054 194.064 792.578 194.46 793.922 195.252C795.29 196.044 796.358 197.16 797.126 198.6C797.918 200.016 798.314 201.66 798.314 203.532C798.314 203.604 798.302 203.688 798.278 203.784C798.278 203.856 798.278 203.94 798.278 204.036H781.682V202.632H797.306L796.586 203.316C796.61 201.852 796.298 200.544 795.65 199.392C795.026 198.216 794.174 197.304 793.094 196.656C792.014 195.984 790.766 195.648 789.35 195.648C787.958 195.648 786.71 195.984 785.606 196.656C784.526 197.304 783.674 198.216 783.05 199.392C782.426 200.544 782.114 201.864 782.114 203.352V203.676C782.114 205.212 782.45 206.58 783.122 207.78C783.818 208.956 784.766 209.88 785.966 210.552C787.166 211.2 788.534 211.524 790.07 211.524C791.27 211.524 792.386 211.308 793.418 210.876C794.474 210.444 795.362 209.784 796.082 208.896L797.126 210.084C796.31 211.092 795.278 211.86 794.03 212.388C792.806 212.892 791.474 213.144 790.034 213.144ZM803.882 213V194.208H805.61V199.356L805.43 198.78C805.958 197.268 806.846 196.104 808.094 195.288C809.342 194.472 810.902 194.064 812.774 194.064V195.828C812.702 195.828 812.63 195.828 812.558 195.828C812.486 195.804 812.414 195.792 812.342 195.792C810.254 195.792 808.622 196.452 807.446 197.772C806.27 199.068 805.682 200.88 805.682 203.208V213H803.882ZM825.19 213.144C823.294 213.144 821.614 212.736 820.15 211.92C818.71 211.104 817.57 209.976 816.73 208.536C815.914 207.096 815.506 205.452 815.506 203.604C815.506 201.732 815.89 200.088 816.658 198.672C817.45 197.232 818.53 196.104 819.898 195.288C821.266 194.472 822.802 194.064 824.506 194.064C826.21 194.064 827.734 194.46 829.078 195.252C830.446 196.044 831.514 197.16 832.282 198.6C833.074 200.016 833.47 201.66 833.47 203.532C833.47 203.604 833.458 203.688 833.434 203.784C833.434 203.856 833.434 203.94 833.434 204.036H816.838V202.632H832.462L831.742 203.316C831.766 201.852 831.454 200.544 830.806 199.392C830.182 198.216 829.33 197.304 828.25 196.656C827.17 195.984 825.922 195.648 824.506 195.648C823.114 195.648 821.866 195.984 820.762 196.656C819.682 197.304 818.83 198.216 818.206 199.392C817.582 200.544 817.27 201.864 817.27 203.352V203.676C817.27 205.212 817.606 206.58 818.278 207.78C818.974 208.956 819.922 209.88 821.122 210.552C822.322 211.2 823.69 211.524 825.226 211.524C826.426 211.524 827.542 211.308 828.574 210.876C829.63 210.444 830.518 209.784 831.238 208.896L832.282 210.084C831.466 211.092 830.434 211.86 829.186 212.388C827.962 212.892 826.63 213.144 825.19 213.144Z" fill="black"/>
</svg>
