<svg width="1220" height="346" viewBox="0 0 1220 346" fill="none" xmlns="http://www.w3.org/2000/svg">
<g filter="url(#filter0_d_2_8769)">
<rect x="20" y="80" width="1180" height="246" rx="30" fill="#A63B32"/>
</g>
<circle cx="1154" cy="117" r="12" fill="white"/>
<path d="M844.242 266.288V253.264H851.124C856.156 253.264 858.302 255.78 858.302 259.776C858.302 263.772 856.156 266.288 851.124 266.288H844.242ZM871.178 259.776C871.178 250.23 864.814 243.052 852.086 243.052H831.588V295H844.242V276.352H852.086C865.332 276.352 871.178 268.36 871.178 259.776ZM877.766 243.052V295H906.996V285.232H890.42V243.052H877.766ZM912.809 274.058C912.809 288.414 922.207 295.518 934.269 295.518C946.257 295.518 956.321 288.414 956.321 274.058V243.052H943.667V274.132C943.667 280.274 940.485 283.826 934.491 283.826C928.497 283.826 925.463 280.274 925.463 274.132V243.052H912.809V274.058ZM965.207 295H977.861V263.772L989.553 295H999.765L1011.38 263.846V295H1024.04V243.052H1009.16L994.733 279.016L980.155 243.052H965.207V295ZM1061.77 279.164C1061.77 282.864 1059.33 284.788 1055.11 284.788L1045.79 284.788V273.318H1054.97C1059.18 273.318 1061.77 275.464 1061.77 279.164ZM1060.52 258.666C1060.52 262.218 1058.22 264.068 1054.08 264.068H1045.79V253.19H1054.08C1058.22 253.19 1060.52 255.114 1060.52 258.666ZM1074.58 280.866C1074.58 274.946 1070.65 269.618 1064.59 268.36C1069.62 266.88 1073.39 262.81 1073.39 256.52C1073.39 248.306 1067.1 243.052 1056.52 243.052H1033.14V295L1057.33 295C1068.29 295 1074.58 289.45 1074.58 280.866ZM1113.74 243.052H1081.92V295H1113.74V284.862H1094.57V273.466H1111.52V263.698H1094.57V253.19H1113.74V243.052ZM1149.41 259.924C1149.41 263.994 1147.19 266.436 1142.45 266.436H1134.61V253.56H1142.45C1147.19 253.56 1149.41 256.076 1149.41 259.924ZM1121.95 243.052V295H1134.61V275.39H1137.64L1148.44 295H1162.73L1150.74 274.428C1158.73 272.06 1162.28 265.918 1162.28 259.406C1162.28 250.378 1155.92 243.052 1143.19 243.052H1121.95Z" fill="white"/>
<path d="M968.17 203.001H975.775V228H978.505V203.001H986.071V200.739H968.17V203.001ZM1010.43 217.353C1010.43 210.567 1005.79 206.394 999.781 206.394C993.814 206.394 989.134 210.567 989.134 217.353C989.134 224.1 993.697 228.312 999.703 228.312C1005.71 228.312 1010.43 224.1 1010.43 217.353ZM991.903 217.353C991.903 211.503 995.686 208.773 999.742 208.773C1003.8 208.773 1007.62 211.503 1007.62 217.353C1007.62 223.203 1003.72 225.933 999.703 225.933C995.647 225.933 991.903 223.203 991.903 217.353ZM1018.1 211.386V206.706H1015.4V238.062H1018.1V223.32C1019.34 225.972 1022.31 228.312 1026.56 228.312C1032.37 228.312 1036.7 223.983 1036.7 217.314C1036.7 210.645 1032.37 206.394 1026.56 206.394C1022.31 206.394 1019.34 208.695 1018.1 211.386ZM1033.93 217.314C1033.93 222.696 1030.5 225.933 1026.01 225.933C1021.68 225.933 1018.1 222.657 1018.1 217.353C1018.1 212.049 1021.68 208.773 1026.01 208.773C1030.5 208.773 1033.93 211.893 1033.93 217.314ZM1067.09 208.656C1067.09 211.971 1065.1 214.389 1060.65 214.389H1055.15V203.04H1060.61C1065.22 203.04 1067.09 205.224 1067.09 208.656ZM1052.42 200.739V228H1055.15V216.612H1060.18L1066.93 228H1070.21L1063.19 216.417C1067.79 215.559 1069.9 212.4 1069.9 208.656C1069.9 204.171 1066.93 200.739 1060.61 200.739H1052.42ZM1074.07 217.314C1074.07 223.983 1078.39 228.312 1084.21 228.312C1088.46 228.312 1091.42 226.011 1092.67 223.281V228H1095.4V206.706H1092.67V211.386C1091.46 208.695 1088.53 206.394 1084.24 206.394C1078.39 206.394 1074.07 210.645 1074.07 217.314ZM1092.67 217.353C1092.67 222.657 1089.12 225.933 1084.75 225.933C1080.27 225.933 1076.83 222.696 1076.83 217.314C1076.83 211.893 1080.27 208.773 1084.75 208.773C1089.12 208.773 1092.67 212.049 1092.67 217.353ZM1102.41 222.228C1102.41 226.479 1104.4 228 1108.1 228H1111.03V225.66H1108.53C1106.08 225.66 1105.18 224.841 1105.18 222.228V209.007H1111.03V206.706H1105.18V201.363H1102.41V206.706H1099.45V209.007H1102.41V222.228ZM1124.62 208.734C1128.56 208.734 1132.15 211.23 1132.03 216.183H1117.05C1117.37 211.23 1120.76 208.734 1124.62 208.734ZM1134.49 221.253H1131.6C1130.82 224.1 1128.36 226.011 1124.74 226.011C1120.76 226.011 1117.29 223.398 1117.05 218.406H1134.72C1134.8 217.665 1134.8 217.119 1134.8 216.261C1134.8 210.84 1130.98 206.394 1124.74 206.394C1118.61 206.394 1114.28 210.567 1114.28 217.353C1114.28 224.1 1118.69 228.312 1124.74 228.312C1130.08 228.312 1133.51 225.27 1134.49 221.253ZM1138.54 217.314C1138.54 223.983 1142.87 228.312 1148.72 228.312C1152.94 228.312 1155.9 226.05 1157.15 223.242V228H1159.88V199.14H1157.15V211.308C1155.78 208.5 1152.58 206.394 1148.76 206.394C1142.87 206.394 1138.54 210.645 1138.54 217.314ZM1157.15 217.353C1157.15 222.657 1153.6 225.933 1149.23 225.933C1144.75 225.933 1141.31 222.696 1141.31 217.314C1141.31 211.893 1144.75 208.773 1149.23 208.773C1153.6 208.773 1157.15 212.049 1157.15 217.353Z" fill="white"/>
<g clip-path="url(#clip0_2_8769)">
<path d="M535.964 218.566H516.938V215.33H535.964C543.123 215.33 548.948 209.507 548.948 202.354V173.172H552.185V202.354C552.185 211.293 544.907 218.566 535.964 218.566Z" fill="#E3F420"/>
<path d="M546.306 227.669H514.136V224.433H546.306C552.968 224.433 558.385 219.015 558.385 212.359V169.746H561.622V212.359C561.622 220.798 554.752 227.669 546.306 227.669Z" fill="#8C9DF4"/>
<path d="M520.136 34.9749H510.702V324.922H520.136V34.9749Z" fill="#8C9DF4"/>
<path d="M783.204 48.5256H363.365C338.1 48.5256 317.55 69.0747 317.55 94.3243V324.922H290.432V94.3243C290.432 54.125 323.151 21.4185 363.365 21.4185H781.989C783.014 30.2805 783.359 39.3629 783.204 48.5256Z" fill="#8C9DF4"/>
<path d="M766.57 188.767H755.938C743.419 188.767 733.238 198.945 733.238 211.463V324.919H720.218V211.463C720.218 191.771 736.245 175.75 755.941 175.75H767.002C766.647 180.352 766.486 184.701 766.57 188.767Z" fill="#8C9DF4"/>
<path d="M772.549 135.628C771.805 140.019 771.087 144.317 770.429 148.509H721.829C710.844 148.509 699.122 150.905 699.122 179.495V324.919H686.106V179.498C686.106 149.979 697.791 135.628 721.826 135.628H772.549Z" fill="#8C9DF4"/>
<path d="M184.433 140.144V324.922H162.703V140.144C162.703 119.91 146.235 103.448 125.991 103.448H124.153C124.787 96.0122 124.862 88.7874 124.597 81.7263H125.991C158.215 81.7263 184.433 107.931 184.433 140.144Z" fill="#E3F420"/>
<path d="M478.618 138.748H398.451V323.693H478.618V138.748Z" fill="#D2E0FF"/>
<path d="M354.732 323.488H337.508V237.656C337.508 215.735 355.349 197.897 377.281 197.897H425.574V215.119H377.281C364.848 215.119 354.735 225.228 354.735 237.656V323.488H354.732Z" fill="#D2E0FF"/>
<path d="M189.165 241.654C188.986 241.336 188.795 241.029 188.602 240.722C187.753 239.404 186.764 238.21 185.663 237.159C183.048 234.641 179.781 232.899 176.142 232.11C174.745 231.81 173.337 231.664 171.94 231.664C171.398 231.664 170.856 231.688 170.32 231.729C167.119 231.991 164.013 233.042 161.237 234.834C160.171 235.522 159.189 236.296 158.286 237.156C155.442 239.865 153.471 243.36 152.628 247.286C151.517 252.451 152.482 257.741 155.35 262.179C156.199 263.492 157.187 264.686 158.289 265.743C160.904 268.261 164.171 270.009 167.81 270.791C169.212 271.092 170.621 271.244 172.018 271.244C175.782 271.244 179.474 270.16 182.717 268.071C183.784 267.383 184.766 266.606 185.669 265.749C188.512 263.04 190.484 259.539 191.327 255.613C192.354 250.808 191.589 245.893 189.165 241.654ZM187.673 254.833C187.289 256.637 186.601 258.333 185.663 259.863C185.025 260.896 184.278 261.858 183.417 262.721C182.601 263.549 181.684 264.29 180.686 264.939C180.624 264.978 180.564 265.016 180.502 265.052C176.937 267.291 172.72 268.035 168.596 267.145C166.988 266.799 165.463 266.219 164.067 265.424C162.977 264.817 161.967 264.079 161.05 263.224C160.082 262.325 159.224 261.298 158.486 260.158C158.417 260.051 158.352 259.947 158.289 259.84C156.115 256.303 155.401 252.139 156.279 248.072C156.452 247.257 156.687 246.459 156.982 245.694C157.333 244.762 157.777 243.872 158.289 243.035C158.423 242.818 158.563 242.604 158.709 242.392C158.727 242.366 158.742 242.342 158.76 242.315C159.945 240.606 161.464 239.127 163.268 237.966C165.264 236.677 167.464 235.861 169.748 235.543C170.046 235.504 170.347 235.471 170.648 235.441C171.08 235.409 171.508 235.391 171.943 235.391C172.452 235.391 172.965 235.415 173.48 235.465C174.105 235.528 174.731 235.626 175.356 235.76C176.714 236.052 178.009 236.507 179.221 237.117C179.227 237.123 179.239 237.123 179.245 237.129C181.211 238.124 182.956 239.514 184.361 241.24C184.662 241.598 184.936 241.967 185.195 242.345C185.296 242.473 185.38 242.607 185.469 242.741C185.538 242.848 185.603 242.952 185.666 243.059C185.934 243.488 186.175 243.925 186.392 244.372C187.985 247.608 188.444 251.254 187.673 254.833Z" fill="#2B478B"/>
<path d="M172.071 253.612L155.231 244.783L156.964 241.479L171.878 249.296L186.023 240.169L188.045 243.3L172.071 253.612Z" fill="#2B478B"/>
<path d="M163.254 266.532L160.24 264.329L170.097 250.864L169.701 233.581L173.432 233.495L173.855 252.043L163.254 266.532Z" fill="#2B478B"/>
<path d="M173.434 250.279L170.524 252.613L181.745 266.59L184.655 264.255L173.434 250.279Z" fill="#2B478B"/>
<path d="M168.391 251.454C168.391 249.474 169.996 247.87 171.976 247.87C173.956 247.87 175.561 249.474 175.561 251.454C175.561 253.433 173.956 255.038 171.976 255.038C169.996 255.038 168.391 253.433 168.391 251.454Z" fill="#2B478B"/>
<path d="M704.688 247.938C704.542 247.676 704.387 247.426 704.227 247.176C703.533 246.099 702.723 245.122 701.823 244.262C699.685 242.202 697.011 240.776 694.036 240.133C692.892 239.886 691.743 239.767 690.599 239.767C690.156 239.767 689.712 239.785 689.274 239.82C686.657 240.035 684.116 240.895 681.844 242.36C680.972 242.922 680.168 243.556 679.432 244.259C677.106 246.474 675.492 249.334 674.804 252.543C673.896 256.768 674.685 261.093 677.029 264.725C677.723 265.799 678.533 266.776 679.432 267.639C681.57 269.699 684.244 271.128 687.219 271.768C688.366 272.015 689.518 272.137 690.659 272.137C693.738 272.137 696.758 271.25 699.408 269.544C700.281 268.982 701.085 268.348 701.82 267.645C704.146 265.43 705.76 262.566 706.448 259.354C707.297 255.425 706.671 251.403 704.688 247.938ZM703.47 258.717C703.154 260.194 702.592 261.581 701.826 262.834C701.305 263.68 700.692 264.466 699.989 265.174C699.322 265.85 698.571 266.457 697.755 266.987C697.705 267.02 697.654 267.053 697.604 267.079C694.688 268.91 691.24 269.517 687.866 268.791C686.549 268.508 685.302 268.032 684.161 267.383C683.271 266.886 682.443 266.282 681.692 265.585C680.9 264.85 680.198 264.01 679.596 263.078C679.542 262.992 679.486 262.906 679.435 262.82C677.657 259.929 677.074 256.521 677.791 253.195C677.934 252.529 678.125 251.877 678.366 251.249C678.655 250.486 679.015 249.76 679.435 249.075C679.545 248.897 679.658 248.724 679.778 248.552C679.792 248.528 679.804 248.51 679.819 248.486C680.787 247.087 682.032 245.878 683.506 244.929C685.138 243.875 686.937 243.208 688.807 242.946C689.048 242.913 689.295 242.887 689.542 242.863C689.894 242.836 690.245 242.821 690.602 242.821C691.019 242.821 691.439 242.839 691.859 242.881C692.371 242.931 692.883 243.015 693.396 243.122C694.506 243.36 695.567 243.735 696.558 244.232C696.564 244.238 696.573 244.238 696.576 244.241C698.184 245.054 699.611 246.191 700.76 247.602C701.007 247.894 701.231 248.194 701.442 248.507C701.525 248.611 701.594 248.721 701.665 248.831C701.719 248.918 701.776 249.004 701.826 249.09C702.047 249.442 702.243 249.799 702.419 250.165C703.723 252.805 704.098 255.788 703.47 258.717Z" fill="#2B478B"/>
<path d="M690.71 257.717L676.934 250.495L678.351 247.792L690.549 254.187L702.118 246.721L703.774 249.284L690.71 257.717Z" fill="#2B478B"/>
<path d="M683.494 268.285L681.031 266.484L689.093 255.47L688.768 241.333L691.82 241.264L692.166 256.434L683.494 268.285Z" fill="#2B478B"/>
<path d="M691.807 254.966L689.426 256.876L698.604 268.308L700.985 266.398L691.807 254.966Z" fill="#2B478B"/>
<path d="M687.696 255.952C687.696 254.333 689.009 253.023 690.626 253.023C692.246 253.023 693.557 254.336 693.557 255.952C693.557 257.571 692.243 258.881 690.626 258.881C689.009 258.884 687.696 257.571 687.696 255.952Z" fill="#2B478B"/>
<path d="M357.403 299.223H334.834V324.922H357.403V299.223Z" fill="#AEC3FF"/>
<path d="M488.552 19.8257H479.002V50.9783H488.552V19.8257Z" fill="#2B478B"/>
<path d="M601.3 19.8257H591.75V50.9783H601.3V19.8257Z" fill="#2B478B"/>
<path d="M469.934 19.8257H460.384V50.9783H469.934V19.8257Z" fill="#2B478B"/>
<path d="M319.895 195.08V185.533H288.73V195.08H319.895Z" fill="#2B478B"/>
<path d="M319.895 93.7332V84.1895H288.73V93.7332H319.895Z" fill="#2B478B"/>
<path d="M701.555 294.029H683.396V323.75H701.555V294.029Z" fill="#2B478B"/>
<path d="M735.79 294.029H717.63V323.75H735.79V294.029Z" fill="#2B478B"/>
<path d="M291.037 137.164C291.037 137.164 293.399 133.145 295.275 131.657C297.148 130.168 302.1 129.754 302.291 130.132C302.886 131.311 300.328 133.011 299.795 134.095C299.262 135.175 299.491 136.735 296.972 138.009C294.369 139.325 292.862 140.188 292.862 140.188L291.037 137.164Z" fill="#FFB27D"/>
<path d="M293.035 136.616C291.82 134.726 291.457 134.628 291.457 134.628C291.457 134.628 273.327 146.056 271.412 146.723C269.495 147.392 250.656 143.665 250.656 143.665L244.114 154.888C244.114 154.888 269.018 158.859 273.839 157.07C281.811 154.114 294.003 139.623 294.003 139.623C294.003 139.623 293.988 138.099 293.035 136.616Z" fill="#233862"/>
<path d="M298.265 134.994C298.265 134.994 301.832 132.806 301.999 133.744C302.082 134.211 300.495 135.491 299.858 136.036C299.22 136.581 297.594 137.655 297.594 137.655L298.265 134.994Z" fill="#FFB27D"/>
<path d="M323.264 119.69C319.837 114.936 314.998 111.78 309.727 110.39C304.876 109.104 299.658 109.312 294.837 111.134C292.88 111.876 290.983 112.882 289.206 114.165C278.291 122.03 275.814 137.301 283.681 148.214C287.109 152.965 291.948 156.12 297.216 157.511C299.673 158.162 302.216 158.43 304.759 158.299C307.243 158.171 309.721 157.665 312.106 156.763C313.44 156.263 314.741 155.635 315.998 154.882C316.272 154.718 316.546 154.549 316.814 154.37C317.127 154.168 317.436 153.953 317.74 153.736C318.357 153.289 318.949 152.822 319.512 152.331C320.992 151.045 322.282 149.61 323.375 148.062C329.235 139.786 329.515 128.361 323.264 119.69ZM323.011 137.119C322.496 140.298 321.245 143.24 319.372 145.752C319.027 146.219 318.657 146.672 318.267 147.109C317.806 147.624 317.32 148.116 316.802 148.583C316.749 148.634 316.698 148.681 316.641 148.729C316.135 149.178 315.602 149.604 315.045 150.009C314.971 150.062 314.899 150.113 314.825 150.167C314.747 150.22 314.673 150.271 314.596 150.324C314.438 150.432 314.274 150.539 314.113 150.643C314.11 150.646 314.107 150.649 314.101 150.649C313.47 151.054 312.821 151.414 312.163 151.738C312.058 151.789 311.957 151.837 311.853 151.884C311.579 152.015 311.302 152.134 311.025 152.25C306.487 154.126 301.469 154.2 296.963 152.637C296.162 152.361 295.379 152.033 294.617 151.652C293.253 150.973 291.96 150.134 290.766 149.134C289.527 148.104 288.396 146.898 287.41 145.529C283.577 140.212 282.77 133.624 284.658 127.822C285.129 126.37 285.769 124.968 286.576 123.646C287.904 121.455 289.688 119.493 291.895 117.904C292.907 117.171 293.976 116.546 295.087 116.022C296.57 115.326 298.127 114.823 299.724 114.516C300.611 114.346 301.51 114.236 302.419 114.189C303.047 114.156 303.678 114.153 304.31 114.183C305.084 114.215 305.867 114.296 306.644 114.424C307.791 114.608 308.902 114.888 309.977 115.26C313.083 116.335 315.855 118.157 318.077 120.598C318.592 121.163 319.077 121.759 319.53 122.387C319.983 123.015 320.397 123.664 320.769 124.331C322.94 128.201 323.735 132.666 323.011 137.119Z" fill="#2B478B"/>
<path d="M303.726 136.601L282.434 126.795L284.36 122.619L303.214 131.302L320.051 119.169L322.74 122.899L303.726 136.601Z" fill="#2B478B"/>
<path d="M293.684 153.066L289.837 150.542L301.117 133.342L299.542 112.09L304.128 111.75L305.823 134.559L293.684 153.066Z" fill="#2B478B"/>
<path d="M305.176 132.417L301.74 135.475L316.436 151.973L319.872 148.914L305.176 132.417Z" fill="#2B478B"/>
<path d="M299.057 134.178C298.932 131.743 300.805 129.665 303.244 129.54C305.68 129.415 307.758 131.288 307.883 133.726C308.008 136.161 306.135 138.238 303.696 138.363C301.26 138.486 299.182 136.613 299.057 134.178Z" fill="#2B478B"/>
<path d="M299.816 160.252L272.851 191.971C271.868 193.126 270.135 193.266 268.979 192.283C268.211 191.631 268.116 190.479 268.771 189.711L296.484 157.115C297.047 156.454 298.041 156.371 298.702 156.933L299.611 157.704C300.37 158.353 300.462 159.49 299.816 160.252Z" fill="#FF9E55"/>
<path d="M305.453 148.407L302.475 144.657C301.195 143.043 298.795 142.939 297.52 144.439L285.555 158.514C284.923 159.255 285.016 160.368 285.757 161L290.111 164.697L296.582 157.085L293.958 154.855L297.839 150.292C299.223 148.66 301.85 148.839 303.157 150.655L304.679 152.766L305.468 151.837C306.278 150.878 306.275 149.443 305.453 148.407Z" fill="#FF9E55"/>
<path d="M289.676 161.252C289.411 161.026 289.378 160.63 289.605 160.365C289.831 160.1 290.227 160.068 290.492 160.294C290.757 160.52 290.79 160.916 290.564 161.181C290.337 161.446 289.941 161.479 289.676 161.252Z" fill="#2A4E96"/>
<path d="M292.288 158.18C292.023 157.954 291.99 157.558 292.216 157.293C292.443 157.028 292.839 156.996 293.104 157.222C293.369 157.448 293.401 157.844 293.175 158.109C292.949 158.374 292.55 158.407 292.288 158.18Z" fill="#2A4E96"/>
<path d="M243.134 314.292C243.134 314.292 243.572 321.341 244.882 322.996H265.031C264.903 322.294 264.334 320.558 261.814 320.118C258.631 319.564 253.301 317.328 251.374 313.122C249.343 308.701 243.134 314.292 243.134 314.292Z" fill="#163560"/>
<path d="M207.378 313.31C207.378 313.31 205.898 323.092 207.622 323.249C207.851 323.27 215.359 323.172 218.268 323.154C221.889 323.133 227.967 322.996 227.967 322.996C228.715 323.029 229.066 321.865 228.685 321.219C228.268 320.511 227.47 319.758 225.948 319.463C222.777 318.853 217.488 316.522 215.633 312.283C213.685 307.829 207.378 313.31 207.378 313.31Z" fill="#163560"/>
<path d="M252.607 220.492C252.607 220.492 247.541 238.213 233.021 268.984C218.5 299.759 217.381 313.78 217.381 313.78L207.378 313.31C207.378 313.31 208.319 276.683 215.177 261.152C222.035 245.622 223.432 203.128 223.432 203.128L252.607 220.492Z" fill="#CED139"/>
<path d="M260.739 205.244C260.739 205.244 261.141 232.685 256.395 266.377C251.645 300.069 253.256 314.37 253.256 314.37L241.88 314.748C241.88 314.748 235.081 281.044 237.032 264.18C238.983 247.316 227.723 206.313 227.723 206.313L260.739 205.244Z" fill="#E3F420"/>
<path d="M238.295 141.031L243.661 145.002L251.415 143.371C251.308 142.662 250.796 139.733 250.329 137.081C250.302 136.923 250.272 136.768 250.245 136.613C249.846 134.357 249.501 132.416 249.501 132.416L242.258 128.808L239.557 127.462C239.563 127.51 239.766 129.969 239.796 130.326C240.305 136.703 238.295 141.031 238.295 141.031Z" fill="#FFB27D"/>
<path d="M250.871 139.027C250.701 138.956 240.323 135.896 239.194 136.268C238.065 136.64 237.398 138.819 237.398 138.819L253.42 143.383C253.423 143.38 253.041 139.938 250.871 139.027Z" fill="#163560"/>
<path d="M222.929 208.632C224.686 216.652 261.359 191.485 260.87 186.588C260.817 186.053 260.763 185.508 260.71 184.972C260.034 178.155 259.384 171.487 259.34 167.135C259.304 163.36 258.783 159.499 258.089 155.992C257.455 152.754 256.669 149.815 255.99 147.529C255.51 145.916 254.614 144.499 253.426 143.382C252.583 142.591 251.594 141.954 250.501 141.519C250.206 141.394 249.9 141.29 249.593 141.2C245.177 139.92 239.066 138.334 237.407 138.819C232.92 140.141 229.584 148.035 227.226 158.103C222.803 176.946 221.782 203.405 222.929 208.632Z" fill="#2A4E96"/>
<path d="M240.341 130.442C241.931 133.484 247.857 136.116 250.329 137.081C250.302 136.923 250.272 136.768 250.245 136.613C249.846 134.357 249.501 132.416 249.501 132.416L242.258 128.808C240.659 128.784 239.685 129.189 240.341 130.442Z" fill="#FCA56B"/>
<path d="M253.021 131.993C253.021 131.993 239.956 136.068 237.541 127.894C235.129 119.723 231.818 114.745 240.058 111.798C248.298 108.851 250.847 111.489 252.315 114.022C253.786 116.555 256.359 130.725 253.021 131.993Z" fill="#FFB27D"/>
<path d="M251.803 113.236C251.803 113.236 250.969 122.747 249.003 122.333C247.035 121.919 245.251 121.613 245.54 124.48C245.829 127.346 248.557 130.657 242.494 131.163C236.43 131.669 227.714 116.04 229.379 113.078C234.185 104.541 258.75 102.817 251.803 113.236Z" fill="#163560"/>
<path d="M259.763 205.244C256.13 206.557 259.825 201.636 259.763 200.609C259.48 196.099 261.252 190.399 260.707 184.972L238.524 171.719C238.527 171.716 233.262 205.033 259.763 205.244Z" fill="#233862"/>
<path d="M222.929 208.632C232.398 226.174 233.905 232.875 233.905 232.875C242.148 231.938 256.27 215.741 260.748 211.415C260.748 211.415 261.356 191.485 260.868 186.588L254.021 186.392C254.021 186.392 241.648 189.527 238.441 185.273C235.233 181.019 236.621 160.136 236.621 160.136L227.217 158.103C222.803 176.946 220.385 203.923 222.929 208.632Z" fill="#E3F420"/>
<path d="M276.954 175.071C276.954 175.071 279.658 174.544 280.364 173.967C281.406 173.112 282.222 171.68 282.732 171.523C283.586 171.258 285.686 168.62 285.861 168.433C285.93 168.361 286.496 168.635 286.359 169.07C286.219 169.507 285.906 170.451 285.793 170.79C285.296 172.288 285.319 172.752 287.115 172.169C287.347 172.094 291.49 170.778 291.916 171.719C292.341 172.66 290.626 177.182 288.461 178.158C286.299 179.134 280.963 178.253 280.578 178.363C277.315 179.31 276.954 175.071 276.954 175.071Z" fill="#FFB27D"/>
<path d="M279.158 174.187C279.158 174.187 257.157 177.926 255.209 176.976C252.097 175.461 256.415 153.15 256.415 153.15C256.415 153.15 256.6 148.092 250.692 146.901C245.558 145.865 240.603 149.708 240.603 149.708C240.603 149.708 236.097 153.739 236.672 158.207C237.949 168.117 239.933 188.267 246.561 191.357C255.111 195.34 279.858 180.307 279.858 180.307C279.858 180.307 280.683 179.298 280.564 177.426C280.462 175.779 279.158 174.187 279.158 174.187Z" fill="#2A4E96"/>
<path d="M234.799 159.74L236.621 160.133C236.621 160.133 240.475 143.46 253.423 143.38C252.58 142.588 251.591 141.951 250.498 141.516C245.754 142.79 237.514 146.842 234.799 159.74Z" fill="#FF9E55"/>
<path d="M186.657 308.091H161.05V322.999H186.657V308.091Z" fill="#2B478B"/>
<path d="M318.64 308.091H288.214V322.999H318.64V308.091Z" fill="#2B478B"/>
<path d="M579.26 102.395H534.945V192.033H579.26V102.395Z" fill="#D2E0FF"/>
<path d="M572.345 109.676H541.991V125.42H572.345V109.676Z" fill="#AEC3FF"/>
<path d="M563.337 307.139C563.337 307.139 559.912 310.312 560.58 312.566C561.247 314.819 564.338 316.322 564.758 319.079C565.174 321.835 566.845 323.339 568.349 323.339C569.853 323.339 575.517 323.339 575.517 323.339C575.517 323.339 576.625 321.401 573.95 320.814C571.276 320.231 570.27 316.992 570.437 313.986C570.603 310.979 570.186 306.972 570.186 306.972L564.504 305.635L563.337 307.139Z" fill="#2C3A64"/>
<path d="M605.356 315.248C605.356 315.248 604.558 322.469 606.062 323.22H625.454C625.454 323.22 625.49 320.924 622.399 320.424C619.308 319.924 613.879 318.088 612.959 313.994C612.038 309.904 605.356 315.248 605.356 315.248Z" fill="#2C3A64"/>
<path d="M621.601 212.627C621.601 212.627 620.585 225.284 619.394 240.502C617.774 261.173 615.823 286.563 615.63 291.37C615.296 299.723 613.959 313.083 613.959 313.083C613.959 313.083 610.788 316.257 604.436 314.92C604.436 314.92 598.778 295.848 597.161 275.67C597.137 275.34 597.11 275.007 597.086 274.673C595.582 254.13 593.245 210.874 593.245 210.874L621.601 212.627Z" fill="#35488B"/>
<path d="M621.601 212.627C621.601 212.627 620.585 225.284 619.394 240.502L597.161 275.67C597.137 275.34 597.11 275.007 597.086 274.673C595.582 254.13 593.245 210.874 593.245 210.874L621.601 212.627Z" fill="#2C3A64"/>
<path d="M616.964 214.127C616.964 214.127 616.023 216.485 614.433 220.379C610.716 229.455 603.444 246.89 596.246 262.343C592.911 269.506 589.588 276.239 586.642 281.517C574.615 303.066 570.853 309.077 570.853 309.077C570.853 309.077 570.681 309.008 570.392 308.883C569.144 308.359 565.687 306.829 564.105 305.427C563.718 305.085 563.444 304.751 563.34 304.439C563.34 304.439 567.941 262.849 575.996 252.71C580.547 246.98 585.895 229.788 586.145 223.778C586.255 221.126 586.589 217.333 586.922 213.916C587.22 210.832 587.53 208.055 587.679 206.715C587.741 206.17 587.777 205.861 587.777 205.861L608.9 211.841L616.964 214.127Z" fill="#35488B"/>
<path d="M612.667 220.025C603.206 219.53 599.004 218.48 593.587 217.155C590.329 216.357 588.176 214.684 586.919 213.916C587.217 210.832 587.527 208.055 587.676 206.715L596.172 211.058L612.667 220.025Z" fill="#2C3A64"/>
<path d="M666.761 189.586C666.761 189.586 671.651 189.595 672.416 189.866C673.181 190.14 677.279 194.808 677.1 195.873C676.922 196.939 674.054 198.231 671.963 197.808C669.873 197.383 666.425 193.48 666.085 193.352C663.199 192.253 666.761 189.586 666.761 189.586Z" fill="#ED975D"/>
<path d="M668.491 194.173C669.647 192.099 669.093 189.053 669.093 189.053C669.093 189.053 654.239 177.027 652.657 175.577C651.076 174.124 635.189 148.268 635.189 148.268L613.152 149.702C613.152 149.702 640.347 180.932 644.426 184.531C651.166 190.479 668.351 196.606 668.351 196.606C668.351 196.606 667.583 195.802 668.491 194.173Z" fill="#D5D841"/>
<path d="M625.025 141.96C625.025 141.96 632.491 155.088 639.787 156.802C639.787 156.802 639.563 153.578 638.39 150.756C638.015 149.854 638.185 148.818 638.801 148.059C639.096 147.696 639.37 147.351 639.629 147.023C641.466 144.672 642.339 143.231 642.339 143.231L639.861 136.578L638.182 132.062C637.375 133.526 636.484 134.777 635.558 135.842C630.77 141.338 625.025 141.96 625.025 141.96Z" fill="#FFB27D"/>
<path d="M635.552 135.842C635.552 135.842 634.662 142.421 639.623 147.023C641.46 144.672 642.333 143.231 642.333 143.231L639.855 136.578C637.202 135.768 635.552 135.842 635.552 135.842Z" fill="#ED975D"/>
<path d="M644.301 144.201C644.301 144.201 633.149 139.855 635.963 132.955C638.777 126.054 639.233 120.845 646.472 123.328C653.712 125.81 654.012 129.004 653.634 131.538C653.256 134.068 647.276 145.154 644.301 144.201Z" fill="#FFB27D"/>
<path d="M637.923 173.428C636.714 176.926 635.12 180.513 633.259 183.9C632.893 184.57 632.536 185.231 632.199 185.886C631.973 186.321 631.755 186.752 631.544 187.184C627.473 195.388 625.6 202.497 624.79 208.081C624.635 209.156 624.516 210.174 624.433 211.133C624.066 215.229 585.737 201.889 586.97 196.159C587.786 192.384 588.9 188.419 589.939 185.041C591.458 180.09 592.819 176.399 592.819 176.399C599.987 159.341 610.165 150.161 618.093 145.312C619.531 144.43 620.889 143.692 622.148 143.079C626.964 140.718 630.243 140.129 630.243 140.129C630.243 140.129 631.883 148.321 638.911 151.572C638.92 151.596 640.01 156.019 640.016 156.04C641.192 160.249 640.257 166.694 637.923 173.428Z" fill="#E3F420"/>
<path d="M634.361 120.134C634.284 119.979 634.054 119.815 633.503 119.645C633.503 119.645 634.022 119.47 634.626 119.604C634.939 118.839 635.701 117.538 637.128 117.529C637.128 117.529 636.309 117.74 636.008 118.562C637.964 117.323 641.591 116.963 650.641 119.976C662.571 123.947 656.609 130.871 654.802 131.425C652.994 131.978 649.665 128.418 646.672 127.93C643.679 127.445 642.059 131.612 640.915 131.958C639.775 132.303 640.424 131.353 639.227 130.404C638.033 129.454 637.345 131.69 637.372 133.258C637.399 134.827 635.067 136.316 635.067 136.316C635.067 136.316 635.067 136.316 633.7 133.809C632.333 131.303 632.705 122.205 634.01 120.565C634.129 120.428 634.245 120.282 634.361 120.134Z" fill="#2B478B"/>
<path d="M614.293 167.2C614.293 167.2 615.576 176.914 619.915 184.264C624.254 191.614 626.178 180.174 626.178 180.174L614.293 167.2Z" fill="#ED7D2B"/>
<path d="M631.544 187.181C627.473 195.385 625.6 202.494 624.79 208.078C624.635 209.153 624.516 210.171 624.433 211.13C624.066 215.226 624.275 218.244 624.427 219.959C624.823 224.43 591.187 215.794 586.69 209.326C584.215 205.765 587.321 193.543 589.939 185.035C590.377 185.142 611.231 190.101 625.656 177.203L631.544 187.181Z" fill="#35488B"/>
<path d="M634.099 164.099L632.023 159.955C632.029 159.883 632.25 152.644 627.905 148.399C625.561 146.104 622.265 145.068 618.093 145.309C619.531 144.428 620.889 143.689 622.148 143.076C625.129 143.535 627.622 144.743 629.602 146.687C634.706 151.691 634.114 163.762 634.099 164.099Z" fill="#2C3A64"/>
<path d="M680.705 181.184V204.317H699.308V181.184H680.705Z" fill="#233862"/>
<path d="M677.854 190.039V195.46H681.35V190.039H677.854Z" fill="#233862"/>
<path d="M675.723 192.026V193.473H677.852V192.026H675.723Z" fill="#233862"/>
<path d="M674.438 184.514V200.982H675.725V184.514H674.438Z" fill="#233862"/>
<path d="M662.782 192.62C662.782 192.62 669.322 191.447 670.409 191.575C671.496 191.703 675.227 193.474 675.266 193.786C675.302 194.096 675.108 194.34 674.45 194.352C673.789 194.364 671.636 193.983 671.761 194.254C671.886 194.522 678.068 196.046 678.077 197.305C678.086 198.564 674.557 200.734 671.66 200.755C668.762 200.776 663.241 197.15 662.756 197.085C658.643 196.525 662.782 192.62 662.782 192.62Z" fill="#FFB27D"/>
<path d="M664.009 195.284C664.137 193.992 662.782 192.62 662.782 192.62C662.782 192.62 643.366 187.279 641.761 185.66C640.153 184.038 632.711 158.228 632.711 158.228C632.711 158.228 630.15 147.783 624.15 146.631C618.935 145.63 615.332 148.208 612.976 151.23C610.168 154.832 609.891 159.8 612.223 163.727C617.458 172.544 628.015 190.045 631.1 193.034C637.961 199.687 662.756 198.317 662.756 198.317C662.756 198.317 663.75 197.874 664.009 195.284Z" fill="#E3F420"/>
<path d="M422.278 132.949H418.011V138.748H422.278V132.949Z" fill="#2B478B"/>
<path d="M372.671 257.256C374.976 256.479 381.364 251.448 381.739 251.281C384.92 249.858 377.865 249.173 377.865 249.173C377.865 249.173 372.743 248.673 370.471 250.311C370.471 250.311 369.077 253.594 369.369 254.609C369.658 255.627 371.537 257.637 372.671 257.256Z" fill="#FFB27D"/>
<path d="M377.487 251.829C376.465 249.486 377.097 247.67 377.097 247.67C377.097 247.67 396.974 242.223 398.934 240.996C405.173 237.091 413.88 211.775 413.88 211.775C413.88 211.775 417.951 201.681 424.127 201.389C429.493 201.136 432.733 204.238 434.657 207.605C436.953 211.618 436.512 216.634 433.612 220.233C427.099 228.312 411.081 248.447 407.576 251.019C402.186 254.978 379.699 254.312 379.699 254.312C379.699 254.312 378.291 253.669 377.487 251.829Z" fill="#DCE044"/>
<path d="M390.316 275.959C393.502 280.419 401.248 282.592 415.866 283.27C417.04 283.327 418.222 283.372 419.407 283.407C420.628 283.446 421.852 283.47 423.076 283.488C427.049 283.544 431.003 283.497 434.77 283.372C438.424 283.247 441.903 283.047 445.053 282.785C451.218 282.273 456.14 281.526 458.683 280.672C459.446 280.416 459.994 280.151 460.297 279.877C460.559 279.645 460.771 279.371 460.929 279.061C461.852 277.352 461.369 274.551 460.256 271.461C458.633 266.966 455.652 261.87 453.645 258.682C453.243 258.045 452.882 257.488 452.579 257.021C451.968 256.083 451.587 255.535 451.587 255.535C451.587 255.535 444.758 256.169 435.408 257.381C433.502 257.625 431.486 257.899 429.407 258.193C409.306 261.033 389.276 266.142 389.297 272.92C389.294 273.953 389.479 274.792 390.316 275.959Z" fill="#2B478B"/>
<path d="M414.964 283.187C416.185 283.226 421.849 283.47 423.073 283.485C427.046 283.541 431 283.494 434.767 283.369L438.311 269.101C432.832 276.739 416.727 282.696 414.964 283.187Z" fill="#2C3A64"/>
<path d="M426.804 323.52H407.317C407.624 322.779 408.365 321.812 410.176 321.496C413.246 320.957 418.573 319.299 417.891 314.87C417.201 310.38 424.675 309.803 424.675 309.803C424.675 309.803 427.784 321.812 426.804 323.52Z" fill="#1D2C51"/>
<path d="M389.759 275.042C389.759 275.042 413.934 313.06 415.944 317.575C415.944 317.575 424.169 318.341 426.146 312.467C426.146 312.467 411.778 272.348 405.462 269.041C399.145 265.737 389.759 275.042 389.759 275.042Z" fill="#2B478B"/>
<path d="M427.555 199.258C427.555 199.258 421.114 211.808 413.88 213.567C413.88 213.567 414.029 211.103 414.839 208.599C415.357 206.995 415.068 205.238 414.014 203.922C413.996 203.899 413.978 203.878 413.961 203.854C412.117 201.532 411.239 200.109 411.239 200.109L413.645 193.48L413.821 190.092C414.634 191.542 415.527 192.855 416.456 193.908C421.251 199.326 427.555 199.258 427.555 199.258Z" fill="#FFB27D"/>
<path d="M416.769 193.795C416.769 193.795 418.853 199.243 413.961 203.854C412.117 201.532 411.239 200.109 411.239 200.109L413.645 193.48C416.274 192.652 416.769 193.795 416.769 193.795Z" fill="#ED975D"/>
<path d="M410.75 203.67C410.75 203.67 420.176 196.421 415.569 190.625C410.965 184.829 409.077 179.989 402.865 184.371C396.653 188.753 397.254 191.881 398.32 194.191C399.389 196.498 408.18 205.405 410.75 203.67Z" fill="#FFB27D"/>
<path d="M413.526 177.953C413.559 177.783 413.728 177.563 414.208 177.247C414.208 177.247 413.663 177.226 413.127 177.521C412.615 176.881 411.528 175.851 410.164 176.238C410.164 176.238 411.003 176.214 411.519 176.911C409.309 176.274 405.75 176.937 397.957 182.332C387.686 189.44 395.298 194.382 397.177 194.409C399.056 194.435 401.239 190.113 403.958 188.815C406.677 187.517 409.383 191.042 410.569 191.054C411.754 191.066 410.869 190.342 411.745 189.104C412.621 187.865 413.898 189.806 414.309 191.31C414.723 192.813 417.358 193.584 417.358 193.584C417.358 193.584 417.358 193.584 417.963 190.813C418.567 188.041 415.679 179.471 413.978 178.271C413.83 178.17 413.681 178.06 413.526 177.953Z" fill="#2B478B"/>
<path d="M490.327 312.205C490.327 312.205 492.757 315.891 493.32 317.084C493.886 318.278 492.775 320.82 491.11 321.201C489.642 321.538 489.422 324.142 489.422 324.142H496.542C497.295 324.142 497.974 323.729 498.266 323.089C499.27 320.88 499.499 318.007 499.702 317.046C500.127 315.024 500.967 313.33 500.595 311.271C500.226 309.219 496.718 308.032 490.324 308.053C483.305 308.076 490.327 312.205 490.327 312.205Z" fill="#1D2C51"/>
<path d="M469.44 266.305C465.026 272.762 424.24 267.299 427.037 263.822C427.748 262.938 427.323 262.081 427.466 260.816C428.171 254.815 423.398 245.488 421.414 241.895C420.953 241.062 420.643 240.541 420.584 240.433C418.704 237.084 417.099 233.539 415.866 230.065C413.496 223.4 412.507 217.006 413.645 212.814C413.654 212.79 413.654 212.773 413.663 212.755C420.622 209.468 422.939 198.106 422.939 198.106C422.939 198.106 447.09 201.011 460.696 232.652C460.696 232.652 461.462 234.685 462.495 237.757H462.498C462.814 238.698 463.156 239.74 463.508 240.85C465.333 246.575 467.042 254.014 468.46 259.533C468.511 259.723 468.561 259.917 468.615 260.116C469.264 262.486 470.172 265.231 469.44 266.305Z" fill="#E3F420"/>
<path d="M491.08 314.7C490.053 314.709 486.959 315.143 482.742 315.825C467.462 318.281 448.853 323.339 437.317 323.339C434.788 323.339 432.903 321.547 432.132 319.207V319.204C427.394 304.778 438.344 262.132 438.344 262.132C438.344 262.132 442.272 262.653 450.202 263.236C458.415 263.847 467.126 265.138 468.54 267.898C468.713 268.231 468.776 268.746 468.746 269.428C468.692 270.61 468.35 272.283 467.766 274.316C467.668 274.658 467.561 275.01 467.45 275.376C465.265 282.485 460.562 293.24 455.226 302.834C469.624 303.665 489.216 306.841 489.216 306.841C492.426 310.461 491.08 314.7 491.08 314.7Z" fill="#2B478B"/>
<path d="M468.743 268.812C468.689 270.116 468.347 271.961 467.763 274.203C467.665 274.581 467.558 274.968 467.447 275.37C459.306 274.831 439.881 264.32 440.205 264.236C443.916 263.227 447.236 262.531 450.199 262.093C458.412 262.825 467.123 264.373 468.537 267.684C468.659 267.954 468.725 268.335 468.743 268.812Z" fill="#2C3A64"/>
<path d="M434.52 219.364C434.52 219.364 439.717 255.142 427.466 260.813C428.171 254.812 423.398 245.485 421.414 241.892C423.267 232.188 427.885 221.962 434.52 219.364Z" fill="#E58638"/>
<path d="M427.069 199.1C427.069 199.1 417.516 202.717 417.921 211.525C418.216 217.938 427.37 231.119 427.37 231.119L428.475 229.598C428.475 229.598 419.634 212.933 420.092 209.79C420.676 205.759 425.446 199.109 431.033 200.58L427.069 199.1Z" fill="#2B478B"/>
<path d="M469.44 266.305C465.026 272.762 419.3 268.571 422.096 265.094C422.808 264.21 423.955 261.539 424.097 260.274C424.169 259.679 427.552 259.59 427.522 258.938C427.251 253.017 423.201 245.131 421.414 241.892C420.953 241.059 420.643 240.538 420.583 240.431L422.275 238.106L428.472 229.598C428.472 229.598 431.039 231.723 435.598 233.873C441.575 236.695 450.967 239.558 462.492 237.754H462.495C462.811 238.695 463.153 239.737 463.505 240.847C465.33 246.572 467.039 254.011 468.457 259.53C468.508 259.721 468.558 259.914 468.612 260.114C469.264 262.486 470.172 265.231 469.44 266.305Z" fill="#2B478B"/>
<path d="M435.601 233.873C435.771 244.485 434.496 255.229 427.492 258.47C425.899 251.68 423.398 245.488 421.414 241.892C421.656 240.633 421.941 239.365 422.275 238.106L428.472 229.598C428.475 229.598 431.042 231.723 435.601 233.873Z" fill="#2C3A64"/>
<path d="M350.185 242.699L389.403 267.094L391.82 263.212L352.601 238.817L350.185 242.699Z" fill="#2B478B"/>
<path d="M343.782 237.341L344.816 237.984L345.62 235.51C346.311 233.384 348.759 232.414 350.575 233.545L364.146 241.987L366.275 238.564L349.089 227.874C347.415 226.832 345.164 227.663 344.435 229.592L342.74 234.072C342.273 235.307 342.707 236.671 343.782 237.341Z" fill="#2B478B"/>
<path d="M353.843 239.653L362.325 244.93L365.342 240.082L356.86 234.806L353.843 239.653Z" fill="#2B478B"/>
<path d="M361.683 241.493C361.867 241.199 361.775 240.809 361.48 240.624C361.185 240.439 360.795 240.532 360.614 240.826C360.429 241.121 360.521 241.511 360.816 241.693C361.111 241.88 361.498 241.788 361.683 241.493Z" fill="#2C3A64"/>
<path d="M358.261 239.365C358.446 239.07 358.353 238.68 358.059 238.499C357.764 238.314 357.374 238.406 357.192 238.701C357.007 238.996 357.1 239.386 357.395 239.567C357.686 239.749 358.076 239.66 358.261 239.365Z" fill="#2C3A64"/>
<path d="M378.213 262.093C380.646 262.093 388.306 259.36 388.714 259.322C392.183 258.988 385.715 256.089 385.715 256.089C385.715 256.089 380.774 254.46 379.86 254.529C379.562 254.553 378.88 254.675 378.344 254.809L380.271 256.008C380.271 256.008 374.804 257.193 374.756 258.25C374.705 259.307 377.016 262.093 378.213 262.093Z" fill="#FFB27D"/>
<path d="M385.95 257.681C384.747 255.428 385.235 253.567 385.235 253.567C385.235 253.567 404.628 246.584 406.483 245.208C412.397 240.826 419.1 214.91 419.1 214.91C419.1 214.91 422.37 204.527 428.505 203.756C433.835 203.086 437.305 205.923 439.49 209.129C442.093 212.951 442.046 217.985 439.437 221.801C433.576 230.363 419.181 251.689 415.89 254.529C410.828 258.899 388.356 259.988 388.356 259.988C388.356 259.988 386.894 259.453 385.95 257.681Z" fill="#E3F420"/>
<path d="M372.671 257.256C372.671 257.256 374.333 256.889 374.756 256.175C375.322 255.216 375.533 253.648 374.086 253.454C372.639 253.264 369.184 253.993 369.369 254.609C369.89 256.336 371.748 257.199 372.671 257.256Z" fill="#FFB27D"/>
<path d="M407.871 121.753C407.871 114.79 413.52 109.143 420.485 109.143C427.451 109.143 433.1 114.79 433.1 121.753C433.1 128.719 427.451 134.363 420.485 134.363C413.52 134.363 407.871 128.719 407.871 121.753Z" fill="#E3F420"/>
<path d="M411.566 121.753C411.566 116.829 415.56 112.837 420.485 112.837C425.411 112.837 429.404 116.829 429.404 121.753C429.404 126.677 425.411 130.669 420.485 130.669C415.56 130.669 411.566 126.68 411.566 121.753Z" fill="#D2E0FF"/>
<path d="M418.01 121.753C418.01 120.386 419.118 119.276 420.488 119.276C421.858 119.276 422.966 120.384 422.966 121.753C422.966 123.119 421.858 124.23 420.488 124.23C419.118 124.23 418.01 123.122 418.01 121.753Z" fill="#2B478B"/>
<path d="M420.485 121.955C420.446 121.955 420.405 121.944 420.369 121.92C420.277 121.857 420.256 121.729 420.318 121.637L424.13 116.139C424.193 116.046 424.321 116.026 424.413 116.088C424.505 116.151 424.529 116.279 424.464 116.371L420.652 121.869C420.613 121.926 420.551 121.955 420.485 121.955Z" fill="#2B478B"/>
<path d="M453.945 134.613H450.902V138.748H453.945V134.613Z" fill="#2B478B"/>
<path d="M443.674 126.629C443.674 121.664 447.701 117.636 452.671 117.636C457.638 117.636 461.667 121.664 461.667 126.629C461.667 131.594 457.641 135.622 452.671 135.622C447.701 135.622 443.674 131.597 443.674 126.629Z" fill="#8C9DF4"/>
<path d="M446.31 126.629C446.31 123.116 449.157 120.271 452.671 120.271C456.185 120.271 459.032 123.116 459.032 126.629C459.032 130.142 456.185 132.988 452.671 132.988C449.157 132.988 446.31 130.142 446.31 126.629Z" fill="#D2E0FF"/>
<path d="M450.902 126.629C450.902 125.653 451.694 124.864 452.668 124.864C453.645 124.864 454.434 125.656 454.434 126.629C454.434 127.605 453.642 128.394 452.668 128.394C451.694 128.394 450.902 127.605 450.902 126.629Z" fill="#2B478B"/>
<path d="M452.671 126.775C452.641 126.775 452.614 126.766 452.587 126.748C452.522 126.704 452.504 126.611 452.552 126.549L455.271 122.628C455.315 122.563 455.407 122.548 455.47 122.593C455.536 122.637 455.55 122.729 455.506 122.795L452.787 126.715C452.76 126.751 452.715 126.775 452.671 126.775Z" fill="#2B478B"/>
<path d="M818.943 326H52.0572C51.4765 326 51 325.524 51 324.943V324.056C51 323.476 51.4765 322.999 52.0572 322.999H818.943C819.524 322.999 820 323.476 820 324.056V324.943C820 325.524 819.524 326 818.943 326Z" fill="#233862"/>
<path d="M369.226 229.16C369.011 228.782 368.785 228.413 368.553 228.047C367.54 226.475 366.361 225.052 365.051 223.799C361.933 220.795 358.038 218.721 353.702 217.78C352.037 217.42 350.358 217.247 348.693 217.247C348.047 217.247 347.401 217.274 346.76 217.327C342.943 217.64 339.241 218.893 335.93 221.031C334.658 221.849 333.485 222.775 332.413 223.799C329.024 227.029 326.671 231.197 325.665 235.876C324.339 242.035 325.492 248.34 328.908 253.633C329.92 255.199 331.099 256.622 332.41 257.881C335.527 260.885 339.423 262.968 343.759 263.9C345.429 264.26 347.109 264.439 348.773 264.439C353.261 264.439 357.666 263.147 361.528 260.658C362.799 259.84 363.973 258.914 365.045 257.89C368.434 254.66 370.786 250.486 371.793 245.807C373.029 240.071 372.117 234.212 369.226 229.16ZM367.448 244.872C366.989 247.021 366.171 249.046 365.051 250.871C364.291 252.103 363.398 253.246 362.374 254.279C361.403 255.264 360.31 256.151 359.116 256.922C359.041 256.97 358.97 257.015 358.895 257.056C354.646 259.727 349.619 260.611 344.703 259.554C342.785 259.14 340.965 258.45 339.301 257.503C338.002 256.777 336.796 255.898 335.703 254.88C334.551 253.809 333.526 252.582 332.645 251.225C332.564 251.097 332.484 250.972 332.413 250.844C329.822 246.629 328.97 241.663 330.015 236.817C330.221 235.846 330.501 234.894 330.855 233.98C331.275 232.867 331.802 231.81 332.413 230.81C332.573 230.551 332.74 230.298 332.913 230.045C332.934 230.012 332.952 229.985 332.972 229.952C334.384 227.916 336.195 226.151 338.348 224.767C340.724 223.228 343.351 222.257 346.072 221.876C346.427 221.828 346.784 221.79 347.144 221.757C347.657 221.718 348.169 221.697 348.69 221.697C349.297 221.697 349.908 221.724 350.521 221.784C351.269 221.858 352.013 221.977 352.758 222.138C354.375 222.483 355.92 223.031 357.368 223.757C357.374 223.763 357.389 223.763 357.395 223.769C359.738 224.954 361.817 226.612 363.496 228.669C363.857 229.095 364.181 229.535 364.488 229.988C364.607 230.14 364.708 230.301 364.816 230.461C364.896 230.586 364.976 230.714 365.048 230.842C365.366 231.354 365.655 231.875 365.914 232.408C367.823 236.257 368.368 240.603 367.448 244.872Z" fill="#E3F420"/>
<path d="M348.851 243.414L328.773 232.887L330.837 228.949L348.618 238.27L365.48 227.386L367.892 231.122L348.851 243.414Z" fill="#E3F420"/>
<path d="M338.336 258.819L334.744 256.193L346.492 240.139L346.022 219.533L350.471 219.432L350.974 241.547L338.336 258.819Z" fill="#E3F420"/>
<path d="M350.465 239.425L346.995 242.209L360.373 258.871L363.842 256.088L350.465 239.425Z" fill="#E3F420"/>
<path d="M344.461 240.842C344.461 238.481 346.373 236.57 348.735 236.57C351.096 236.57 353.008 238.481 353.008 240.842C353.008 243.199 351.096 245.113 348.735 245.113C346.373 245.113 344.461 243.202 344.461 240.842Z" fill="#2A4E96"/>
<path d="M778.913 8.66253H149.338C151.467 6.36441 153.73 4.15261 156.124 2.02417H775.864C777.046 4.1794 778.056 6.3912 778.913 8.66253Z" fill="#D2E0FF"/>
<path d="M195.523 0H187.833V11.7317H195.523V0Z" fill="#AEC3FF"/>
<path d="M187.833 27.3779H159.906V38.166H187.833V27.3779Z" fill="#D2E0FF"/>
<g opacity="0.5">
<path d="M201.797 41.4019H173.87V52.1899H201.797V41.4019Z" fill="#D2E0FF"/>
</g>
<g opacity="0.5">
<path d="M219.605 27.3779H191.678V38.166H219.605V27.3779Z" fill="#D2E0FF"/>
</g>
<g opacity="0.5">
<path d="M253.143 76.1982H225.216V86.9863H253.143V76.1982Z" fill="#D2E0FF"/>
</g>
<g opacity="0.5">
<path d="M270.951 62.1714H243.024V72.9595H270.951V62.1714Z" fill="#D2E0FF"/>
</g>
<g opacity="0.5">
<path d="M734.387 110.352H706.46V121.14H734.387V110.352Z" fill="#D2E0FF"/>
</g>
<g opacity="0.5">
<path d="M752.195 96.3276H724.268V107.116H752.195V96.3276Z" fill="#D2E0FF"/>
</g>
<g opacity="0.5">
<path d="M766.159 82.3008H738.232V93.0889H766.159V82.3008Z" fill="#D2E0FF"/>
</g>
<g opacity="0.5">
<path d="M720.424 96.3276H692.496V107.116H720.424V96.3276Z" fill="#D2E0FF"/>
</g>
<g opacity="0.5">
<path d="M384.506 97.9441H356.579V108.732H384.506V97.9441Z" fill="#D2E0FF"/>
</g>
<g opacity="0.5">
<path d="M370.542 83.9202H342.615V94.7082H370.542V83.9202Z" fill="#D2E0FF"/>
</g>
<g opacity="0.5">
<path d="M457.638 66.3152H429.711V77.1033H457.638V66.3152Z" fill="#D2E0FF"/>
</g>
<g opacity="0.5">
<path d="M593.224 66.3152H565.297V77.1033H593.224V66.3152Z" fill="#D2E0FF"/>
</g>
<g opacity="0.5">
<path d="M613.715 80.3391H585.788V91.1272H613.715V80.3391Z" fill="#D2E0FF"/>
</g>
<path d="M636.856 323.339H669.757C671.267 323.339 672.488 322.115 672.488 320.609V320.57C672.488 319.061 671.264 317.84 669.757 317.84H636.856C635.35 317.84 634.126 319.061 634.126 320.57V320.609C634.126 322.115 635.35 323.339 636.856 323.339Z" fill="#D7DB31"/>
<path d="M698.586 323.333H661.91C659.876 323.333 658.211 321.669 658.211 319.635V291.638C658.211 289.605 659.876 287.938 661.91 287.938H698.586C700.62 287.938 702.285 289.602 702.285 291.638V319.635C702.285 321.669 700.62 323.333 698.586 323.333Z" fill="#DADD43"/>
<path d="M667.851 288.093C667.851 288.093 676.981 282.279 685.722 282.214C691.412 282.172 697.898 287.846 698.289 287.905C699.277 288.06 694.992 288.114 694.992 288.114C694.992 288.114 688.569 284.321 685.683 284.232C682.202 284.125 673.348 288.423 673.348 288.423L667.851 288.093Z" fill="#E3F420"/>
<path d="M702.872 323.333H666.195C664.161 323.333 662.497 321.669 662.497 319.635V291.638C662.497 289.605 664.161 287.938 666.195 287.938H702.872C704.905 287.938 706.57 289.602 706.57 291.638V319.635C706.57 321.669 704.905 323.333 702.872 323.333Z" fill="#E3F420"/>
</g>
<defs>
<filter id="filter0_d_2_8769" x="0" y="60" width="1220" height="286" filterUnits="userSpaceOnUse" color-interpolation-filters="sRGB">
<feFlood flood-opacity="0" result="BackgroundImageFix"/>
<feColorMatrix in="SourceAlpha" type="matrix" values="0 0 0 0 0 0 0 0 0 0 0 0 0 0 0 0 0 0 127 0" result="hardAlpha"/>
<feOffset/>
<feGaussianBlur stdDeviation="10"/>
<feComposite in2="hardAlpha" operator="out"/>
<feColorMatrix type="matrix" values="0 0 0 0 0 0 0 0 0 0 0 0 0 0 0 0 0 0 0.16 0"/>
<feBlend mode="normal" in2="BackgroundImageFix" result="effect1_dropShadow_2_8769"/>
<feBlend mode="normal" in="SourceGraphic" in2="effect1_dropShadow_2_8769" result="shape"/>
</filter>
<clipPath id="clip0_2_8769">
<rect width="769" height="326" fill="white" transform="translate(51)"/>
</clipPath>
</defs>
</svg>
