<svg width="12" height="10" viewBox="0 0 12 10" fill="none" xmlns="http://www.w3.org/2000/svg">
<path fill-rule="evenodd" clip-rule="evenodd" d="M6.6551 1.44502C7.13249 0.967627 7.77997 0.699432 8.4551 0.699432C9.13023 0.699432 9.77771 0.967627 10.2551 1.44502C10.7325 1.92241 11.0007 2.56989 11.0007 3.24502C11.0007 3.92015 10.7325 4.56763 10.2551 5.04502L9.6001 5.70002L6.0001 9.30002L2.4001 5.70002L1.7451 5.04502C1.26771 4.56763 0.999512 3.92015 0.999512 3.24502C0.999512 2.56989 1.26771 1.92241 1.7451 1.44502C2.22249 0.967627 2.86997 0.699432 3.5451 0.699432C4.22023 0.699432 4.86771 0.967627 5.3451 1.44502L6.0001 2.10002L6.6551 1.44502Z" stroke="#E6704B" stroke-linecap="round" stroke-linejoin="bevel"/>
</svg>
