<svg width="107" height="93" viewBox="0 0 107 93" fill="none" xmlns="http://www.w3.org/2000/svg">
<rect width="80" height="80" rx="10" fill="#EB0D0D"/>
<path d="M17 25V42.7778H21.6V38.3333H35.4L40 33.8889L35.4 29.4444H21.6V25H17ZM58.4 25V29.4444H40L44.6 33.8889L40 38.3333H58.4V42.7778H63V25H58.4ZM40 42.7778C40 42.7778 35.4 47.6 35.4 50.5556C35.4 51.7343 35.8846 52.8648 36.7473 53.6983C37.61 54.5317 38.78 55 40 55C41.22 55 42.39 54.5317 43.2527 53.6983C44.1154 52.8648 44.6 51.7343 44.6 50.5556C44.6 47.6 40 42.7778 40 42.7778Z" fill="white"/>
<circle cx="80" cy="66" r="25.5" fill="url(#paint0_linear_3_255)" stroke="#FA2020" stroke-width="3"/>
<path d="M70.848 77.384C69.0133 77.384 67.3707 76.936 65.92 76.04C64.4693 75.1227 63.328 73.8 62.496 72.072C61.664 70.344 61.248 68.2533 61.248 65.8C61.248 63.3467 61.664 61.256 62.496 59.528C63.328 57.8 64.4693 56.488 65.92 55.592C67.3707 54.6747 69.0133 54.216 70.848 54.216C72.704 54.216 74.3467 54.6747 75.776 55.592C77.2267 56.488 78.368 57.8 79.2 59.528C80.032 61.256 80.448 63.3467 80.448 65.8C80.448 68.2533 80.032 70.344 79.2 72.072C78.368 73.8 77.2267 75.1227 75.776 76.04C74.3467 76.936 72.704 77.384 70.848 77.384ZM70.848 73C71.7227 73 72.48 72.7547 73.12 72.264C73.7813 71.7733 74.2933 70.9947 74.656 69.928C75.04 68.8613 75.232 67.4853 75.232 65.8C75.232 64.1147 75.04 62.7387 74.656 61.672C74.2933 60.6053 73.7813 59.8267 73.12 59.336C72.48 58.8453 71.7227 58.6 70.848 58.6C69.9947 58.6 69.2373 58.8453 68.576 59.336C67.936 59.8267 67.424 60.6053 67.04 61.672C66.6773 62.7387 66.496 64.1147 66.496 65.8C66.496 67.4853 66.6773 68.8613 67.04 69.928C67.424 70.9947 67.936 71.7733 68.576 72.264C69.2373 72.7547 69.9947 73 70.848 73ZM82.6497 77V73.64L91.2898 65.48C91.9724 64.8613 92.4738 64.3067 92.7938 63.816C93.1138 63.3253 93.3271 62.8773 93.4338 62.472C93.5618 62.0667 93.6258 61.6933 93.6258 61.352C93.6258 60.456 93.3164 59.7733 92.6978 59.304C92.1004 58.8133 91.2151 58.568 90.0417 58.568C89.1031 58.568 88.2284 58.7493 87.4178 59.112C86.6284 59.4747 85.9564 60.04 85.4018 60.808L81.6258 58.376C82.4791 57.096 83.6738 56.0827 85.2098 55.336C86.7458 54.5893 88.5164 54.216 90.5218 54.216C92.1858 54.216 93.6364 54.4933 94.8738 55.048C96.1324 55.5813 97.1031 56.3387 97.7858 57.32C98.4898 58.3013 98.8418 59.4747 98.8418 60.84C98.8418 61.5653 98.7458 62.2907 98.5538 63.016C98.3831 63.72 98.0204 64.4667 97.4658 65.256C96.9324 66.0453 96.1431 66.9307 95.0978 67.912L87.9298 74.664L86.9378 72.776H99.5778V77H82.6497Z" fill="white"/>
<defs>
<linearGradient id="paint0_linear_3_255" x1="80" y1="42" x2="80" y2="90" gradientUnits="userSpaceOnUse">
<stop offset="0.385417" stop-color="#EB0D0D"/>
<stop offset="1" stop-color="#F1F1F1"/>
</linearGradient>
</defs>
</svg>
