<svg width="94" height="20" viewBox="0 0 94 20" fill="none" xmlns="http://www.w3.org/2000/svg">
<g clip-path="url(#clip0_711_4804)">
<g clip-path="url(#clip1_711_4804)">
<path d="M21.233 17.7692H17.2637L19.7464 2.28076H23.7155L21.233 17.7692Z" fill="#00579F"/>
<path d="M35.6223 2.6594C34.8393 2.34602 33.5976 2 32.0621 2C28.1422 2 25.3819 4.10895 25.365 7.12412C25.3324 9.3487 27.3413 10.5843 28.8438 11.326C30.3794 12.084 30.9015 12.5787 30.9015 13.2543C30.8858 14.2919 29.6606 14.7702 28.5177 14.7702C26.933 14.7702 26.0839 14.5236 24.7935 13.9464L24.2708 13.6989L23.7153 17.1757C24.6463 17.6036 26.3615 17.9834 28.1422 18C32.3071 18 35.0186 15.9237 35.0508 12.7105C35.0666 10.9474 34.0058 9.59639 31.7189 8.49242C30.3306 7.78374 29.4804 7.30589 29.4804 6.58079C29.4967 5.9216 30.1995 5.24643 31.7667 5.24643C33.0571 5.21336 34.0052 5.52631 34.7234 5.83948L35.0824 6.00394L35.6223 2.6594Z" fill="#00579F"/>
<path d="M40.8985 12.2822C41.2254 11.3924 42.4833 7.94865 42.4833 7.94865C42.4668 7.98172 42.8095 7.04244 43.0055 6.46582L43.2829 7.80039C43.2829 7.80039 44.0346 11.5078 44.1978 12.2822C43.5775 12.2822 41.6826 12.2822 40.8985 12.2822ZM45.7982 2.28076H42.7279C41.7811 2.28076 41.0618 2.56064 40.6533 3.56584L34.7573 17.769H38.9222C38.9222 17.769 39.6079 15.8573 39.7553 15.4456C40.2122 15.4456 44.2638 15.4456 44.8516 15.4456C44.9656 15.9894 45.3252 17.769 45.3252 17.769H49.0005L45.7982 2.28076Z" fill="#00579F"/>
<path d="M13.9479 2.28076L10.0606 12.8424L9.63583 10.7004C8.91715 8.22875 6.66322 5.5434 4.14795 4.20816L7.70857 17.7528H11.906L18.1452 2.28076H13.9479Z" fill="#00579F"/>
<path d="M6.45162 2.28076H0.0653342L0 2.59371C4.9817 3.87901 8.28099 6.97718 9.63651 10.701L8.24821 3.58271C8.01965 2.59349 7.31725 2.31339 6.45162 2.28076Z" fill="#F4A622"/>
</g>
<path d="M81.9607 2.13892H73.0381V17.8611H81.9607V2.13892Z" fill="#FF5F00"/>
<path d="M73.6049 10C73.6049 6.80556 75.1345 3.97222 77.4855 2.13889C75.7576 0.805556 73.5766 0 71.1972 0C65.5604 0 61 4.47222 61 10C61 15.5278 65.5604 20 71.1972 20C73.5766 20 75.7576 19.1944 77.4855 17.8611C75.1345 16.0556 73.6049 13.1944 73.6049 10Z" fill="#EB001B"/>
<path d="M94.0002 10C94.0002 15.5278 89.4397 20 83.8029 20C81.4236 20 79.2425 19.1944 77.5146 17.8611C79.894 16.0278 81.3953 13.1944 81.3953 10C81.3953 6.80556 79.8657 3.97222 77.5146 2.13889C79.2425 0.805556 81.4236 0 83.8029 0C89.4397 0 94.0002 4.5 94.0002 10Z" fill="#F79E1B"/>
</g>
<defs>
<clipPath id="clip0_711_4804">
<rect width="94" height="20" fill="white"/>
</clipPath>
<clipPath id="clip1_711_4804">
<rect width="49" height="16" fill="white" transform="translate(0 2)"/>
</clipPath>
</defs>
</svg>
