<svg width="15" height="14" viewBox="0 0 15 14" fill="none" xmlns="http://www.w3.org/2000/svg">
<path fill-rule="evenodd" clip-rule="evenodd" d="M6.94835 1.12669C6.9944 0.980663 7.08581 0.853118 7.20929 0.762581C7.33277 0.672044 7.4819 0.62323 7.63502 0.62323C7.78814 0.62323 7.93727 0.672044 8.06075 0.762581C8.18423 0.853118 8.27564 0.980663 8.32169 1.12669L9.56169 4.94002H13.5617C13.7203 4.93403 13.8765 4.98012 14.0064 5.07125C14.1363 5.16238 14.2329 5.29355 14.2812 5.4447C14.3296 5.59586 14.3272 5.75869 14.2743 5.90833C14.2214 6.05796 14.121 6.18617 13.9884 6.27336L10.7417 8.62669L11.9817 12.4467C12.0307 12.5922 12.032 12.7496 11.9852 12.8958C11.9385 13.0421 11.8462 13.1696 11.7218 13.2597C11.5975 13.3498 11.4476 13.3978 11.2941 13.3966C11.1405 13.3955 10.9913 13.3453 10.8684 13.2534L7.61502 10.8734L4.36835 13.2334C4.24536 13.3253 4.0962 13.3755 3.94265 13.3766C3.7891 13.3778 3.63921 13.3298 3.51487 13.2397C3.39052 13.1496 3.29824 13.0221 3.25149 12.8758C3.20474 12.7296 3.20598 12.5722 3.25502 12.4267L4.49502 8.60669L1.24835 6.25336C1.11574 6.16617 1.01532 6.03796 0.962434 5.88833C0.909546 5.73869 0.9071 5.57586 0.95547 5.4247C1.00384 5.27355 1.10037 5.14238 1.2303 5.05125C1.36023 4.96012 1.51643 4.91403 1.67502 4.92002H5.67502L6.94835 1.12669Z" fill="#FDBC15"/>
</svg>
