<svg width="1220" height="366" viewBox="0 0 1220 366" fill="none" xmlns="http://www.w3.org/2000/svg">
<g filter="url(#filter0_d_2_8766)">
<rect x="20" y="100" width="1180" height="246" rx="30" fill="#A63B32"/>
</g>
<path d="M225.74 181.83L225.46 184.71C225.48 184.54 218.08 184.32 218.08 184.32V181.42C218.07 181.43 225.74 181.66 225.74 181.83Z" fill="#FBE366"/>
<path d="M237.06 184.08L236.13 186.83C236.13 186.83 235.69 186.69 235.04 186.5C234.39 186.31 233.53 186 232.62 185.86C230.83 185.5 229.03 185.13 229.03 185.13L229.49 182.27C229.49 182.27 231.39 182.65 233.3 183.04C234.26 183.2 235.18 183.52 235.89 183.73C236.58 183.93 237.06 184.08 237.06 184.08Z" fill="#FBE366"/>
<path d="M247.49 189.16L245.82 191.54C245.96 191.31 239.55 187.87 239.47 188.06L240.65 185.41C240.74 185.21 247.64 188.91 247.49 189.16Z" fill="#FBE366"/>
<path d="M255.8 197.26L253.52 199.05C253.52 199.05 252.49 197.54 251.21 196.26C250.04 194.86 248.62 193.72 248.62 193.72L250.52 191.52C250.52 191.52 252.05 192.75 253.31 194.25C254.68 195.65 255.8 197.26 255.8 197.26Z" fill="#FBE366"/>
<path d="M261.59 207.26L258.96 208.46C258.96 208.46 258.2 206.77 257.34 205.15C256.9 204.35 256.46 203.55 256.13 202.95C255.77 202.38 255.52 201.99 255.52 201.99L257.96 200.43C257.96 200.43 258.22 200.84 258.61 201.46C258.96 202.09 259.43 202.95 259.89 203.8C260.8 205.51 261.59 207.26 261.59 207.26Z" fill="#FBE366"/>
<path d="M265.6 217.35L263.22 219.2C263.22 219.2 262.54 217.38 261.86 215.55C261.15 213.73 260.44 211.91 260.44 211.91L263.02 210.58C263.02 210.58 263.68 212.27 264.34 213.96C264.97 215.65 265.6 217.35 265.6 217.35Z" fill="#FBE366"/>
<path d="M269.54 227.4L267.54 229.93C267.54 229.93 266.71 228.19 265.99 226.39C265.23 224.61 264.56 222.78 264.56 222.78L266.82 220.68C266.82 220.68 267.47 222.37 268.12 224.06C268.78 225.75 269.54 227.4 269.54 227.4Z" fill="#FBE366"/>
<path d="M275 236.67L273.51 239.7C273.51 239.7 273.16 239.36 272.75 238.77C272.32 238.18 271.76 237.4 271.2 236.62C270.69 235.8 270.19 234.98 269.8 234.36C269.43 233.74 269.23 233.31 269.23 233.31L271.06 230.58C271.06 230.58 271.92 232.18 272.86 233.73C273.38 234.47 273.91 235.21 274.3 235.77C274.68 236.35 275 236.67 275 236.67Z" fill="#FBE366"/>
<path d="M283.46 243.21L282.61 246.57C282.61 246.57 282.17 246.35 281.53 246.03C280.88 245.71 280 245.31 279.22 244.72C277.55 243.71 276.16 242.39 276.15 242.39L277.45 239.22C277.45 239.22 278.75 240.49 280.3 241.45C281.02 242.01 281.84 242.39 282.45 242.69C283.05 243.01 283.46 243.21 283.46 243.21Z" fill="#FBE366"/>
<path d="M293.92 245.61L293.78 249.1C293.78 249.1 291.86 248.91 289.94 248.7C288.99 248.5 288.05 248.3 287.34 248.15C286.62 248.02 286.16 247.87 286.16 247.87L286.79 244.44C286.79 244.44 287.22 244.58 287.89 244.71C288.55 244.85 289.44 245.04 290.33 245.23C292.12 245.42 293.92 245.61 293.92 245.61Z" fill="#FBE366"/>
<path d="M304.67 245.01L305.24 248.46C305.24 248.46 304.77 248.56 304.06 248.71C303.34 248.77 302.37 248.85 301.41 248.94C300.45 249.02 299.48 249.1 298.76 249.16C298.04 249.16 297.55 249.16 297.55 249.16L297.46 245.66C297.46 245.66 297.91 245.66 298.6 245.66C299.27 245.6 300.17 245.53 301.08 245.46C301.98 245.38 302.88 245.3 303.55 245.25C304.23 245.11 304.67 245.01 304.67 245.01Z" fill="#FBE366"/>
<path d="M314.37 240.58L315.62 243.8C315.68 243.87 314.05 244.92 312.41 245.94C311.64 246.53 310.66 246.74 310.01 247.07C309.34 247.34 308.89 247.53 308.89 247.53L308.08 244.14C308.08 244.14 308.5 243.96 309.13 243.7C309.73 243.39 310.64 243.19 311.37 242.63C312.91 241.64 314.42 240.65 314.37 240.58Z" fill="#FBE366"/>
<path d="M321.34 232.41L323.15 235.21C323.15 235.21 322.05 236.79 320.96 238.38C319.7 239.84 318.43 241.29 318.43 241.29L316.98 238.18C316.98 238.18 318.15 236.79 319.32 235.42C320.33 233.91 321.34 232.41 321.34 232.41Z" fill="#FBE366"/>
<path d="M326.13 222.75L328.39 224.95C328.39 224.95 327.64 226.74 326.81 228.49C326.06 230.28 325.06 231.94 325.06 231.94L323.08 229.33C323.08 229.33 323.99 227.76 324.68 226.07C325.43 224.42 326.13 222.75 326.13 222.75Z" fill="#FBE366"/>
<path d="M329.57 212.52L332.16 213.99C332.16 213.99 331.62 215.86 331 217.71C330.42 219.57 329.75 221.4 329.75 221.4L327.37 219.43C327.37 219.43 327.98 217.72 328.51 215.99C329.07 214.27 329.57 212.52 329.57 212.52Z" fill="#FBE366"/>
<path d="M332.21 202.04L335.02 202.73C335.02 202.73 334.57 204.62 334.12 206.52C333.68 208.43 333.17 210.31 333.17 210.31L330.49 209.1C330.49 209.1 330.96 207.35 331.37 205.59C331.79 203.82 332.21 202.04 332.21 202.04Z" fill="#FBE366"/>
<path d="M334.42 191.12L337.27 191.65L335.8 199.09L332.97 198.48L334.42 191.12Z" fill="#FBE366"/>
<path d="M336.33 180.09L339.19 180.56L337.92 188.01L335.07 187.5L336.33 180.09Z" fill="#FBE366"/>
<path d="M338.1 169.01L340.96 169.46L339.78 176.92L336.92 176.45L338.1 169.01Z" fill="#FBE366"/>
<path d="M339.84 157.91L342.7 158.37L341.53 165.81L338.67 165.37L339.84 157.91Z" fill="#FBE366"/>
<path d="M341.69 146.82L344.54 147.33L343.29 154.74L340.44 154.27L341.69 146.82Z" fill="#FBE366"/>
<path d="M343.82 135.75L346.64 136.33C346.64 136.33 346.27 138.17 345.89 140.01C345.54 141.86 345.21 143.7 345.21 143.7L342.36 143.17C342.36 143.17 342.7 141.31 343.05 139.45C343.43 137.6 343.82 135.75 343.82 135.75Z" fill="#FBE366"/>
<path d="M346.39 124.73L349.19 125.48C349.19 125.48 348.72 127.29 348.26 129.1C347.83 130.92 347.41 132.74 347.41 132.74L344.59 132.11C344.59 132.11 345.02 130.26 345.45 128.41C345.92 126.58 346.39 124.73 346.39 124.73Z" fill="#FBE366"/>
<path d="M349.79 113.9L352.5 114.91C352.5 114.91 351.84 116.64 351.26 118.41C350.71 120.2 350.16 121.97 350.16 121.97L347.38 121.15C347.38 121.15 347.94 119.32 348.5 117.5C349.1 115.68 349.79 113.9 349.79 113.9Z" fill="#FBE366"/>
<path d="M354.61 103.43L357.06 104.98C357.06 104.98 356.2 106.58 355.35 108.19C354.53 109.81 353.83 111.53 353.83 111.54L351.17 110.39C351.17 110.39 351.89 108.62 352.77 106.88C353.69 105.16 354.61 103.43 354.61 103.43Z" fill="#FBE366"/>
<path d="M362.12 94.5999L364.02 96.7899C364.02 96.7899 363.67 97.0799 363.16 97.5299C362.68 98.0099 361.89 98.4999 361.34 99.2299C360.75 99.9199 360.16 100.62 359.72 101.13C359.25 101.62 359.02 102.02 359.02 102.02L356.74 100.24C356.74 100.24 356.98 99.8099 357.49 99.2799C357.97 98.7199 358.6 97.9799 359.24 97.2299C359.83 96.4499 360.68 95.9099 361.2 95.3999C361.75 94.9199 362.12 94.5999 362.12 94.5999Z" fill="#FBE366"/>
<path d="M371.86 88.3699L373.2 90.9299C373.2 90.9299 372.78 91.0999 372.18 91.4699C371.59 91.8199 370.79 92.2899 370 92.7499C368.37 93.6499 366.92 94.7299 366.92 94.7299L365.23 92.3599C365.23 92.3599 366.83 91.1899 368.51 90.2699C369.33 89.7799 370.16 89.2899 370.79 88.9299C371.41 88.5499 371.86 88.3699 371.86 88.3699Z" fill="#FBE366"/>
<path d="M382.64 84.1799L383.31 86.9899C383.31 86.9899 381.57 87.4999 379.82 88.0099C378.12 88.6799 376.42 89.3499 376.42 89.3499L375.26 86.6999C375.26 86.6999 377.06 85.9899 378.88 85.2799C380.75 84.7399 382.64 84.1799 382.64 84.1799Z" fill="#FBE366"/>
<path d="M394.35 83.61L393.92 86.47C393.92 86.47 393.48 86.39 392.82 86.29C392.16 86.22 391.26 86.22 390.38 86.18C388.6 86.16 386.8 86.37 386.8 86.37L386.44 83.49C386.44 83.49 388.41 83.26 390.4 83.28C391.39 83.33 392.39 83.34 393.13 83.42C393.85 83.53 394.35 83.61 394.35 83.61Z" fill="#FBE366"/>
<path d="M405.31 87.88L403.7 90.29C403.7 90.29 403.33 90.04 402.78 89.67C402.19 89.35 401.4 88.93 400.62 88.51C399.81 88.13 398.98 87.84 398.36 87.57C397.75 87.3 397.3 87.25 397.31 87.23L398.16 84.47C398.16 84.47 398.66 84.55 399.35 84.86C400.04 85.15 400.98 85.48 401.88 85.91C402.76 86.38 403.64 86.85 404.29 87.21C404.9 87.61 405.31 87.88 405.31 87.88Z" fill="#FBE366"/>
<path d="M413.74 95.94L411.45 97.7C411.45 97.7 411.18 97.33 410.76 96.79C410.3 96.28 409.71 95.6 409.12 94.9C407.86 93.6 406.51 92.4 406.51 92.4L408.4 90.21C408.4 90.21 409.88 91.51 411.24 92.93C411.88 93.67 412.53 94.41 413.01 94.96C413.44 95.55 413.74 95.94 413.74 95.94Z" fill="#FBE366"/>
<path d="M419.64 105.84L417.02 107.05C417.16 106.98 413.62 100.53 413.5 100.62L415.93 99.05C415.93 99.05 416.97 100.69 417.92 102.38C418.83 104.09 419.64 105.84 419.64 105.84Z" fill="#FBE366"/>
<path d="M423.56 116.62L420.77 117.37C420.77 117.37 420.28 115.59 419.72 113.83C419.13 112.08 418.45 110.36 418.45 110.36L421.15 109.3C421.15 109.3 421.85 111.09 422.47 112.92C423.05 114.76 423.55 116.62 423.56 116.62Z" fill="#FBE366"/>
<path d="M425.6 127.94L422.71 128.14C422.71 128.14 422.57 126.34 422.28 124.51C422 122.68 421.61 120.89 421.61 120.89L424.44 120.28C424.44 120.28 424.85 122.17 425.13 124.07C425.46 125.98 425.6 127.94 425.6 127.94Z" fill="#FBE366"/>
<path d="M424.98 139.38L422.1 139.09L422.63 134.14C422.72 133.33 422.78 132.51 422.81 131.69L425.71 131.77C425.67 132.65 425.62 133.53 425.51 134.41L424.98 139.38Z" fill="#FBE366"/>
<path d="M424.04 150.52L421.15 150.32L421.75 142.77L424.63 143.03L424.04 150.52Z" fill="#FBE366"/>
<path d="M423.48 161.67L420.59 161.59C420.59 161.59 420.65 159.7 420.72 157.8C420.82 155.92 420.91 154.02 420.91 154.02L423.8 154.18C423.8 154.18 423.71 156.05 423.61 157.93C423.55 159.8 423.48 161.67 423.48 161.67Z" fill="#FBE366"/>
<path d="M423.4 172.83L420.51 172.88C420.51 172.88 420.5 170.98 420.48 169.09C420.5 167.19 420.51 165.3 420.51 165.3L423.4 165.34C423.4 165.34 423.38 167.21 423.37 169.08C423.38 170.95 423.4 172.83 423.4 172.83Z" fill="#FBE366"/>
<path d="M423.9 183.96L421.02 184.18C421.02 184.18 420.91 182.28 420.79 180.39C420.65 178.49 420.62 176.6 420.62 176.6L423.52 176.49C423.52 176.49 423.56 178.36 423.68 180.23C423.79 182.09 423.9 183.96 423.9 183.96Z" fill="#FBE366"/>
<path d="M425.15 195L422.29 195.44C422.29 195.44 422.03 193.55 421.79 191.67C421.52 189.78 421.36 187.88 421.36 187.88L424.24 187.59C424.24 187.59 424.39 189.46 424.66 191.3C424.89 193.15 425.15 195 425.15 195Z" fill="#FBE366"/>
<path d="M427.36 205.85L424.55 206.58C424.55 206.58 424.06 204.73 423.67 202.86C423.23 201 422.91 199.12 422.91 199.12L425.75 198.59C425.75 198.59 426.07 200.43 426.5 202.23C426.88 204.06 427.36 205.85 427.36 205.85Z" fill="#FBE366"/>
<path d="M430.84 216.28L428.17 217.4C428.17 217.4 427.35 215.65 426.78 213.82C426.15 212.01 425.56 210.19 425.56 210.19L428.32 209.35C428.32 209.35 428.91 211.11 429.5 212.85C430.05 214.61 430.84 216.28 430.84 216.28Z" fill="#FBE366"/>
<path d="M435.99 225.82L433.66 227.56C433.66 227.56 432.56 225.94 431.54 224.28C430.63 222.56 429.71 220.85 429.71 220.85L432.3 219.56C432.3 219.56 433.15 221.18 434.01 222.78C435.01 224.3 435.99 225.82 435.99 225.82Z" fill="#FBE366"/>
<path d="M443.31 233.69L441.56 236.02C441.39 236.23 435.84 230.72 436 230.57L438.15 228.63C438.01 228.76 443.15 233.89 443.31 233.69Z" fill="#FBE366"/>
<path d="M452.77 238.77L451.76 241.5C451.76 241.5 451.3 241.34 450.6 241.09C449.92 240.83 448.96 240.58 448.12 240.07C446.4 239.16 444.67 238.26 444.67 238.26L446.19 235.76C446.19 235.76 447.8 236.61 449.4 237.45C450.18 237.94 451.07 238.14 451.7 238.4C452.33 238.63 452.77 238.77 452.77 238.77Z" fill="#FBE366"/>
<path d="M463.34 240.67L463.15 243.56C463.15 243.56 461.21 243.42 459.25 243.27C457.32 243.01 455.42 242.55 455.42 242.54L456.17 239.73C456.17 239.73 457.93 240.16 459.73 240.39C461.53 240.54 463.34 240.67 463.34 240.67Z" fill="#FBE366"/>
<path d="M474.17 239.88L474.64 242.73C474.64 242.73 472.73 243.02 470.83 243.31C468.9 243.48 466.95 243.53 466.95 243.53L466.88 240.63C466.88 240.63 468.7 240.59 470.52 240.43C472.35 240.15 474.17 239.88 474.17 239.88Z" fill="#FBE366"/>
<path d="M484.87 237.28L485.73 240.04C485.79 240.21 478.34 242.03 478.34 242.03L477.72 239.2C477.71 239.21 484.91 237.46 484.87 237.28Z" fill="#FBE366"/>
<path d="M495.24 233.4L496.37 236.07C496.37 236.07 494.61 236.8 492.86 237.53C491.99 237.92 491.09 238.24 490.41 238.45C489.73 238.68 489.28 238.84 489.28 238.84L488.32 236.11C488.32 236.11 488.76 235.96 489.42 235.74C490.09 235.53 490.96 235.21 491.81 234.84C493.52 234.12 495.24 233.4 495.24 233.4Z" fill="#FBE366"/>
<path d="M211.3 243.6C211.77 254.85 221.29 263.57 232.54 263.08C243.8 262.59 252.53 253.09 252.06 241.83C251.56 230.58 242.04 221.87 230.8 222.35C219.53 222.82 210.81 232.33 211.3 243.6Z" fill="white"/>
<path d="M140 232.55L141.76 264.45C141.76 264.45 158.33 260.27 162.58 263.27C169.89 268.49 174.52 278.11 174.32 286.82C174.16 292.01 160.93 302.75 160.93 302.75L185.38 323.3C185.38 323.3 193.65 308.41 198.74 307.38C205.6 306 214.01 308.77 218.74 314.17C222.14 318.09 219.61 334.96 219.61 334.96L251.52 333.58C251.52 333.58 247.58 317.02 250.64 312.79C255.47 306.19 264.47 302.11 272.39 302.68C277.59 303.04 287.73 316.77 287.73 316.77L309.35 293.28C309.35 293.28 294.83 284.31 294.04 279.17C292.77 270.94 296.18 261.22 302.6 255.48C306.46 252.03 323.34 254.34 323.34 254.34L321.55 222.43C321.55 222.43 304.99 226.61 300.74 223.59C293.43 218.38 288.8 208.76 289.01 200.04C289.15 194.85 302.38 184.12 302.38 184.12L277.92 163.58C277.92 163.58 269.66 178.48 264.55 179.5C257.69 180.87 249.3 178.12 244.59 172.71C241.19 168.8 243.7 151.92 243.7 151.92L211.77 153.29C211.77 153.29 215.74 169.86 212.68 174.08C207.85 180.7 198.88 184.78 190.95 184.2C185.77 183.84 175.62 170.1 175.62 170.1L154 193.59C154 193.59 168.49 202.56 169.29 207.71C170.57 215.95 167.17 225.67 160.75 231.39C156.85 234.84 140 232.55 140 232.55ZM178.78 244.99C177.5 215.8 200.18 191.12 229.35 189.85C258.54 188.6 283.22 211.24 284.49 240.43C285.75 269.63 263.1 294.31 233.92 295.57C204.71 296.83 180.04 274.18 178.78 244.99Z" fill="white"/>
<path d="M191.25 245.18C192.21 267.49 211.07 284.8 233.39 283.83C255.69 282.87 272.99 264.01 272.03 241.71C271.07 219.38 252.21 202.08 229.89 203.04C207.58 204 190.28 222.87 191.25 245.18Z" fill="white"/>
<path d="M392.48 288.336C392.753 294.881 398.291 299.954 404.836 299.669C411.387 299.383 416.466 293.857 416.192 287.306C415.901 280.761 410.363 275.694 403.824 275.973C397.267 276.247 392.194 281.779 392.48 288.336Z" fill="white"/>
<path d="M351 281.907L352.024 300.466C352.024 300.466 361.664 298.034 364.136 299.779C368.389 302.816 371.082 308.412 370.966 313.48C370.873 316.499 363.176 322.747 363.176 322.747L377.4 334.702C377.4 334.702 382.211 326.04 385.173 325.441C389.164 324.638 394.056 326.249 396.808 329.391C398.786 331.671 397.314 341.485 397.314 341.485L415.878 340.683C415.878 340.683 413.586 331.049 415.366 328.588C418.176 324.748 423.412 322.375 428.019 322.706C431.044 322.916 436.944 330.903 436.944 330.903L449.521 317.238C449.521 317.238 441.074 312.019 440.614 309.029C439.876 304.241 441.859 298.586 445.594 295.247C447.84 293.24 457.66 294.584 457.66 294.584L456.619 276.02C456.619 276.02 446.985 278.452 444.512 276.695C440.26 273.664 437.566 268.067 437.688 262.994C437.77 259.975 445.466 253.733 445.466 253.733L431.236 241.783C431.236 241.783 426.431 250.452 423.458 251.045C419.467 251.842 414.586 250.242 411.846 247.095C409.868 244.82 411.329 235 411.329 235L392.753 235.797C392.753 235.797 395.063 245.437 393.282 247.892C390.472 251.743 385.254 254.117 380.641 253.779C377.627 253.57 371.722 245.576 371.722 245.576L359.145 259.242C359.145 259.242 367.574 264.46 368.04 267.456C368.784 272.25 366.806 277.905 363.072 281.233C360.803 283.24 351 281.907 351 281.907ZM373.561 289.144C372.816 272.163 386.01 257.805 402.98 257.066C419.962 256.339 434.32 269.51 435.059 286.492C435.792 303.479 422.615 317.837 405.639 318.57C388.646 319.303 374.294 306.126 373.561 289.144Z" fill="white"/>
<path d="M380.815 289.255C381.374 302.234 392.346 312.304 405.331 311.74C418.304 311.182 428.368 300.21 427.81 287.236C427.251 274.246 416.279 264.181 403.294 264.74C390.315 265.298 380.251 276.276 380.815 289.255Z" fill="white"/>
<path d="M454.48 179.336C454.753 185.881 460.291 190.954 466.836 190.669C473.387 190.383 478.466 184.857 478.192 178.306C477.901 171.761 472.363 166.694 465.824 166.973C459.267 167.247 454.194 172.779 454.48 179.336Z" fill="white"/>
<path d="M413 172.907L414.024 191.466C414.024 191.466 423.664 189.034 426.136 190.779C430.389 193.816 433.082 199.412 432.966 204.48C432.873 207.499 425.176 213.747 425.176 213.747L439.4 225.702C439.4 225.702 444.211 217.04 447.173 216.441C451.164 215.638 456.056 217.249 458.808 220.391C460.786 222.671 459.314 232.485 459.314 232.485L477.878 231.683C477.878 231.683 475.586 222.049 477.366 219.588C480.176 215.748 485.412 213.375 490.019 213.706C493.044 213.916 498.944 221.903 498.944 221.903L511.521 208.238C511.521 208.238 503.074 203.019 502.614 200.029C501.876 195.241 503.859 189.586 507.594 186.247C509.84 184.24 519.66 185.584 519.66 185.584L518.619 167.02C518.619 167.02 508.985 169.452 506.512 167.695C502.26 164.664 499.566 159.067 499.688 153.994C499.77 150.975 507.466 144.733 507.466 144.733L493.236 132.783C493.236 132.783 488.431 141.452 485.458 142.045C481.467 142.842 476.586 141.242 473.846 138.095C471.868 135.82 473.329 126 473.329 126L454.753 126.797C454.753 126.797 457.063 136.437 455.282 138.892C452.472 142.743 447.254 145.117 442.641 144.779C439.627 144.57 433.722 136.576 433.722 136.576L421.145 150.242C421.145 150.242 429.574 155.46 430.04 158.456C430.784 163.25 428.806 168.905 425.072 172.233C422.803 174.24 413 172.907 413 172.907ZM435.561 180.144C434.816 163.163 448.01 148.805 464.98 148.066C481.962 147.339 496.32 160.51 497.059 177.492C497.792 194.479 484.615 208.837 467.639 209.57C450.646 210.303 436.294 197.126 435.561 180.144Z" fill="white"/>
<path d="M442.815 180.255C443.374 193.234 454.346 203.304 467.331 202.74C480.304 202.182 490.368 191.21 489.81 178.236C489.251 165.246 478.279 155.181 465.294 155.74C452.315 156.298 442.251 167.276 442.815 180.255Z" fill="white"/>
<path d="M291.5 99.7299C291.16 97.2299 292.69 89.8499 299.52 87.7199C308.65 84.8799 327.8 88.5899 336.73 78.8799C345.69 69.1199 342.97 60.6399 341.92 54.7099C340.84 48.7699 337.62 46.9099 337.4 43.3899C337.15 39.8499 341.35 39.7599 345.36 48.8699C347.28 53.2199 359.3 73.5999 350.79 87.1499C339.64 104.91 293.62 114.5 291.5 99.7299Z" fill="#FBC6B4"/>
<path d="M289.7 95.0898C289.7 95.0898 289.11 105.56 304.65 106.87C320.2 108.18 327.15 106.6 327.15 106.6C327.15 106.6 330.96 97.1398 326.34 81.8098C326.35 81.8098 288.42 80.2498 289.7 95.0898Z" fill="#EDA503"/>
<path d="M257.26 110.97C258.63 116.95 259 122.08 258.62 126.9C258.48 129.01 258.21 131.04 257.82 133.05C256.49 139.81 256.79 149.54 253.9 157.68C258.02 159.44 255.96 165.26 255.78 165.67C246.56 183.27 303.87 171.3 313.77 157.15C317.18 152.28 314.29 145.86 315.2 136.31C315.47 134.18 315.6 132 315.7 129.87C316.29 120.09 315.95 110.51 314.8 103.96C311.26 84.0901 292.74 82.5001 281.39 83.6901C276.24 84.2301 269.52 84.8701 264.28 87.7001L264.26 87.7501C258.16 91.1901 254.16 97.6901 257.26 110.97Z" fill="#FFB502"/>
<path d="M327.05 204.17C312.57 220.64 285.83 258.06 294.08 262.79C302.33 267.5 308.54 267.25 304.49 263.16C300.47 259.04 300.6 258.39 301.58 256.96C307.69 248 325.68 234.95 336.72 223.26C349.54 209.7 339.7 189.76 327.05 204.17Z" fill="#FBC6B4"/>
<path d="M292.71 256.82C292.71 256.82 298.29 263.93 304.48 263.17C304.48 263.17 312.05 268.81 305.71 268.23C299.36 267.62 288.4 264.11 292.71 256.82Z" fill="#FFB502"/>
<path d="M272.22 101.67C274.2 111.55 279.12 126.73 256.43 138.76C256.43 138.76 295.63 186.14 319.08 161.88C319.08 161.88 315.97 119.03 310.23 101.85C308.58 96.9201 304.67 83.3901 293.95 83.9401C293.95 83.9401 309.95 108.19 302.78 114.3C295.61 120.41 289.22 114.85 286.32 109.97C281.66 102.12 271.34 85.1501 271.34 85.1501L265.06 87.3001C265.08 87.3201 270.53 93.2601 272.22 101.67Z" fill="#1C2745"/>
<path d="M272.55 69.5598C272.55 69.5598 278.93 76.5098 274.55 82.6698C270.04 88.9898 296.77 94.0098 294.7 89.4098C292.05 83.4698 287.76 80.7998 288.56 72.7798L272.55 69.5598Z" fill="#F7B2A0"/>
<path d="M280.72 49.9999C287.52 53.3099 299.93 73.2799 295.93 79.7899C294.15 82.6199 283.55 83.3499 274.33 75.7399C270.54 72.6399 265.06 66.2699 266.72 57.6399C267.47 53.7299 272.83 46.1499 280.72 49.9999Z" fill="#FBC6B4"/>
<path d="M286.89 50.9499C288.9 53.3199 288.76 54.0399 280.94 57.8499C273.13 61.6799 271.55 61.5599 273 63.2499C277.25 68.2399 271.05 68.9299 276.19 74.8499C281.32 80.7799 273.14 78.7699 268.36 74.0999C267.42 73.1499 262.24 68.7199 263.57 58.9599C265.1 47.5499 279.47 42.2799 286.89 50.9499Z" fill="#1D1B3A"/>
<path d="M278.07 65.6201C278.07 65.6201 296.96 56.6501 294.37 48.9001C292.77 44.1301 278.32 48.6701 278.32 48.6701L278.07 65.6201Z" fill="#EDA503"/>
<path d="M287.9 51.97C287.21 60.01 282.28 64.5499 266.19 71.9999C266.19 71.9999 255.06 58.3299 264.6 48.38C273.03 39.6199 288.34 46.84 287.9 51.97Z" fill="#FFB502"/>
<path d="M313.5 152.39C313.5 152.39 359.94 168.04 367.72 181.49C375.5 194.95 307.25 256.61 307.25 256.61C307.25 256.61 296.34 249.42 298.85 240.31C308.26 206.18 312 195.1 312 195.1L266.99 170.88L313.5 152.39Z" fill="#1C2745"/>
<path d="M273.35 239.56C271.82 261.45 273.26 307.42 282.69 306.17C292.11 304.91 296.89 300.95 291.2 300.15C285.5 299.32 285.21 298.71 285.12 296.98C284.55 286.15 290.94 264.87 292.63 248.88C294.58 230.33 274.68 220.44 273.35 239.56Z" fill="#FBC6B4"/>
<path d="M277.98 302.26C277.98 302.26 286.74 304.53 291.2 300.16C291.2 300.16 300.64 300.06 295.24 303.43C289.82 306.81 278.97 310.66 277.98 302.26Z" fill="#FFB502"/>
<path d="M256.44 138.76C256.44 138.76 251.42 157.99 251.28 184.17C251.12 215.71 272 288.85 272 288.85C272 288.85 271.17 291.5 289.22 285.41C294.08 283.76 296.51 177.88 296.51 177.88L284.59 150.81L256.44 138.76Z" fill="#1C2745"/>
<path d="M278.2 288.74L279.18 288.38C260.86 238.21 264.93 153.5 264.98 152.65L263.93 152.59C263.89 153.44 259.8 238.37 278.2 288.74Z" fill="white"/>
<path d="M250.7 340.48L319.78 170.19H359.7L291.26 338.9L295.16 340.48L365.94 165.99H316.95L246.8 338.9L250.7 340.48Z" fill="#464F72"/>
<path d="M332.04 241.88H287.58V246.08H332.04V241.88Z" fill="#464F72"/>
<path d="M323.14 262.72H278.68V266.92H323.14V262.72Z" fill="#464F72"/>
<path d="M315.44 283.76H270.98V287.96H315.44V283.76Z" fill="#464F72"/>
<path d="M305.79 305.22H261.33V309.42H305.79V305.22Z" fill="#464F72"/>
<path d="M345.029 216.071L341.097 217.547L387.214 340.414L391.146 338.938L345.029 216.071Z" fill="#464F72"/>
<path d="M298.896 219.296L294.964 220.772L341.098 343.649L345.031 342.172L298.896 219.296Z" fill="#464F72"/>
<path d="M327.54 69.1C327.54 77.04 333.98 83.49 341.93 83.49C349.88 83.49 356.31 77.05 356.31 69.1C356.31 61.16 349.87 54.72 341.93 54.72C333.98 54.71 327.54 61.15 327.54 69.1Z" fill="#FFCF03"/>
<path d="M344.64 0H339.21V38.53H344.64V0Z" fill="#464F72"/>
<path d="M348.6 29.64H335.26V47.42H348.6V29.64Z" fill="#6D76A1"/>
<path d="M341.93 38.03C360.35 38.03 375.28 52.96 375.28 71.38H308.59C308.59 52.97 323.52 38.03 341.93 38.03Z" fill="#329DA6"/>
<path d="M257.46 96.7001C257.94 94.3301 261.18 89.6901 267.98 90.0301C277.11 90.4401 293.07 100 304.24 94.1801C315.44 88.3401 315.77 79.8501 316.75 74.1801C317.71 68.5101 315.44 65.8001 316.37 62.5701C317.31 59.3101 321.11 60.6001 321.73 70.0601C322.03 74.5901 326.2 96.7701 314.16 106.17C298.39 118.48 254.56 110.62 257.46 96.7001Z" fill="#FBC6B4"/>
<path d="M257.43 94.3802C257.43 94.3802 253.5 103.59 267.03 109.81C280.53 116.02 287.28 116.88 287.28 116.88C287.28 116.88 293.77 109.61 294.61 94.3702C294.62 94.3802 261.11 80.6502 257.43 94.3802Z" fill="#EDA503"/>
<path d="M377.56 129.12C377.56 124.23 381.53 120.26 386.42 120.26C391.31 120.26 395.29 124.23 395.29 129.12C395.29 134 391.32 137.98 386.42 137.98C381.53 137.99 377.56 134.01 377.56 129.12ZM381.51 129.12C381.51 131.83 383.71 134.03 386.42 134.03C389.13 134.03 391.33 131.83 391.33 129.12C391.33 126.41 389.12 124.21 386.42 124.21C383.72 124.21 381.51 126.41 381.51 129.12Z" fill="#64B4D7"/>
<path d="M441.1 278.22H404.74V281.03H441.1V278.22Z" fill="#27355C"/>
<path d="M426.9 269.04H406.86V271.85H426.9V269.04Z" fill="#27355C"/>
<path d="M728.408 267.052H696.588V319H728.408V308.862H709.242V297.466H726.188V287.698H709.242V277.19H728.408V267.052ZM736.623 267.052V319H765.853V309.232H749.277V267.052H736.623ZM803.709 267.052H771.889V319H803.709V308.862H784.543V297.466H801.489V287.698H784.543V277.19H803.709V267.052ZM809.778 292.952C809.778 308.492 820.582 319.37 835.9 319.37C848.258 319.37 857.582 312.488 860.542 301.24H846.63C844.484 305.68 840.562 307.9 835.752 307.9C827.982 307.9 822.654 302.128 822.654 292.952C822.654 283.776 827.982 278.004 835.752 278.004C840.562 278.004 844.484 280.224 846.63 284.664H860.542C857.582 273.416 848.258 266.46 835.9 266.46C820.582 266.46 809.778 277.412 809.778 292.952ZM865.479 277.19H879.243V319H891.897V277.19H905.661V267.052L865.479 267.052V277.19ZM939.466 283.924C939.466 287.994 937.246 290.436 932.51 290.436H924.666V277.56H932.51C937.246 277.56 939.466 280.076 939.466 283.924ZM912.012 267.052V319L924.666 319V299.39H927.7L938.504 319H952.786L940.798 298.428C948.79 296.06 952.342 289.918 952.342 283.406C952.342 274.378 945.978 267.052 933.25 267.052H912.012ZM960.285 319H972.939V267.052H960.285V319ZM979.963 292.952C979.963 308.492 990.767 319.37 1006.09 319.37C1018.44 319.37 1027.77 312.488 1030.73 301.24H1016.82C1014.67 305.68 1010.75 307.9 1005.94 307.9C998.167 307.9 992.839 302.128 992.839 292.952C992.839 283.776 998.167 278.004 1005.94 278.004C1010.75 278.004 1014.67 280.224 1016.82 284.664H1030.73C1027.77 273.416 1018.44 266.46 1006.09 266.46C990.767 266.46 979.963 277.412 979.963 292.952ZM1038.48 319H1051.13V267.052H1038.48V319ZM1095.75 319H1109.14L1090.34 267.052H1075.69L1056.9 319H1070.14L1073.25 309.824H1092.64L1095.75 319ZM1089.38 300.056H1076.58L1082.94 281.038L1089.38 300.056ZM1148.68 267.052V299.242L1127.52 267.052H1114.86V319H1127.52V286.958L1148.68 319H1161.33V267.052H1148.68Z" fill="white"/>
<path d="M971.17 227.001H978.775V252H981.505V227.001H989.071V224.739H971.17V227.001ZM1013.43 241.353C1013.43 234.567 1008.79 230.394 1002.78 230.394C996.814 230.394 992.134 234.567 992.134 241.353C992.134 248.1 996.697 252.312 1002.7 252.312C1008.71 252.312 1013.43 248.1 1013.43 241.353ZM994.903 241.353C994.903 235.503 998.686 232.773 1002.74 232.773C1006.8 232.773 1010.62 235.503 1010.62 241.353C1010.62 247.203 1006.72 249.933 1002.7 249.933C998.647 249.933 994.903 247.203 994.903 241.353ZM1021.1 235.386V230.706H1018.4V262.062H1021.1V247.32C1022.34 249.972 1025.31 252.312 1029.56 252.312C1035.37 252.312 1039.7 247.983 1039.7 241.314C1039.7 234.645 1035.37 230.394 1029.56 230.394C1025.31 230.394 1022.34 232.695 1021.1 235.386ZM1036.93 241.314C1036.93 246.696 1033.5 249.933 1029.01 249.933C1024.68 249.933 1021.1 246.657 1021.1 241.353C1021.1 236.049 1024.68 232.773 1029.01 232.773C1033.5 232.773 1036.93 235.893 1036.93 241.314ZM1070.09 232.656C1070.09 235.971 1068.1 238.389 1063.65 238.389H1058.15V227.04H1063.61C1068.22 227.04 1070.09 229.224 1070.09 232.656ZM1055.42 224.739V252H1058.15V240.612H1063.18L1069.93 252H1073.21L1066.19 240.417C1070.79 239.559 1072.9 236.4 1072.9 232.656C1072.9 228.171 1069.93 224.739 1063.61 224.739H1055.42ZM1077.07 241.314C1077.07 247.983 1081.39 252.312 1087.21 252.312C1091.46 252.312 1094.42 250.011 1095.67 247.281V252H1098.4V230.706H1095.67V235.386C1094.46 232.695 1091.53 230.394 1087.24 230.394C1081.39 230.394 1077.07 234.645 1077.07 241.314ZM1095.67 241.353C1095.67 246.657 1092.12 249.933 1087.75 249.933C1083.27 249.933 1079.83 246.696 1079.83 241.314C1079.83 235.893 1083.27 232.773 1087.75 232.773C1092.12 232.773 1095.67 236.049 1095.67 241.353ZM1105.41 246.228C1105.41 250.479 1107.4 252 1111.1 252H1114.03V249.66H1111.53C1109.08 249.66 1108.18 248.841 1108.18 246.228V233.007H1114.03V230.706H1108.18V225.363H1105.41V230.706H1102.45V233.007H1105.41V246.228ZM1127.62 232.734C1131.56 232.734 1135.15 235.23 1135.03 240.183H1120.05C1120.37 235.23 1123.76 232.734 1127.62 232.734ZM1137.49 245.253H1134.6C1133.82 248.1 1131.36 250.011 1127.74 250.011C1123.76 250.011 1120.29 247.398 1120.05 242.406H1137.72C1137.8 241.665 1137.8 241.119 1137.8 240.261C1137.8 234.84 1133.98 230.394 1127.74 230.394C1121.61 230.394 1117.28 234.567 1117.28 241.353C1117.28 248.1 1121.69 252.312 1127.74 252.312C1133.08 252.312 1136.51 249.27 1137.49 245.253ZM1141.54 241.314C1141.54 247.983 1145.87 252.312 1151.72 252.312C1155.94 252.312 1158.9 250.05 1160.15 247.242V252H1162.88V223.14H1160.15V235.308C1158.78 232.5 1155.58 230.394 1151.76 230.394C1145.87 230.394 1141.54 234.645 1141.54 241.314ZM1160.15 241.353C1160.15 246.657 1156.6 249.933 1152.23 249.933C1147.75 249.933 1144.31 246.696 1144.31 241.314C1144.31 235.893 1147.75 232.773 1152.23 232.773C1156.6 232.773 1160.15 236.049 1160.15 241.353Z" fill="white"/>
<defs>
<filter id="filter0_d_2_8766" x="0" y="80" width="1220" height="286" filterUnits="userSpaceOnUse" color-interpolation-filters="sRGB">
<feFlood flood-opacity="0" result="BackgroundImageFix"/>
<feColorMatrix in="SourceAlpha" type="matrix" values="0 0 0 0 0 0 0 0 0 0 0 0 0 0 0 0 0 0 127 0" result="hardAlpha"/>
<feOffset/>
<feGaussianBlur stdDeviation="10"/>
<feComposite in2="hardAlpha" operator="out"/>
<feColorMatrix type="matrix" values="0 0 0 0 0 0 0 0 0 0 0 0 0 0 0 0 0 0 0.16 0"/>
<feBlend mode="normal" in2="BackgroundImageFix" result="effect1_dropShadow_2_8766"/>
<feBlend mode="normal" in="SourceGraphic" in2="effect1_dropShadow_2_8766" result="shape"/>
</filter>
</defs>
</svg>
