<svg width="259" height="24" viewBox="0 0 259 24" fill="none" xmlns="http://www.w3.org/2000/svg">
<path d="M9.5495 23.448C7.71483 23.448 5.94417 23.224 4.2375 22.776C2.55217 22.3067 1.17617 21.7093 0.1095 20.984L2.1895 16.312C3.19217 16.952 4.34417 17.4853 5.6455 17.912C6.96817 18.3173 8.28017 18.52 9.5815 18.52C10.4562 18.52 11.1602 18.4453 11.6935 18.296C12.2268 18.1253 12.6108 17.912 12.8455 17.656C13.1015 17.3787 13.2295 17.0587 13.2295 16.696C13.2295 16.184 12.9948 15.7787 12.5255 15.48C12.0562 15.1813 11.4482 14.936 10.7015 14.744C9.95483 14.552 9.12283 14.36 8.2055 14.168C7.3095 13.976 6.40283 13.7307 5.4855 13.432C4.5895 13.1333 3.76817 12.7493 3.0215 12.28C2.27483 11.7893 1.66683 11.16 1.1975 10.392C0.728167 9.60267 0.4935 8.61067 0.4935 7.416C0.4935 6.072 0.856167 4.856 1.5815 3.768C2.32817 2.68 3.4375 1.80533 4.9095 1.144C6.3815 0.482665 8.21617 0.151999 10.4135 0.151999C11.8855 0.151999 13.3255 0.322666 14.7335 0.664C16.1628 0.983999 17.4322 1.464 18.5415 2.104L16.5895 6.808C15.5228 6.232 14.4668 5.80533 13.4215 5.528C12.3762 5.22933 11.3628 5.08 10.3815 5.08C9.50683 5.08 8.80283 5.176 8.2695 5.368C7.73617 5.53867 7.35217 5.77333 7.1175 6.072C6.88283 6.37067 6.7655 6.712 6.7655 7.096C6.7655 7.58667 6.9895 7.98133 7.4375 8.28C7.90683 8.55733 8.51483 8.792 9.2615 8.984C10.0295 9.15467 10.8615 9.336 11.7575 9.528C12.6748 9.72 13.5815 9.96533 14.4775 10.264C15.3948 10.5413 16.2268 10.9253 16.9735 11.416C17.7202 11.8853 18.3175 12.5147 18.7655 13.304C19.2348 14.072 19.4695 15.0427 19.4695 16.216C19.4695 17.5173 19.0962 18.7227 18.3495 19.832C17.6242 20.92 16.5255 21.7947 15.0535 22.456C13.6028 23.1173 11.7682 23.448 9.5495 23.448ZM19.7082 23L29.5963 0.599998H35.8363L45.7563 23H39.1643L31.4203 3.704H33.9163L26.1723 23H19.7082ZM25.1163 18.648L26.7483 13.976H37.6923L39.3243 18.648H25.1163ZM62.5285 0.599998H68.8645V23H62.5285V0.599998ZM53.8885 23H47.5525V0.599998H53.8885V23ZM62.9765 14.264H53.4405V9.016H62.9765V14.264ZM83.6698 23.448C80.3631 23.448 77.7818 22.5413 75.9258 20.728C74.0698 18.9147 73.1418 16.344 73.1418 13.016V0.599998H79.4778V12.824C79.4778 14.744 79.8511 16.12 80.5978 16.952C81.3658 17.784 82.4111 18.2 83.7338 18.2C85.0564 18.2 86.0911 17.784 86.8378 16.952C87.5844 16.12 87.9578 14.744 87.9578 12.824V0.599998H94.1978V13.016C94.1978 16.344 93.2698 18.9147 91.4138 20.728C89.5578 22.5413 86.9764 23.448 83.6698 23.448ZM98.49 23V0.599998H104.826V17.976H115.514V23H98.49ZM115.552 23L125.44 0.599998H131.68L141.6 23H135.008L127.264 3.704H129.76L122.016 23H115.552ZM120.96 18.648L122.592 13.976H133.536L135.168 18.648H120.96ZM147.039 23V5.624H140.159V0.599998H160.223V5.624H153.375V23H147.039ZM173.471 23.448C171.701 23.448 170.058 23.1707 168.543 22.616C167.029 22.04 165.717 21.2293 164.607 20.184C163.519 19.1387 162.666 17.912 162.047 16.504C161.429 15.0747 161.119 13.5067 161.119 11.8C161.119 10.0933 161.429 8.536 162.047 7.128C162.666 5.69867 163.53 4.46133 164.639 3.416C165.749 2.37067 167.061 1.57067 168.575 1.016C170.111 0.439999 171.786 0.151999 173.599 0.151999C175.711 0.151999 177.599 0.503998 179.263 1.208C180.927 1.912 182.303 2.92533 183.391 4.248L179.359 7.896C178.591 7.064 177.759 6.44533 176.863 6.04C175.989 5.61333 175.007 5.4 173.919 5.4C172.959 5.4 172.085 5.54933 171.295 5.848C170.506 6.14667 169.834 6.584 169.279 7.16C168.725 7.71467 168.287 8.38667 167.967 9.176C167.669 9.944 167.519 10.8187 167.519 11.8C167.519 12.7387 167.669 13.6027 167.967 14.392C168.287 15.1813 168.725 15.864 169.279 16.44C169.834 16.9947 170.495 17.432 171.263 17.752C172.053 18.0507 172.917 18.2 173.855 18.2C174.794 18.2 175.711 18.0507 176.607 17.752C177.503 17.432 178.41 16.8987 179.327 16.152L182.879 20.6C181.599 21.5173 180.117 22.2213 178.431 22.712C176.746 23.2027 175.093 23.448 173.471 23.448ZM177.279 19.768V11.32H182.879V20.6L177.279 19.768ZM184.208 23L194.096 0.599998H200.336L210.256 23H203.664L195.92 3.704H198.416L190.672 23H184.208ZM189.616 18.648L191.248 13.976H202.192L203.824 18.648H189.616ZM210.271 23L220.159 0.599998H226.399L236.319 23H229.727L221.983 3.704H224.479L216.735 23H210.271ZM215.679 18.648L217.311 13.976H228.255L229.887 18.648H215.679ZM238.115 23V0.599998H248.355C250.403 0.599998 252.163 0.930665 253.635 1.592C255.128 2.25333 256.28 3.21333 257.091 4.472C257.902 5.70933 258.307 7.18133 258.307 8.888C258.307 10.5733 257.902 12.0347 257.091 13.272C256.28 14.488 255.128 15.4267 253.635 16.088C252.163 16.728 250.403 17.048 248.355 17.048H241.635L244.451 14.392V23H238.115ZM251.971 23L246.403 14.84H253.155L258.755 23H251.971ZM244.451 15.064L241.635 12.152H247.971C249.294 12.152 250.275 11.864 250.915 11.288C251.576 10.712 251.907 9.912 251.907 8.888C251.907 7.84267 251.576 7.032 250.915 6.456C250.275 5.88 249.294 5.592 247.971 5.592H241.635L244.451 2.68V15.064Z" fill="#A63B32"/>
</svg>
