<svg width="1220" height="351" viewBox="0 0 1220 351" fill="none" xmlns="http://www.w3.org/2000/svg">
<g filter="url(#filter0_d_2_8767)">
<rect x="20" y="85" width="1180" height="246" rx="30" fill="#329DA6"/>
</g>
<path d="M60.588 300H73.242L73.242 268.772L84.934 300H95.146L106.764 268.846L106.764 300H119.418L119.418 248.052H104.544L90.114 284.016L75.536 248.052H60.588L60.588 300ZM160.338 248.052L128.518 248.052V300H160.338V289.862H141.172V278.466H158.118V268.698H141.172V258.19H160.338V248.052ZM166.407 273.952C166.407 289.492 177.211 300.37 192.529 300.37C204.887 300.37 214.211 293.488 217.171 282.24H203.259C201.113 286.68 197.191 288.9 192.381 288.9C184.611 288.9 179.283 283.128 179.283 273.952C179.283 264.776 184.611 259.004 192.381 259.004C197.191 259.004 201.113 261.224 203.259 265.664H217.171C214.211 254.416 204.887 247.46 192.529 247.46C177.211 247.46 166.407 258.412 166.407 273.952ZM257.258 300H269.912V248.052H257.258V268.402L237.574 268.402V248.052H224.92V300H237.574V278.614L257.258 278.614V300ZM314.493 300H327.887L309.091 248.052H294.439L275.643 300L288.889 300L291.997 290.824H311.385L314.493 300ZM308.129 281.056H295.327L301.691 262.038L308.129 281.056ZM367.426 248.052V280.242L346.262 248.052H333.608V300H346.262V267.958L367.426 300H380.08V248.052H367.426ZM389.252 300H401.906V248.052H389.252V300ZM408.93 273.952C408.93 289.492 419.734 300.37 435.052 300.37C447.41 300.37 456.734 293.488 459.694 282.24H445.782C443.636 286.68 439.714 288.9 434.904 288.9C427.134 288.9 421.806 283.128 421.806 273.952C421.806 264.776 427.134 259.004 434.904 259.004C439.714 259.004 443.636 261.224 445.782 265.664H459.694C456.734 254.416 447.41 247.46 435.052 247.46C419.734 247.46 408.93 258.412 408.93 273.952Z" fill="white"/>
<path d="M57.17 208.001H64.775V233H67.505V208.001H75.071V205.739H57.17V208.001ZM99.4277 222.353C99.4277 215.567 94.7867 211.394 88.7807 211.394C82.8137 211.394 78.1337 215.567 78.1337 222.353C78.1337 229.1 82.6967 233.312 88.7027 233.312C94.7087 233.312 99.4277 229.1 99.4277 222.353ZM80.9027 222.353C80.9027 216.503 84.6857 213.773 88.7417 213.773C92.7977 213.773 96.6197 216.503 96.6197 222.353C96.6197 228.203 92.7197 230.933 88.7027 230.933C84.6467 230.933 80.9027 228.203 80.9027 222.353ZM107.095 216.386V211.706H104.404V243.062H107.095V228.32C108.343 230.972 111.307 233.312 115.558 233.312C121.369 233.312 125.698 228.983 125.698 222.314C125.698 215.645 121.369 211.394 115.558 211.394C111.307 211.394 108.343 213.695 107.095 216.386ZM122.929 222.314C122.929 227.696 119.497 230.933 115.012 230.933C110.683 230.933 107.095 227.657 107.095 222.353C107.095 217.049 110.683 213.773 115.012 213.773C119.497 213.773 122.929 216.893 122.929 222.314ZM156.088 213.656C156.088 216.971 154.099 219.389 149.653 219.389H144.154V208.04H149.614C154.216 208.04 156.088 210.224 156.088 213.656ZM141.424 205.739V233H144.154V221.612H149.185L155.932 233H159.208L152.188 221.417C156.79 220.559 158.896 217.4 158.896 213.656C158.896 209.171 155.932 205.739 149.614 205.739H141.424ZM163.065 222.314C163.065 228.983 167.394 233.312 173.205 233.312C177.456 233.312 180.42 231.011 181.668 228.281V233H184.398V211.706H181.668V216.386C180.459 213.695 177.534 211.394 173.244 211.394C167.394 211.394 163.065 215.645 163.065 222.314ZM181.668 222.353C181.668 227.657 178.119 230.933 173.751 230.933C169.266 230.933 165.834 227.696 165.834 222.314C165.834 216.893 169.266 213.773 173.751 213.773C178.119 213.773 181.668 217.049 181.668 222.353ZM191.411 227.228C191.411 231.479 193.4 233 197.105 233H200.03V230.66H197.534C195.077 230.66 194.18 229.841 194.18 227.228V214.007H200.03V211.706H194.18V206.363H191.411V211.706H188.447V214.007H191.411V227.228ZM213.619 213.734C217.558 213.734 221.146 216.23 221.029 221.183H206.053C206.365 216.23 209.758 213.734 213.619 213.734ZM223.486 226.253H220.6C219.82 229.1 217.363 231.011 213.736 231.011C209.758 231.011 206.287 228.398 206.053 223.406H223.72C223.798 222.665 223.798 222.119 223.798 221.261C223.798 215.84 219.976 211.394 213.736 211.394C207.613 211.394 203.284 215.567 203.284 222.353C203.284 229.1 207.691 233.312 213.736 233.312C219.079 233.312 222.511 230.27 223.486 226.253ZM227.545 222.314C227.545 228.983 231.874 233.312 237.724 233.312C241.936 233.312 244.9 231.05 246.148 228.242V233H248.878V204.14H246.148V216.308C244.783 213.5 241.585 211.394 237.763 211.394C231.874 211.394 227.545 215.645 227.545 222.314ZM246.148 222.353C246.148 227.657 242.599 230.933 238.231 230.933C233.746 230.933 230.314 227.696 230.314 222.314C230.314 216.893 233.746 213.773 238.231 213.773C242.599 213.773 246.148 217.049 246.148 222.353Z" fill="white"/>
<circle cx="68" cy="122" r="12" fill="white"/>
<g clip-path="url(#clip0_2_8767)">
<path opacity="0.08" d="M902.872 296.425C908.545 295.82 914.212 295.168 919.878 294.515C938.613 292.356 957.352 291.004 976.121 289.682C989.45 288.746 1002.86 288.247 1016.18 289.624C1027.63 290.806 1041.46 293.183 1050.3 302.055C1055.26 307.028 1053.15 313.314 1045.86 317.55C1038.15 322.025 1028.37 322.158 1019.85 322.783C939.748 328.669 860.073 320.945 779.945 321.266C768.608 321.311 757.088 322.055 745.762 322.557C738.879 322.862 729.935 324.156 723.175 322.284C718.903 321.102 719.221 316.976 722.474 314.841C728.411 310.94 737.351 310.496 744.108 310.055C761.773 308.9 779.432 307.623 797.08 306.229C832.377 303.435 867.647 300.169 902.872 296.425Z" fill="black"/>
<path d="M959.977 115.591L960.862 108.619L963.842 108.913L964.286 113.842L965.749 113.323L964.269 119.185L961.139 119.301L959.977 115.591Z" fill="#EBCEB1"/>
<path d="M978.192 159.084C982.686 159.484 987.837 159.275 990.82 155.89C993.243 153.137 993.448 149.034 992.649 145.454C992.556 145.041 992.427 144.59 992.075 144.354C991.75 144.135 991.326 144.156 990.937 144.187C986.935 144.494 982.936 144.805 978.934 145.112C976.692 145.287 972.198 146.533 970.974 144.784C969.597 142.81 969.587 137.928 969.115 135.592C967.888 129.522 966.661 123.451 965.434 117.381L959.235 117.928C959.296 123.516 959.355 129.105 959.416 134.693C959.46 138.69 959.501 142.687 959.546 146.68C959.659 157.314 969.484 158.308 978.192 159.084Z" fill="#D1D9DB"/>
<path d="M1004.36 147.053C1008.03 149.84 1009.59 154.841 1010.5 159.47C1014.24 178.528 1012.33 198.187 1010.36 217.508C1010.14 219.67 1009.62 220.606 1007.54 219.677C994.45 213.85 981.579 206.321 967.283 205.405C970.868 193.278 971.248 180.451 973.678 168.041C974.382 164.44 975.27 160.847 976.812 157.516C978.821 153.174 982.034 148.481 985.591 145.246C988.941 142.199 994.265 143.548 998.284 144.566C999.952 144.986 1001.64 145.416 1003.14 146.253C1003.57 146.496 1003.97 146.762 1004.36 147.053Z" fill="#D1D9DB"/>
<path d="M830.101 155.767L833.741 156.792L836.656 155.145L837.316 155.576L836.81 156.402L839.619 155.716L841.724 156.717L842.234 159.743L840.696 162.548L837.586 162.756L834.271 161.144L829.226 159.952L830.101 155.767Z" fill="#EBCEB1"/>
<path d="M831.745 153.864C831.745 153.864 795.259 144.928 795.259 144.925C794.001 144.617 792.494 143.23 791.404 142.561C788.81 140.969 786.219 139.38 783.625 137.789C781.852 136.702 778.742 133.915 776.588 133.915C773.085 133.915 771.23 139.145 771.206 141.949C771.127 150.561 779.176 154.25 785.173 158.865L790.959 161.858L831.472 162.667L831.745 153.864Z" fill="#D1D9DB"/>
<path d="M787.597 109.548C782.945 111.099 777.983 107.707 773.496 109.948C770.577 111.406 768.595 115.075 768.116 118.782C767.894 120.51 767.966 122.314 768.588 123.827C768.991 124.808 769.613 125.627 770.31 126.324C771.24 127.253 772.323 127.947 773.485 128.401C773.038 129.645 772.494 130.844 771.865 131.985C774.155 132.415 776.445 132.845 778.735 133.276C779.032 131.715 779.329 130.157 779.623 128.596C780.269 128.394 780.905 128.128 781.52 127.779C785.225 125.682 787.921 120.999 788.198 116.186C788.328 113.934 787.969 111.724 787.597 109.548Z" fill="#EBCEB1"/>
<path d="M764.053 119.482C763.855 119.147 763.667 118.809 763.496 118.457C761.435 114.204 760.328 109.21 763.376 105.111C766.483 100.937 772.843 99.1089 777.706 100.349C780.385 101.032 783.215 101.948 785.843 101.087C786.629 100.831 787.392 100.39 787.836 99.6931C788.249 99.0474 788.355 98.2413 788.782 97.6025C789.78 96.1131 792.504 96.4649 793.089 98.1593C793.26 98.6546 793.273 99.2114 793.53 99.6692C794.104 100.684 795.505 100.728 796.66 100.878C797.029 100.926 797.429 101.018 797.665 101.309C798.095 101.838 797.685 102.672 797.094 103.01C796.277 103.478 794.856 103.345 794.339 104.26C793.967 104.923 794.538 106.19 794.442 106.956C794.107 109.63 791.797 112.059 789.357 112.971C787.019 113.842 784.927 112.896 782.593 112.298C781.934 112.131 781.23 111.717 780.58 111.625C779.763 111.512 778.96 111.912 778.181 112.086C777.207 112.302 776.195 112.182 775.201 112.1C774.206 112.018 773.171 111.984 772.248 112.36C771.325 112.735 770.543 113.63 770.597 114.624C770.666 115.83 771.879 116.766 771.859 117.976C771.838 119.021 770.908 119.803 770.509 120.77C770.201 121.518 770.191 122.427 769.63 123.011C769.381 123.27 769.042 123.438 768.817 123.718C768.52 124.083 768.431 124.62 768.034 124.876C767.597 125.159 766.982 124.934 766.643 124.538C766.305 124.142 766.168 123.619 766.001 123.124C765.553 121.791 764.75 120.667 764.053 119.482Z" fill="#333333"/>
<path d="M772.833 131.472C771.797 131.366 770.683 131.274 769.777 131.773C768.96 132.22 768.472 133.061 768.031 133.867C756.418 155.05 751.384 179.594 753.759 203.492C767.593 201.002 781.694 199.902 795.761 200.213C794.48 190.925 793.198 181.636 791.916 172.345C790.97 165.492 790.023 158.63 788.451 151.89C787.074 145.98 785.218 140.18 782.908 134.55C781.445 130.991 776.131 131.807 772.833 131.472Z" fill="#D1D9DB"/>
<path d="M802.928 308.842L805.628 311.363C807.367 312.986 806.971 315.934 804.787 316.887C803.502 317.447 801.691 317.362 799.182 315.647L793.427 309.109L794.36 306.994L802.668 305.74L802.928 308.842Z" fill="#E3F420"/>
<path d="M797.279 197.999L810.655 252.632L806.715 306.082L793.512 307.223L790.467 259.009C790.467 259.009 761.51 206.184 763.168 205.04C764.825 203.899 797.279 197.999 797.279 197.999Z" fill="#E3F420"/>
<path d="M761.989 308.842L764.695 311.36C766.438 312.979 766.045 315.927 763.865 316.883C762.58 317.447 760.768 317.365 758.26 315.654L752.494 309.126V306.085L754.675 304.166L761.025 305.341L761.989 308.842Z" fill="#E3F420"/>
<path d="M788.137 201.46L783.988 257.551L764.514 306.929L750.82 304.186L762.812 257.39C762.812 257.39 751.585 198.208 753.513 197.63C755.447 197.053 788.137 201.46 788.137 201.46Z" fill="#E3F420"/>
<path d="M752.491 199.29L757.679 186.75L775.738 180.762L772.293 157.898L790.31 154.985L793.43 187.153L797.849 200.322L754.306 208.275L752.491 199.29Z" fill="#E3F420"/>
<path d="M773.267 147.924C773.297 144.388 773.113 140.364 770.413 138.079C769.805 137.566 769.056 137.163 768.26 137.167C766.633 137.177 765.529 138.765 764.719 140.173C764.453 138.072 764.299 135.752 765.529 134.027C767.098 131.834 770.502 131.568 772.805 132.968C775.109 134.372 776.401 137.02 776.889 139.667C777.378 142.318 777.183 145.037 777.18 147.732C777.176 151.661 777.59 155.579 778 159.487C776.428 159.381 774.89 159.702 773.355 159.77C772.422 156.324 773.236 151.562 773.267 147.924Z" fill="#E3F420"/>
<path d="M785.443 144.265C785.05 140.859 784.227 137.102 781.397 135.165C780.696 134.683 779.791 134.157 779.832 133.31C779.856 132.815 780.235 132.398 780.662 132.145C782.098 131.308 784.039 132.026 785.091 133.31C786.144 134.594 786.523 136.289 786.838 137.922C788.089 144.412 788.844 151.002 789.093 157.608C789.131 158.599 786.711 158.045 786.305 157.598C785.638 156.863 786.011 155.142 786.007 154.26C785.994 150.92 785.826 147.586 785.443 144.265Z" fill="#E3F420"/>
<path d="M995.916 296.838L995.373 300.493L996.613 307.441L1000.7 307.052L1001.47 296.763L1000.86 295.113L995.916 296.838Z" fill="#514943"/>
<path d="M976.713 306.888L970.315 311.575L971.111 315.08L982.827 312.285L981.873 307.226L976.713 306.888Z" fill="#514943"/>
<path d="M964.105 214.748L964.313 262.832L975.038 307.964H983.766L983.223 255.614L988.476 216.05L984.628 208.22L965.229 210.423L964.105 214.748Z" fill="#E3F420"/>
<path d="M986.23 250.134L995.373 296.039L1003.32 295.113L1005.5 259.262L1009.58 220.053L1005.46 208.585H983.267L986.23 250.134Z" fill="#E3F420"/>
<path d="M1007.38 130.704C1006.55 122.86 996.579 118.051 992.321 126.044C991.042 128.446 990.021 131.066 989.962 133.792C989.904 136.518 990.943 139.367 993.117 140.955C993.131 140.965 993.141 140.972 993.155 140.979C992.915 141.638 992.676 142.298 992.44 142.957C992.389 143.097 992.338 143.257 992.392 143.394C992.454 143.555 992.628 143.63 992.789 143.688C993.561 143.982 994.334 144.272 995.103 144.566C995.485 144.709 995.885 144.86 996.292 144.815C997.184 144.723 997.744 143.78 997.97 142.902C998.025 142.69 998.069 142.475 998.11 142.26C1003.18 141.631 1007.92 135.831 1007.38 130.704Z" fill="#EACDB0"/>
<path d="M958.254 42.7616C955.978 49.4433 959.549 56.7024 966.234 58.9809C972.919 61.2559 980.181 57.6862 982.461 51.0045C984.737 44.3227 981.166 37.0637 974.481 34.7852C967.796 32.5101 960.53 36.0799 958.254 42.7616ZM966.084 45.4261C966.887 43.069 969.45 41.8085 971.812 42.6113C974.17 43.4141 975.431 45.9761 974.628 48.3365C973.825 50.6936 971.261 51.9541 968.9 51.1513C966.542 50.3486 965.281 47.7866 966.084 45.4261Z" fill="#D1B337"/>
<path d="M930.609 40.2373C930.161 42.9018 929.987 45.5629 930.073 48.1966L923.449 50.4751L925.613 61.4063L932.612 60.993C933.548 63.4867 934.727 65.8848 936.132 68.1462L931.532 73.4341L938.873 81.8205L944.72 77.9672C946.754 79.6411 948.968 81.1304 951.354 82.4012L950.014 89.2776L960.564 92.8713L963.705 86.6063C966.371 87.0538 969.033 87.228 971.668 87.1426L973.948 93.7629L984.884 91.6005L984.47 84.6045C986.965 83.6685 989.364 82.49 991.627 81.086L996.917 85.684L1005.31 78.3464L1001.45 72.5016C1003.13 70.469 1004.62 68.2555 1005.89 65.8711L1012.77 67.2102L1016.36 56.6649L1010.1 53.5256C1010.54 50.8611 1010.72 48.1966 1010.63 45.5663L1017.26 43.2878L1015.09 32.3565L1008.09 32.7699C1007.16 30.2762 1005.98 27.8781 1004.57 25.6167L1009.17 20.3287L1001.83 11.9424L995.984 15.7957C993.951 14.1218 991.736 12.6324 989.351 11.3617L990.69 4.48523L980.144 0.891581L977.003 7.15314C974.337 6.70564 971.672 6.53143 969.04 6.61683L966.76 0L955.824 2.16234L956.238 9.15835C953.743 10.0943 951.344 11.2729 949.081 12.6768L943.791 8.07888L935.401 15.4165L939.256 21.2613C937.581 23.2938 936.091 25.5074 934.82 27.8918L927.94 26.5527L924.345 37.098L930.609 40.2373ZM1000.6 54.3454L979.781 47.2538C979.908 44.0769 978.408 41.0298 975.814 39.192L982.909 18.3782C996.753 24.4553 1004.24 39.6771 1000.6 54.3454ZM969.983 56.3028C973.162 56.4292 976.21 54.9296 978.049 52.3368L998.872 59.4285C992.796 73.2668 977.567 80.7547 962.892 77.1166L969.983 56.3028ZM968.9 51.1515C966.542 50.3487 965.281 47.7867 966.084 45.4262C966.887 43.0692 969.45 41.8086 971.812 42.6114C974.17 43.4142 975.431 45.9762 974.628 48.3367C973.825 50.6937 971.258 51.9542 968.9 51.1515ZM940.107 39.4209L960.93 46.5125C960.804 49.6894 962.304 52.7365 964.898 54.5743L957.803 75.3881C943.958 69.311 936.47 54.0892 940.107 39.4209ZM941.839 34.3344C947.919 20.4961 963.148 13.0116 977.823 16.6497L970.728 37.4635C967.55 37.3371 964.501 38.8367 962.663 41.4295L941.839 34.3344Z" fill="#EFD154"/>
<path d="M935.92 35.1578C942.39 16.1784 963.097 5.99864 982.085 12.4652C1001.07 18.9317 1011.26 39.6293 1004.79 58.6087C998.319 77.5881 977.611 87.7679 958.623 81.3014C939.638 74.8348 929.454 54.1338 935.92 35.1578ZM937.373 35.6497C931.176 53.8263 940.934 73.6563 959.119 79.8495C977.307 86.0428 997.143 76.2901 1003.34 58.1134C1009.54 39.9334 999.778 20.1068 981.593 13.9136C963.404 7.72031 943.569 17.473 937.373 35.6497Z" fill="#C1B23F"/>
<path d="M939.481 42.7481C937.646 56.337 945.004 69.7688 957.806 75.3847L960.311 68.0334C961.784 69.3145 963.264 70.5271 964.744 71.6817L962.892 77.1166C966.443 77.998 970.024 78.22 973.5 77.8647C977.591 80.4746 981.518 82.6233 985.065 84.3688C984.867 84.4474 984.675 84.5328 984.477 84.6045L984.891 91.6005L973.954 93.7629L971.675 87.1426C969.043 87.228 966.378 87.0572 963.712 86.6063L960.571 92.8713L950.021 89.2777L951.361 82.4012C948.975 81.1305 946.761 79.6411 944.727 77.9672L938.88 81.8205L931.539 73.4342L936.139 68.1462C934.734 65.8848 933.555 63.4867 932.619 60.993L925.619 61.4064L923.456 50.4751L930.079 48.1966C929.994 45.5663 930.165 42.9018 930.616 40.2373L924.348 37.098L927.943 26.5527L932.619 27.4614C934.515 32.9953 936.843 38.0784 939.481 42.7481Z" fill="#D1B337"/>
<path d="M936.778 37.5865C931.881 55.2165 941.576 73.8748 959.119 79.8494C965.534 82.0357 972.157 82.2338 978.312 80.7786C978.961 81.1509 979.604 81.5096 980.239 81.8615C973.377 83.8086 965.875 83.771 958.623 81.3013C939.755 74.8757 929.58 54.3899 935.804 35.5095C936.125 36.2098 936.446 36.9033 936.778 37.5865Z" fill="#ADA03B"/>
<path d="M987.97 10.518C988.008 10.6478 989.296 5.03525 989.296 5.03525L980.844 2.21021C980.844 2.21021 986.391 5.16165 987.97 10.518Z" fill="#FAEB7D"/>
<path d="M864.212 138.147L859.434 140.542C859.66 142.349 859.974 144.153 860.374 145.953C860.777 147.753 861.263 149.519 861.823 151.251L867.165 151.388C873.241 151.545 876.782 158.315 873.436 163.392L870.483 167.873C872.684 170.784 875.172 173.483 877.92 175.939L882.623 173.383C887.964 170.48 894.417 174.576 894.058 180.643L893.744 185.982C897.134 187.427 900.637 188.527 904.208 189.282L907.011 184.704C910.186 179.522 917.821 179.843 920.548 185.275L922.943 190.05C924.751 189.825 926.559 189.511 928.357 189.111C930.158 188.708 931.925 188.223 933.658 187.662L933.794 182.323C933.952 176.25 940.725 172.711 945.804 176.055L950.288 179.006C953.199 176.806 955.899 174.319 958.357 171.573L955.8 166.873C952.895 161.533 956.993 155.084 963.063 155.443L968.404 155.757C969.85 152.368 970.95 148.867 971.706 145.297L967.126 142.496C961.942 139.322 962.263 131.691 967.697 128.965L972.475 126.57C972.249 124.763 971.935 122.96 971.535 121.159C971.132 119.359 970.646 117.593 970.086 115.861L964.744 115.725C958.668 115.567 955.127 108.797 958.473 103.721L961.426 99.2388C959.225 96.3284 956.737 93.6297 953.989 91.1736L949.286 93.7288C943.945 96.6324 937.492 92.5366 937.851 86.4697L938.165 81.1305C934.775 79.6855 931.272 78.5856 927.701 77.8306L924.898 82.4081C921.723 87.5902 914.089 87.2691 911.361 81.8376L908.966 77.062C907.158 77.2875 905.35 77.6017 903.552 78.0014C901.751 78.4045 899.984 78.8896 898.251 79.4498L898.115 84.789C897.957 90.8627 891.184 94.4017 886.105 91.0574L881.621 88.106C878.71 90.3059 876.01 92.7928 873.552 95.5393L876.109 100.24C879.014 105.579 874.916 112.028 868.846 111.67L863.505 111.355C862.059 114.744 860.959 118.246 860.203 121.815L864.783 124.616C869.967 127.79 869.646 135.421 864.212 138.147ZM911.426 127.592C911.242 127.732 911.061 127.882 910.886 128.043C910.64 128.272 910.411 128.511 910.203 128.763L887.606 125.365C889.871 117.559 895.316 110.881 902.769 107.167C904.642 106.235 906.894 107.311 907.352 109.354L911.426 127.592ZM935.161 116.558L919.543 126.977C918.904 126.628 918.22 126.379 917.523 126.229L913.449 107.987C912.991 105.944 914.581 104.011 916.676 104.062C923.733 104.23 930.39 106.935 935.527 111.475C937.103 112.872 936.915 115.39 935.161 116.558ZM916.296 129.064C918.777 129.252 920.637 131.411 920.452 133.891C920.264 136.371 918.104 138.229 915.623 138.045C913.142 137.857 911.283 135.698 911.467 133.218C911.652 130.738 913.815 128.876 916.296 129.064ZM923.405 134.349C923.487 133.563 923.449 132.767 923.282 131.988L938.781 121.648C940.496 120.504 942.851 121.235 943.575 123.165C944.054 124.439 944.45 125.761 944.755 127.127C946.152 133.389 945.445 139.63 943.104 145.109C942.256 147.094 939.755 147.729 938.087 146.359L923.405 134.349ZM906.932 157.673L915.186 141C916.898 141.177 918.665 140.767 920.158 139.753L934.512 151.504C936.094 152.799 936.088 155.221 934.498 156.505C931.074 159.272 926.973 161.315 922.383 162.34C917.834 163.354 913.296 163.258 909.054 162.234C907.048 161.752 906.016 159.525 906.932 157.673ZM890.206 132.063L908.576 134.827C908.757 135.879 909.16 136.897 909.796 137.812L901.447 154.674C900.514 156.56 898.036 157.075 896.454 155.685C891.925 151.705 888.573 146.308 887.158 139.975C886.82 138.462 886.604 136.948 886.509 135.445C886.375 133.402 888.176 131.759 890.206 132.063Z" fill="#659993"/>
<g opacity="0.11">
<path d="M878.385 130.734C879.94 110.027 898.063 94.4427 918.781 96.0004C939.498 97.5547 955.089 115.67 953.531 136.378C951.976 157.086 933.852 172.669 913.135 171.112C892.418 169.554 876.827 151.442 878.385 130.734ZM885.798 131.291C884.547 147.914 897.062 162.452 913.692 163.699C930.322 164.949 944.867 152.44 946.115 135.817C947.366 119.195 934.85 104.657 918.22 103.41C901.594 102.163 887.049 114.669 885.798 131.291Z" fill="black"/>
</g>
<path d="M919.83 49.6246C920.032 48.1933 920.131 46.762 920.158 45.3477L913.022 42.8916L911.706 35.5301L917.544 30.7511C916.477 28.0319 915.097 25.4631 913.446 23.0855L906.228 25.3025L900.828 20.1239L902.742 12.817C900.391 11.3242 897.852 10.0705 895.155 9.12086L890.582 15.1399L883.173 14.0673L880.466 7.00977C877.52 7.17715 874.646 7.68272 871.892 8.50257L871.734 16.0554L865.111 19.5466L858.775 15.4439C856.536 17.2749 854.499 19.3621 852.726 21.685L857.028 27.8782L853.741 34.5941L846.201 35.004C845.826 36.4456 845.515 37.9316 845.306 39.4551C845.125 40.8488 845.019 42.2289 844.981 43.6022L852.117 46.0788L853.409 53.4437L847.541 58.2056C848.611 60.9248 849.981 63.5175 851.632 65.9019L858.86 63.7088L864.246 68.9012L862.302 76.2046C864.728 77.7487 867.339 79.0468 870.121 80.0203L874.677 73.9842L882.09 75.0261L884.81 82.0768C887.756 81.8957 890.627 81.3765 893.381 80.5498L893.518 73.0004L900.124 69.4785L906.471 73.564C908.713 71.7194 910.743 69.6254 912.51 67.3025L908.173 61.1263L911.44 54.3865L918.986 53.9663C919.341 52.5453 919.635 51.1003 919.83 49.6246ZM891.426 58.8718C883.518 63.7567 873.129 61.3381 868.221 53.3959C863.348 45.4673 865.788 35.0963 873.717 30.2216C881.621 25.306 892.014 27.7552 896.905 35.6702C901.823 43.5987 899.348 53.9868 891.426 58.8718Z" fill="#8C314C"/>
<path d="M903.556 31.5845C896.396 20.0008 881.177 16.4003 869.585 23.5534C858.002 30.7203 854.407 45.9079 861.587 57.5087C868.744 69.089 883.956 72.6758 895.538 65.5227C907.13 58.3661 910.715 43.1614 903.556 31.5845ZM894.266 63.4628C883.819 69.9157 870.101 66.6807 863.645 56.2345C857.169 45.7678 860.412 32.0696 870.859 25.6065C881.314 19.1536 895.042 22.4023 901.502 32.8519C907.957 43.2946 904.721 57.0099 894.266 63.4628Z" fill="white"/>
<path d="M864.024 68.6929L864.24 68.9012L862.432 76.1637L862.295 76.2047C864.721 77.7487 867.332 79.0468 870.114 80.0204L870.067 79.8872L874.67 73.9809L882.083 75.0227L884.895 81.9607L884.8 82.0768C887.746 81.8958 890.616 81.3765 893.371 80.5499L893.258 80.4781L893.508 73.0005L900.114 69.4785L906.474 73.4377L906.46 73.5641C908.702 71.7195 910.732 69.6254 912.499 67.3025L912.366 67.3162L908.162 61.1264L911.43 54.3866L918.897 53.8605L918.976 53.9664C919.335 52.5488 919.632 51.1004 919.827 49.6281C920.028 48.1967 920.127 46.7654 920.155 45.3512L920.059 45.4434L918.063 44.7227C900.924 62.2639 880.049 67.5997 864.024 68.6929Z" fill="#782441"/>
<path d="M895.538 65.5193C899.516 63.0666 902.547 59.6643 904.53 55.7837C902.971 56.7846 901.402 57.7172 899.83 58.578C898.303 60.4568 896.443 62.117 894.266 63.4595C889.513 66.3973 884.079 67.3196 878.962 66.4758C877.182 66.8926 875.422 67.2444 873.693 67.5382C880.644 70.2164 888.72 69.7313 895.538 65.5193Z" fill="#BB899A"/>
<path d="M872.264 14.4875L872.565 8.40017C872.565 8.40017 876.41 7.13624 879.185 7.13966C879.185 7.13966 874.547 8.00732 872.264 14.4875Z" fill="#A63F65"/>
<path opacity="0.14" d="M904.29 311.756C904.964 311.435 905.575 311.042 905.681 310.632C905.797 310.181 905.428 309.73 904.97 309.478C903.672 308.76 900.685 309.109 899.181 309.098C896.471 309.074 893.761 309.098 891.054 309.184C889.813 309.221 876.242 309.573 877.52 311.9C878.638 313.939 885.887 314.393 887.893 314.352C891.187 314.287 894.502 314.192 897.746 313.655C899.41 313.379 901.05 312.989 902.612 312.429C902.995 312.289 903.668 312.053 904.29 311.756Z" fill="black"/>
<path d="M883.337 314.018C889.383 314.018 894.284 309.119 894.284 303.076C894.284 297.033 889.383 292.135 883.337 292.135C877.291 292.135 872.39 297.033 872.39 303.076C872.39 309.119 877.291 314.018 883.337 314.018Z" fill="#435B6E"/>
<path d="M879.12 309.59L875.586 302.683L879.803 296.169L887.554 296.562L891.092 303.469L886.874 309.983L879.12 309.59Z" fill="#2E414C"/>
<path d="M883.337 307.083C885.551 307.083 887.346 305.289 887.346 303.076C887.346 300.863 885.551 299.069 883.337 299.069C881.123 299.069 879.328 300.863 879.328 303.076C879.328 305.289 881.123 307.083 883.337 307.083Z" fill="#22323A"/>
<path d="M900.165 268.759L911.72 246.729L921.334 252.608L907.072 272.981L903.272 272.387C902.889 272.329 902.551 272.117 902.325 271.803L900.165 268.759Z" fill="#2E414C"/>
<path d="M901.785 265.425C904.957 266.569 908.214 267.679 911.566 268.759C912.998 269.22 913.887 267 912.4 266.535C908.925 265.449 905.551 264.328 902.27 263.167C900.917 262.692 900.476 264.954 901.785 265.425Z" fill="#435B6E"/>
<path d="M899.899 269.07C902.855 270.18 905.886 271.259 909.007 272.308C910.336 272.756 911.084 270.795 909.704 270.34C906.481 269.282 903.35 268.188 900.299 267.065C899.034 266.6 898.679 268.612 899.899 269.07Z" fill="#435B6E"/>
<path d="M905.985 257.267C909.646 258.388 913.436 259.454 917.369 260.468C919.058 260.902 920.507 257.793 918.736 257.36C914.615 256.352 910.654 255.283 906.83 254.159C905.257 253.698 904.478 256.806 905.985 257.267Z" fill="#435B6E"/>
<path d="M903.935 261.278C907.352 262.46 910.869 263.601 914.499 264.701C916.05 265.172 917.117 262.641 915.5 262.166C911.727 261.059 908.074 259.908 904.53 258.716C903.07 258.221 902.527 260.789 903.935 261.278Z" fill="#435B6E"/>
<path opacity="0.15" d="M906.467 272.889L917.127 254.183L918.812 255.887L906.99 272.902L906.467 272.889Z" fill="white"/>
<path d="M929.369 249.919C929.516 246.155 926.587 242.083 922.872 239.808C919.153 237.533 914.198 236.781 910.907 238.623C905.92 241.417 906.064 249.045 914.174 254.008C922.287 258.972 929.146 255.628 929.369 249.919Z" fill="#5C7789"/>
<path d="M915.633 251.624C907.523 246.661 906.918 239.784 911.549 237.571C914.605 236.112 919.423 237.092 923.138 239.364C926.857 241.639 929.922 245.482 930.011 248.864C930.148 253.995 923.747 256.588 915.633 251.624Z" fill="#435B6E"/>
<path d="M917.065 238.496L922.858 240.416L926.918 244.877L925.743 249.52L917.222 248.024L912.971 241.106L917.065 238.496Z" fill="#2E414C"/>
<path d="M919.41 245.458C917.25 244.136 916.419 242.138 917.4 241.15C918.244 240.3 920.182 240.508 921.826 241.516C923.47 242.524 924.536 244.15 924.164 245.287C923.73 246.609 921.573 246.78 919.41 245.458Z" fill="#22323A"/>
<path d="M942.694 186.668L929.088 163.385L937.636 158.486L951.241 181.77L949.167 185.907C948.822 186.597 948.094 187.013 947.321 186.966L942.694 186.668Z" fill="#2E414C"/>
<path d="M933.815 172.12C936.631 169.462 939.396 166.743 942.109 163.959C943.247 162.79 941.252 160.649 940.113 161.82C937.4 164.601 934.638 167.32 931.819 169.981C930.636 171.095 932.632 173.233 933.815 172.12Z" fill="#435B6E"/>
<path d="M936.744 177.223C939.56 174.565 942.325 171.846 945.038 169.062C946.176 167.894 944.18 165.752 943.042 166.924C940.329 169.704 937.567 172.424 934.748 175.085C933.565 176.198 935.565 178.337 936.744 177.223Z" fill="#435B6E"/>
<path d="M939.673 182.327C942.489 179.669 945.254 176.95 947.967 174.166C949.105 172.998 947.109 170.856 945.971 172.028C943.258 174.808 940.496 177.527 937.677 180.188C936.494 181.305 938.494 183.44 939.673 182.327Z" fill="#435B6E"/>
<path d="M942.602 187.434C945.418 184.776 948.182 182.057 950.896 179.273C952.034 178.105 950.038 175.963 948.9 177.134C946.187 179.915 943.425 182.634 940.606 185.295C939.423 186.409 941.422 188.547 942.602 187.434Z" fill="#435B6E"/>
<path opacity="0.08" d="M949.638 184.998L948.975 186.371L934.816 163.607L938.34 161.048L949.638 184.998Z" fill="white"/>
<path d="M939.867 148.747C936.535 147.224 931.358 148.351 927.4 150.848C923.442 153.349 920.223 157.523 920.209 161.161C920.189 166.674 927.161 169.363 935.797 163.911C944.433 158.456 944.919 151.056 939.867 148.747Z" fill="#5C7789"/>
<path d="M934.389 161.718C925.753 167.17 919.222 165.171 919.587 160.191C919.83 156.908 923.179 152.939 927.137 150.442C931.094 147.941 936.139 146.609 939.245 147.777C943.955 149.553 943.025 156.262 934.389 161.718Z" fill="#435B6E"/>
<path d="M923.699 156.341L928.398 151.842L934.512 149.844L938.107 152.618L932.397 159.719L923.965 160.983L923.699 156.341Z" fill="#2E414C"/>
<path d="M931.197 156.806C928.897 158.257 926.662 158.268 926.272 157.017C925.937 155.945 927.116 154.281 928.866 153.178C930.616 152.071 932.636 151.716 933.473 152.471C934.447 153.349 933.497 155.354 931.197 156.806Z" fill="#22323A"/>
<path d="M884.974 135.657L889.386 148.693C889.889 150.179 891.502 150.975 892.988 150.472L894.629 149.919C896.115 149.417 896.912 147.804 896.409 146.318L891.997 133.283C891.495 131.797 889.882 131.001 888.395 131.503L886.755 132.057C885.268 132.559 884.472 134.171 884.974 135.657Z" fill="#2E414C"/>
<path d="M887.465 144.416C890.599 144.361 893.737 144.337 896.871 144.344C897.759 144.347 897.845 145.731 896.949 145.727C893.815 145.721 890.678 145.744 887.544 145.799C886.656 145.816 886.57 144.433 887.465 144.416Z" fill="#435B6E"/>
<path d="M886.068 140.289C889.202 140.235 892.339 140.211 895.473 140.217C896.361 140.221 896.447 141.604 895.551 141.601C892.418 141.594 889.28 141.618 886.146 141.673C885.258 141.69 885.172 140.303 886.068 140.289Z" fill="#435B6E"/>
<path d="M885.254 136.538C888.388 136.484 891.526 136.46 894.66 136.467C895.548 136.47 895.634 137.854 894.738 137.85C891.604 137.843 888.467 137.867 885.333 137.922C884.444 137.939 884.359 136.552 885.254 136.538Z" fill="#435B6E"/>
<path d="M886.027 132.996C887.776 132.75 889.533 132.525 891.293 132.33C892.592 132.186 894.547 131.599 895.828 132.289C897.052 132.945 897.681 134.81 898.245 135.995C899.027 137.642 899.7 139.333 900.264 141.058C900.77 142.609 901.173 144.18 901.505 145.768C901.765 147.012 901.966 148.248 900.931 149.099C898.682 150.944 894.683 150.698 891.898 150.66C890.241 150.636 889.984 147.985 891.655 148.009C893.973 148.04 896.259 148.044 898.45 147.34C899.273 147.077 899.167 147.049 898.993 146.154C898.86 145.482 898.699 144.812 898.521 144.146C898.214 142.978 897.858 141.823 897.448 140.682C897.038 139.541 896.584 138.417 896.078 137.314C895.804 136.716 895.521 136.009 895.165 135.459C894.673 134.694 894.663 134.779 893.891 134.738C892.752 134.677 891.488 134.981 890.367 135.114C889 135.274 887.636 135.452 886.273 135.647C884.639 135.876 884.407 133.221 886.027 132.996Z" fill="#AFBDC6"/>
<path d="M879.909 134.632C881.15 134.28 882.411 134.116 883.645 133.751C883.836 133.686 884.027 133.624 884.215 133.566C885.852 133.068 886.85 135.524 885.203 136.108C884.776 136.258 884.349 136.398 883.918 136.525C882.913 136.914 882.035 137.505 882.09 138.742C882.161 140.364 882.818 142.106 883.416 143.606C884.048 145.195 884.858 146.704 885.835 148.108C886.416 148.938 886.355 149.12 887.329 149C888.197 148.891 889.065 148.771 889.933 148.658C890.818 148.542 891.324 149.198 891.379 149.895C891.683 150.428 891.666 151.118 891.013 151.555C889.079 152.853 886.447 154.127 884.28 152.399C883.17 151.511 882.736 149.926 882.192 148.672C881.543 147.172 880.893 145.669 880.248 144.17C879.332 142.048 877.243 138.981 877.865 136.572C878.139 135.531 878.904 134.916 879.909 134.632Z" fill="#2E414C"/>
<path d="M904.748 142.82C908.354 142.441 911.864 141.792 915.415 141.061C917.79 140.573 920.127 140.159 922.438 139.415C924.71 138.683 926.966 137.888 929.263 137.232C930.982 136.743 936.354 134.683 937.458 136.911C938.124 138.26 936.754 139.9 935.954 140.859C934.768 142.277 933.524 143.722 932.253 145.048C928.442 149.024 924.119 152.508 919.42 155.381C915.702 157.653 911.693 159.559 907.445 160.467C906.956 160.573 906.464 160.662 905.965 160.741C905.756 160.771 905.534 160.802 905.343 160.713C905.063 160.587 904.94 160.259 904.847 159.965C903.333 155.2 902.113 150.339 901.194 145.423C901.078 144.795 900.972 144.112 901.273 143.551C901.765 142.639 903.867 142.913 904.748 142.82Z" fill="#AFBDC6"/>
<path d="M880.48 134.981C879.766 135.069 879.345 135.797 879.595 136.514L884.154 149.687C884.355 150.274 884.943 150.65 885.524 150.564L891.317 149.724L895.596 162.244C895.459 162.056 893.682 162.042 893.063 161.796C891.963 161.356 891.006 161.216 889.82 161.099C882.271 160.345 874.253 160.116 867.818 164.789C857.466 172.311 847.295 180.103 837.121 187.861C826.8 195.731 816.564 203.711 806.51 211.916C806.308 212.08 806.106 212.244 805.905 212.408C800.932 216.473 796.004 220.593 791.065 224.699C788.495 226.834 785.925 228.962 783.342 231.08C780.563 233.355 778.844 235.733 774.924 234.51C771.425 233.42 767.932 230.937 765.635 228.115C763.749 225.795 762.501 223.083 761.883 220.166C761.213 217.016 759.996 213.098 763.236 211.038C764.658 210.133 766.062 209.235 767.419 208.237C788.325 194.037 809.599 179.898 830.2 165.1C831.66 164.051 833.122 163.002 834.585 161.957C839.995 158.093 848.983 151.169 854.267 147.128C864.561 139.257 865.757 133.443 871.686 123.885C874.079 120.025 876.317 116.073 878.446 112.062L886.044 134.291L880.48 134.981Z" fill="#435B6E"/>
<path d="M896.515 101.374C904.304 99.9015 923.46 109.446 928.501 111.547C933.541 113.651 930.261 117.617 930.261 117.617C929.358 117.754 928.456 117.901 927.554 118.047C925.117 118.45 922.684 118.881 920.257 119.349C918.484 119.691 916.713 120.049 914.946 120.415C914.061 120.599 913.176 120.777 912.294 120.968C911.59 121.122 910.941 121.484 910.244 121.703C909.465 121.942 908.689 122.184 907.933 122.492C906.495 123.076 904.936 123.896 903.771 124.934C903.361 125.3 902.728 126.249 902.951 126.871C902.978 126.946 915.223 160.99 915.223 160.99C915.37 161.393 915.073 161.824 914.646 161.831L895.596 162.234C895.599 162.234 896.474 161.554 896.259 159.156C896.112 157.513 895.78 155.89 895.401 154.288C895.001 152.614 894.519 150.968 894.02 149.321L898.839 148.621C900.319 148.406 901.153 146.858 900.586 145.379L896.225 134.017C896.009 133.46 895.452 133.109 894.892 133.177L889.273 133.874C886.505 125.621 883.327 117.504 879.749 109.565C879.318 110.396 878.884 111.219 878.446 112.045L878.105 111.045C881.133 107.277 888.727 102.846 896.515 101.374Z" fill="#C1D0DB"/>
<path d="M894.017 149.331C894.516 150.978 895.001 152.624 895.398 154.298C895.78 155.9 896.109 157.523 896.256 159.166C896.471 161.564 895.596 162.244 895.592 162.244L891.314 149.724L894.017 149.331Z" fill="#C1D0DB"/>
<path d="M889.27 133.887L886.04 134.287L878.443 112.059C878.88 111.236 879.318 110.409 879.745 109.579C883.323 117.518 886.502 125.634 889.27 133.887Z" fill="#C1D0DB"/>
<path d="M838.867 187.765C838.683 187.908 838.495 188.048 838.307 188.192C827.312 196.575 816.41 205.074 805.7 213.815C805.484 213.99 805.272 214.164 805.057 214.341C799.76 218.673 794.514 223.063 789.251 227.432C786.513 229.703 783.776 231.975 781.025 234.23C778.065 236.651 776.233 239.186 772.057 237.885C768.332 236.723 764.61 234.079 762.163 231.073C760.153 228.603 758.824 225.713 758.164 222.608C757.45 219.254 756.155 215.079 759.606 212.883C761.12 211.92 762.617 210.963 764.063 209.897C783.909 196.418 804.924 182.344 824.609 168.42L838.867 187.765Z" fill="#E29530"/>
<path d="M776.807 225.921C778.847 223.626 778.639 220.114 776.344 218.075C774.048 216.036 770.534 216.243 768.494 218.538C766.454 220.832 766.662 224.345 768.957 226.384C771.253 228.423 774.767 228.215 776.807 225.921Z" fill="white"/>
<path opacity="0.08" d="M837.439 179.03L833.095 173.138C832.282 172.034 832.514 170.48 833.621 169.667C840.685 164.468 864.12 147.125 865.562 144.914C866.837 142.957 868.194 141.051 869.533 139.141C870.299 138.048 872.818 133.054 874.017 132.716C876.714 131.951 877.985 139.435 878.587 141.184C879.779 144.655 880.928 148.143 882.055 151.634C882.407 152.723 881.632 153.847 880.487 153.905C877.958 154.035 873.836 154.572 870.777 156.546C866.833 159.094 847.343 174.466 840.979 179.502C839.875 180.376 838.273 180.161 837.439 179.03Z" fill="white"/>
<path d="M769.289 217.597C771.913 215.664 775.625 216.224 777.559 218.851C779.493 221.474 778.93 225.184 776.305 227.118C773.68 229.051 769.969 228.491 768.034 225.864C766.1 223.24 766.664 219.531 769.289 217.597ZM769.658 218.099C767.31 219.828 766.807 223.145 768.537 225.491C770.266 227.838 773.584 228.34 775.932 226.612C778.28 224.883 778.783 221.566 777.053 219.22C775.324 216.873 772.006 216.371 769.658 218.099Z" fill="#435B6E"/>
<path d="M807.856 190.457L810.932 192.937L814.408 192.551L814.866 193.234L814.038 193.821L817.019 194.313L818.632 196.137L817.88 199.253L815.248 201.316L812.176 200.24L809.657 197.333L805.296 194.119L807.856 190.457Z" fill="#EBCEB1"/>
<path d="M811.123 189.794L783.304 162.141C782.344 161.188 781.746 159.135 781.13 157.95C779.668 155.132 778.205 152.31 776.746 149.492C775.744 147.562 774.466 143.394 772.542 142.236C769.405 140.35 764.928 144.026 763.393 146.523C758.68 154.182 763.889 161.82 766.766 169.182L770.327 174.975L806.13 197.524L811.123 189.794Z" fill="#D1D9DB"/>
<path d="M759.159 111.55C759.278 114.976 760.7 118.246 762.634 121.023C763.636 120.777 764.555 120.275 765.461 119.769C769.531 117.491 773.543 115.011 776.944 111.752C780.344 108.493 783.12 104.066 784.463 100.417C781.568 98.1902 777.05 97.0868 773.314 97.3123C766.503 97.7188 758.896 104.032 759.159 111.55Z" fill="#E3F420"/>
<path d="M788.817 91.7783C790.091 91.2864 791.653 90.9209 792.723 91.768C793.987 92.7724 793.704 94.7605 793.13 96.2704C791.202 101.364 787.32 105.688 782.467 108.155C780.362 109.224 776.387 110.122 775.43 107.01C774.921 105.347 776.141 102.211 776.886 100.646C778.933 96.3728 784.634 93.3941 788.817 91.7783Z" fill="#E3F420"/>
<path d="M1002.21 171.727L998.814 171.744C998.934 169.923 999.053 168.099 999.173 166.278C999.354 163.549 999.535 160.809 1000.08 158.128C1000.94 153.868 1002.74 149.803 1005.29 146.288C1004.01 144.832 1001.56 144.597 1000.02 145.779C998.882 146.646 998.315 148.054 997.847 149.403C996.107 154.404 994.969 159.61 994.453 164.878C994.255 166.897 993.766 169.568 993.965 171.771L982.389 171.833C982.536 169.578 982.686 167.327 982.833 165.072C983.015 162.343 983.196 159.603 983.739 156.922C984.282 154.254 985.188 151.661 986.418 149.229C987.577 146.944 988.763 144.091 990.96 142.773C989.05 142.691 987.126 142.988 985.325 143.637C983.216 144.399 982.211 146.168 981.507 148.194C979.768 153.195 978.63 158.401 978.114 163.668C977.878 166.063 977.235 169.373 977.806 171.73C977.816 171.775 977.823 171.812 977.833 171.853L974.867 171.87L965.226 210.427H1006.12L1002.21 171.727Z" fill="#E3F420"/>
<path d="M940.828 174.856L934.365 172.079L935.472 169.298L940.332 170.231L940.237 168.68L945.469 171.723L944.714 174.764L940.828 174.856Z" fill="#EBCEB1"/>
<path d="M1004.86 155.446C1004.37 155.179 1003.81 154.968 1003.17 154.831C1000.52 154.264 997.71 154.985 995.318 156.269C991.531 158.305 988.36 161.547 984.826 163.996C980.786 166.797 976.747 169.602 972.707 172.403L944.054 170.101L942.868 176.209L976.918 185.585C982.099 181.606 987.146 177.694 992.539 174.067C997.375 170.815 1003.25 168.304 1006.32 163.115C1008.05 160.187 1007.57 156.918 1004.86 155.446Z" fill="#D1D9DB"/>
<path d="M989.351 124.025C988.397 122.519 987.676 120.736 986.61 119.492C985.315 117.986 983.1 117.2 982.454 115.321C981.668 113.029 983.073 110.413 985.192 109.473C986.466 108.906 987.898 108.8 989.293 108.875C989.983 108.913 990.684 108.995 991.323 109.261C992.522 109.76 993.425 110.922 993.602 112.206C993.732 113.128 993.52 114.109 993.882 114.966C995.082 117.825 998.489 118.215 1001.07 118.884C1003.71 119.567 1006.17 119.68 1008.44 121.416C1011.98 124.104 1013.24 129.221 1011.8 133.419C1010.37 137.618 1006.54 140.784 1002.24 141.912C999.829 142.544 1001.85 140.719 1002.46 140.132C1003.66 138.967 1004.71 137.526 1005.26 135.934C1005.97 133.867 1005.75 131.373 1004.27 129.764C1002.97 128.34 1000.96 127.831 999.074 127.428C997.884 127.175 996.572 126.751 995.349 126.768C994.494 126.779 993.79 126.997 992.919 126.83C991.258 126.516 990.209 125.382 989.351 124.025Z" fill="#534741"/>
<path d="M1013.27 144.081C1014.08 144.887 1015.15 145.697 1016.26 145.43C1017.01 145.249 1017.58 144.579 1017.84 143.845C1018.09 143.111 1018.08 142.311 1018.02 141.536C1017.66 136.757 1015.59 132.128 1012.27 128.671C1011.63 128.012 1010.83 127.346 1009.92 127.455C1008.65 127.609 1007.8 129.317 1007.28 130.335C1006.88 131.131 1008.43 132.176 1008.8 133.013C1009.24 134.031 1009.37 135.203 1009.07 136.282C1008.82 137.194 1008.75 137.99 1009.2 138.885C1010.17 140.798 1011.76 142.581 1013.27 144.081Z" fill="#E3F420"/>
<path d="M1000.54 121.993C1001.98 123.407 1003.39 124.869 1004.6 126.485C1006.93 129.61 1008.08 133.149 1009.85 136.562C1010.79 138.386 1011.95 137.051 1013.09 135.872C1014.25 134.68 1015.14 133.228 1015.67 131.65C1016.57 128.944 1016.37 125.887 1015.12 123.322C1014.1 121.217 1012.44 119.499 1010.82 117.815C1008.67 115.591 1005.1 114.559 1002 114.618C1000.56 114.645 996.685 115.195 996.077 116.838C995.523 118.338 999.569 121.04 1000.54 121.993Z" fill="#E3F420"/>
</g>
<defs>
<filter id="filter0_d_2_8767" x="0" y="65" width="1220" height="286" filterUnits="userSpaceOnUse" color-interpolation-filters="sRGB">
<feFlood flood-opacity="0" result="BackgroundImageFix"/>
<feColorMatrix in="SourceAlpha" type="matrix" values="0 0 0 0 0 0 0 0 0 0 0 0 0 0 0 0 0 0 127 0" result="hardAlpha"/>
<feOffset/>
<feGaussianBlur stdDeviation="10"/>
<feComposite in2="hardAlpha" operator="out"/>
<feColorMatrix type="matrix" values="0 0 0 0 0 0 0 0 0 0 0 0 0 0 0 0 0 0 0.16 0"/>
<feBlend mode="normal" in2="BackgroundImageFix" result="effect1_dropShadow_2_8767"/>
<feBlend mode="normal" in="SourceGraphic" in2="effect1_dropShadow_2_8767" result="shape"/>
</filter>
<clipPath id="clip0_2_8767">
<rect width="333" height="325" fill="white" transform="translate(720)"/>
</clipPath>
</defs>
</svg>
