<svg width="107" height="93" viewBox="0 0 107 93" fill="none" xmlns="http://www.w3.org/2000/svg">
<rect width="80" height="80" rx="10" fill="#00A3FF"/>
<path d="M48.9541 16.0006C47.8011 15.9829 46.7352 16.3811 45.7923 17.4599L45.7713 17.4838L40.2825 23.0004L40.3506 23.0779C40.719 23.4853 40.6877 24.1199 40.281 24.4878C39.8743 24.8558 39.2497 24.8148 38.8929 24.3969L38.2435 23.6578C38.158 23.7796 38.0659 23.8965 37.9675 24.0078C37.4123 24.6332 36.693 25.0482 35.9397 25.2216L36.5298 27.4572C36.8054 28.446 35.5986 29.1549 34.8911 28.4194L30.4207 32.9125C30.5746 32.903 30.7288 32.898 30.883 32.8976C35.2915 32.8976 38.8706 36.5993 38.8706 41.1202C38.8706 41.2086 38.8667 41.2962 38.8641 41.3839L54.2653 24.4546C55.1607 23.3187 55.3164 22.1545 55.0232 20.9494C54.7287 19.739 53.9171 18.5156 52.8378 17.5991C52.5047 17.3161 52.1476 17.0636 51.7706 16.8444L38.6136 30.7864C38.2427 31.1922 37.6161 31.2111 37.2221 30.8283C36.8283 30.4453 36.8196 29.8092 37.2031 29.4155L49.7823 16.0859C49.5853 16.0482 49.3862 16.0227 49.1862 16.0095C49.109 16.0048 49.0316 16.0019 48.9543 16.0007L48.9541 16.0006ZM35.7654 20.0911C35.307 20.0858 34.8023 20.2939 34.4 20.7473C33.7135 21.5208 33.7579 22.5213 34.301 23.018C34.8441 23.5144 35.8296 23.4549 36.5161 22.6813C37.2024 21.9079 37.1581 20.9071 36.6148 20.4107C36.4112 20.2246 36.1452 20.1165 35.8562 20.095C35.8261 20.0928 35.7958 20.0915 35.7654 20.0912V20.0911ZM32.7326 27.1319C31.9525 27.1187 31.2537 27.3766 30.6085 28.1147L30.5878 28.1386L19.7662 39.0148C20.9479 39.0732 22.0413 39.4797 22.9548 40.1343C23.1029 38.8629 23.5407 37.644 24.2335 36.5741L24.2812 36.5003L24.9746 35.5962C25.1827 35.3614 25.4041 35.139 25.6375 34.93L33.3313 27.1972C33.1855 27.1678 33.038 27.1481 32.8897 27.1384C32.8369 27.1351 32.7846 27.1329 32.7325 27.1321L32.7326 27.1319ZM53.7066 28.7192C53.4673 28.7208 53.2284 28.74 52.9918 28.7765L37.223 46.1097C36.9015 46.5414 36.5389 46.9399 36.1406 47.2996L35.5205 47.9812C36.5793 48.2165 37.5855 48.6508 38.487 49.2617C38.4865 49.2337 38.4848 49.2061 38.4848 49.178C38.4848 47.8147 38.978 46.5621 39.7901 45.5996L39.7807 45.5902L39.928 45.4422C40.0372 45.3222 40.1516 45.2072 40.2709 45.0975L51.9 33.4094C52.8244 32.3784 54.076 31.9433 55.2437 32.0151C56.4272 32.0878 57.5324 32.6123 58.4261 33.3713C59.32 34.1302 60.0194 35.137 60.3008 36.2936C60.3873 36.6509 60.4266 37.0183 60.4178 37.3862C60.9191 36.3487 60.9495 35.2835 60.6611 34.2018C60.283 32.7846 59.2924 31.3747 58.006 30.3514V30.3516C56.7914 29.3859 55.3305 28.7754 53.962 28.723C53.8763 28.7199 53.7913 28.7186 53.7066 28.7192V28.7192ZM55.0006 33.9885C54.3808 33.9769 53.84 34.1746 53.3228 34.7664L53.3019 34.7902L44.3969 43.7404C46.814 44.0176 48.7449 45.9736 49.0756 48.4298L58.0066 38.6125C58.4899 37.9981 58.5626 37.4196 58.4043 36.769C58.245 36.1143 57.7885 35.4145 57.1728 34.8915C56.5567 34.3684 55.7982 34.035 55.1256 33.9937C55.0836 33.9911 55.0421 33.9893 55.0006 33.9885V33.9885ZM30.8829 34.8801C30.3514 34.8801 29.8364 34.9514 29.3457 35.0839C29.5612 35.0542 29.7785 35.0391 29.9961 35.0387C32.6777 35.0387 34.886 37.2399 34.886 39.9462C34.886 42.6524 32.6774 44.8537 29.9959 44.8537C27.3139 44.8537 25.1056 42.6523 25.1056 39.9462C25.1056 39.6345 25.1362 39.3303 25.1921 39.0347C24.964 39.7057 24.8479 40.4106 24.8486 41.1203C24.8486 44.587 27.5474 47.3604 30.8829 47.3604C34.2183 47.3604 36.9168 44.5871 36.9168 41.1203C36.9168 37.6536 34.2183 34.8802 30.8829 34.8802V34.8801ZM29.9961 37.0208C28.3555 37.0208 27.0588 38.3265 27.0588 39.9462C27.0588 41.566 28.3549 42.8716 29.9961 42.8716C31.6363 42.8716 32.9329 41.5659 32.9329 39.9462C32.9329 38.3263 31.637 37.0208 29.9959 37.0208H29.9961ZM29.6284 37.8309C30.577 37.8309 31.367 38.6321 31.367 39.595C31.367 40.5579 30.5766 41.3591 29.6284 41.3591C28.6799 41.3591 27.8897 40.558 27.8897 39.595C27.8897 38.6322 28.6803 37.8309 29.6284 37.8309V37.8309ZM19.4713 40.9891C17.1656 40.9891 15.3018 42.9011 15.3018 45.3056C15.3018 47.71 17.1656 49.6222 19.4712 49.6222C21.7769 49.6222 23.6406 47.7101 23.6406 45.3056C23.6406 44.9742 23.6039 44.6523 23.5368 44.3432C23.4054 44.0263 23.2937 43.7012 23.2026 43.37C22.5193 41.952 21.1069 40.989 19.4711 40.989L19.4713 40.9891ZM19.4323 42.2021C21.1238 42.2021 22.3711 43.7548 22.3711 45.4861C22.3711 47.2176 21.1235 48.7698 19.4322 48.7698C17.7406 48.7698 16.4931 47.2174 16.4931 45.4861C16.4931 43.7543 17.7409 42.202 19.4323 42.202V42.2021ZM59.8589 42.2379C59.1095 42.2249 58.441 42.4711 57.8201 43.1813L57.7992 43.2055L47.3453 53.7123C50.3058 53.8915 52.6891 56.3084 52.9384 59.32L63.4243 47.7939C64.0084 47.0523 64.1013 46.3313 63.9104 45.5454C63.8842 45.4394 63.8528 45.3349 63.8162 45.2322L56.9388 52.5375C56.5688 52.9453 55.941 52.9657 55.546 52.5827C55.151 52.1995 55.1423 51.5622 55.527 51.1683L62.5909 43.6646C62.6284 43.6238 62.6691 43.5863 62.7127 43.5525C62.627 43.4684 62.5385 43.3875 62.4472 43.3099C61.7186 42.691 60.8209 42.2938 60.0098 42.244C59.9592 42.2409 59.9089 42.2389 59.859 42.238L59.8589 42.2379ZM19.3975 43.8599C18.574 43.8599 17.9067 44.6358 17.9067 45.5929C17.9067 46.5498 18.574 47.3257 19.3975 47.3257C20.2211 47.3257 20.8887 46.55 20.8887 45.5929C20.8887 44.636 20.2212 43.86 19.3976 43.86L19.3975 43.8599ZM43.8059 45.6879C41.9428 45.6879 40.4379 47.2299 40.4379 49.1779C40.4379 51.1258 41.9428 52.668 43.8059 52.668C45.6689 52.668 47.1738 51.1257 47.1738 49.1778C47.1738 47.2298 45.6689 45.6879 43.8059 45.6879ZM43.5579 46.9162C44.7947 46.9162 45.6499 48.0482 45.6499 49.2388C45.6499 50.4296 44.7945 51.5611 43.5579 51.5611C42.321 51.5611 41.4657 50.4295 41.4657 49.2388C41.4657 48.048 42.3211 46.9162 43.5577 46.9162H43.5579ZM25.8307 47.4811L24.3087 49.154C24.0738 49.4657 23.811 49.7546 23.5236 50.0171L23.0911 50.4925C24.1354 51.1304 25.0271 52.0061 25.6959 53.0455C26.4245 51.4246 27.6058 50.0607 29.0718 49.1267C27.8637 48.8366 26.7599 48.2649 25.8308 47.4809L25.8307 47.4811ZM33.6766 49.7609C29.8974 49.7609 26.8392 52.9051 26.8392 56.8295C26.8392 60.7541 29.8975 63.8984 33.6767 63.8984C37.456 63.8984 40.5144 60.7541 40.5144 56.8295C40.5144 52.9052 37.4559 49.7608 33.6767 49.7608L33.6766 49.7609ZM18.0107 51.4211C15.1638 51.9206 13 54.467 13 57.5706C13 59.1156 13.5371 60.522 14.4264 61.6075C13.8549 60.7357 13.5505 59.7117 13.5514 58.6646V58.6642C13.5509 55.767 15.8504 53.3793 18.6826 53.3793C21.5151 53.3793 23.8147 55.767 23.814 58.6644C23.8145 60.9673 22.3616 62.9468 20.3434 63.6629C22.798 63.1052 24.689 61.0119 25.0173 58.3875C24.9301 57.873 24.8863 57.3519 24.8864 56.8299C24.8864 56.6019 24.8947 56.3756 24.9109 56.1516C24.4009 53.8652 22.6851 52.0742 20.4937 51.5146C20.1611 51.5727 19.8198 51.6045 19.4713 51.6045C18.9679 51.6045 18.4789 51.54 18.0106 51.4212L18.0107 51.4211ZM33.2535 51.4919C36.2034 51.4919 38.5919 53.9917 38.5919 57.02C38.5919 60.0486 36.2031 62.5483 33.2535 62.5483C30.3036 62.5483 27.915 60.0485 27.915 57.0202C27.915 53.992 30.304 51.4921 33.2535 51.4921V51.4919ZM33.2535 53.4737C31.3861 53.4737 29.8681 55.0368 29.8681 57.02C29.8681 59.0035 31.3853 60.5665 33.2535 60.5665C35.1211 60.5665 36.6388 59.0034 36.6388 57.0202C36.6388 55.037 35.1217 53.474 33.2535 53.474V53.4737ZM42.1352 54.371C42.2738 54.8724 42.3697 55.3849 42.4219 55.9029C42.8203 55.4148 43.2907 54.9921 43.8164 54.6498C43.813 54.65 43.8096 54.6501 43.8062 54.6501C43.2224 54.6501 42.661 54.551 42.1352 54.3709V54.371ZM18.683 55.3611C16.9253 55.3611 15.5044 56.8189 15.5049 58.6641V58.6646C15.5044 60.5097 16.9253 61.9675 18.683 61.9675C20.4405 61.9675 21.8617 60.5095 21.8611 58.6645V58.6641C21.8617 56.819 20.4405 55.3613 18.683 55.3613V55.3611ZM33.1908 55.3893C34.1637 55.3893 34.814 56.2642 34.814 57.146C34.814 58.0281 34.1637 58.9026 33.1908 58.9026C32.2179 58.9026 31.5675 58.0279 31.5675 57.146C31.5675 56.2642 32.2179 55.3893 33.1908 55.3893ZM46.9929 55.6827C44.7718 55.6827 42.9768 57.5242 42.9768 59.8413C42.9768 62.1584 44.7719 64 46.9929 64C49.214 64 51.0088 62.1585 51.0088 59.8413C51.0088 57.5243 49.2138 55.6827 46.9929 55.6827ZM18.3529 57.1775C19.3256 57.1775 19.9759 58.0522 19.9759 58.9341C19.9759 59.8161 19.3257 60.6908 18.3529 60.6908C17.38 60.6908 16.7296 59.816 16.7296 58.9341C16.7296 58.0521 17.38 57.1774 18.3529 57.1774V57.1775ZM47.4237 57.3342C49.0217 57.3342 50.319 58.6894 50.319 60.3114C50.319 61.9334 49.0215 63.2886 47.4236 63.2886C45.8256 63.2886 44.5285 61.9333 44.5285 60.3114C44.5285 58.6894 45.8257 57.3341 47.4236 57.3341L47.4237 57.3342ZM47.4237 59.3163C46.9027 59.3163 46.4817 59.7397 46.4817 60.3114C46.4817 60.8832 46.9024 61.3066 47.4237 61.3066C47.9446 61.3066 48.3659 60.883 48.3659 60.3114C48.3659 59.7396 47.9449 59.3162 47.4236 59.3162L47.4237 59.3163Z" fill="white"/>
<circle cx="80" cy="66" r="25.5" fill="url(#paint0_linear_3_256)" stroke="#39B1F4" stroke-width="3"/>
<path d="M70.848 77.384C69.0133 77.384 67.3707 76.936 65.92 76.04C64.4693 75.1227 63.328 73.8 62.496 72.072C61.664 70.344 61.248 68.2533 61.248 65.8C61.248 63.3467 61.664 61.256 62.496 59.528C63.328 57.8 64.4693 56.488 65.92 55.592C67.3707 54.6747 69.0133 54.216 70.848 54.216C72.704 54.216 74.3467 54.6747 75.776 55.592C77.2267 56.488 78.368 57.8 79.2 59.528C80.032 61.256 80.448 63.3467 80.448 65.8C80.448 68.2533 80.032 70.344 79.2 72.072C78.368 73.8 77.2267 75.1227 75.776 76.04C74.3467 76.936 72.704 77.384 70.848 77.384ZM70.848 73C71.7227 73 72.48 72.7547 73.12 72.264C73.7813 71.7733 74.2933 70.9947 74.656 69.928C75.04 68.8613 75.232 67.4853 75.232 65.8C75.232 64.1147 75.04 62.7387 74.656 61.672C74.2933 60.6053 73.7813 59.8267 73.12 59.336C72.48 58.8453 71.7227 58.6 70.848 58.6C69.9947 58.6 69.2373 58.8453 68.576 59.336C67.936 59.8267 67.424 60.6053 67.04 61.672C66.6773 62.7387 66.496 64.1147 66.496 65.8C66.496 67.4853 66.6773 68.8613 67.04 69.928C67.424 70.9947 67.936 71.7733 68.576 72.264C69.2373 72.7547 69.9947 73 70.848 73ZM89.9183 77.384C88.3609 77.384 86.8143 77.1813 85.2783 76.776C83.7423 76.3493 82.4409 75.752 81.3742 74.984L83.3903 71.016C84.2436 71.6347 85.2356 72.1253 86.3663 72.488C87.4969 72.8507 88.6383 73.032 89.7903 73.032C91.0916 73.032 92.1156 72.776 92.8623 72.264C93.6089 71.752 93.9823 71.048 93.9823 70.152C93.9823 69.2987 93.6516 68.6267 92.9903 68.136C92.3289 67.6453 91.2623 67.4 89.7903 67.4H87.4223V63.976L93.6623 56.904L94.2383 58.76H82.4943V54.6H98.1743V57.96L91.9663 65.032L89.3423 63.528H90.8463C93.5983 63.528 95.6783 64.1467 97.0863 65.384C98.4943 66.6213 99.1983 68.2107 99.1983 70.152C99.1983 71.4107 98.8676 72.5947 98.2063 73.704C97.5449 74.792 96.5316 75.6773 95.1663 76.36C93.8009 77.0427 92.0516 77.384 89.9183 77.384Z" fill="white"/>
<defs>
<linearGradient id="paint0_linear_3_256" x1="80" y1="42" x2="80" y2="90" gradientUnits="userSpaceOnUse">
<stop stop-color="#00A3FF"/>
<stop offset="1" stop-color="#F1F1F1"/>
</linearGradient>
</defs>
</svg>
