<svg width="107" height="93" viewBox="0 0 107 93" fill="none" xmlns="http://www.w3.org/2000/svg">
<rect width="80" height="80" rx="10" fill="#FDF302"/>
<path d="M53 34.5312H40V13L27 44.4687H40V66L53 34.5312Z" fill="white"/>
<circle cx="80" cy="66" r="25.5" fill="url(#paint0_linear_3_252)" stroke="#FFF855" stroke-width="3"/>
<path d="M72.848 78.384C71.0133 78.384 69.3707 77.936 67.92 77.04C66.4693 76.1227 65.328 74.8 64.496 73.072C63.664 71.344 63.248 69.2533 63.248 66.8C63.248 64.3467 63.664 62.256 64.496 60.528C65.328 58.8 66.4693 57.488 67.92 56.592C69.3707 55.6747 71.0133 55.216 72.848 55.216C74.704 55.216 76.3467 55.6747 77.776 56.592C79.2267 57.488 80.368 58.8 81.2 60.528C82.032 62.256 82.448 64.3467 82.448 66.8C82.448 69.2533 82.032 71.344 81.2 73.072C80.368 74.8 79.2267 76.1227 77.776 77.04C76.3467 77.936 74.704 78.384 72.848 78.384ZM72.848 74C73.7227 74 74.48 73.7547 75.12 73.264C75.7813 72.7733 76.2933 71.9947 76.656 70.928C77.04 69.8613 77.232 68.4853 77.232 66.8C77.232 65.1147 77.04 63.7387 76.656 62.672C76.2933 61.6053 75.7813 60.8267 75.12 60.336C74.48 59.8453 73.7227 59.6 72.848 59.6C71.9947 59.6 71.2373 59.8453 70.576 60.336C69.936 60.8267 69.424 61.6053 69.04 62.672C68.6773 63.7387 68.496 65.1147 68.496 66.8C68.496 68.4853 68.6773 69.8613 69.04 70.928C69.424 71.9947 69.936 72.7733 70.576 73.264C71.2373 73.7547 71.9947 74 72.848 74ZM88.2977 78V57.52L90.5378 59.76H83.8178V55.6H93.4818V78H88.2977Z" fill="white"/>
<defs>
<linearGradient id="paint0_linear_3_252" x1="80" y1="42" x2="80" y2="90" gradientUnits="userSpaceOnUse">
<stop offset="0.276042" stop-color="#FDF302"/>
<stop offset="1" stop-color="#F1F1F1"/>
</linearGradient>
</defs>
</svg>
